<svg version="1.2" xmlns="http://www.w3.org/2000/svg" viewBox="0 0 820 594" width="820" height="594"><style>.a{fill:#fff}.b{fill:#36c}.c{fill:#24478f}.d{fill:#6f6f6f}.e{fill:#85a3e0}.f{fill:#d42e2e}.g{fill:#e58383}.h{fill:#971f1f}.i{fill:#e4edff}.j{fill:#ffe7e7}.k{fill:#b3ccff}.l{fill:#ffb3b3}.m{fill:none;stroke:#7b61ff;stroke-dasharray:10}.n{fill:#222}</style><path class="a" d="m0 0h820v1051h-820z"/><circle class="b" cx="96" cy="927" r="40"/><path fill-rule="evenodd" class="a" d="m94 929h-12v-4h12v-12h4v12h12v4h-12v12h-4z"/><circle class="c" cx="280" cy="927" r="40"/><path fill-rule="evenodd" class="a" d="m278 929h-12v-4h12v-12h4v12h12v4h-12v12h-4z"/><circle class="d" cx="648" cy="927" r="40"/><path fill-rule="evenodd" class="a" d="m646 929h-12v-4h12v-12h4v12h12v4h-12v12h-4z"/><circle class="e" cx="464" cy="927" r="40"/><path fill-rule="evenodd" class="a" d="m462 929h-12v-4h12v-12h4v12h12v4h-12v12h-4z"/><path fill-rule="evenodd" class="b" d="m92.5 696v-11.4h3.7q1.8 0 2.8 0.8 0.9 0.8 0.9 2.3 0 0.8-0.4 1.4-0.5 0.6-1.3 0.9 0.9 0.3 1.5 1 0.5 0.7 0.5 1.7 0 1.6-1 2.4-1 0.9-2.8 0.9zm1.5-5.3v4.1h2.5q1 0 1.6-0.6 0.6-0.5 0.6-1.5 0-2-2.2-2zm0-1.2h2.3q1 0 1.6-0.5 0.5-0.5 0.5-1.4 0-0.9-0.5-1.3-0.5-0.4-1.7-0.4h-2.2zm13.5 5.6q-0.9 1-2.5 1-1.4 0-2.1-0.7-0.7-0.8-0.7-2.4v-5.5h1.5v5.5q0 1.9 1.5 1.9 1.7 0 2.2-1.2v-6.2h1.5v8.5h-1.4zm5.6-9.7v2.1h1.6v1.1h-1.6v5.2q0 0.5 0.2 0.8 0.2 0.2 0.7 0.2 0.3 0 0.7-0.1v1.2q-0.6 0.2-1.1 0.2-1 0-1.5-0.6-0.5-0.6-0.5-1.7v-5.2h-1.5v-1.1h1.5v-2.1zm5.3 0v2.1h1.5v1.1h-1.5v5.2q0 0.5 0.2 0.8 0.2 0.2 0.7 0.2 0.2 0 0.7-0.1v1.2q-0.6 0.2-1.1 0.2-1 0-1.5-0.6-0.5-0.6-0.5-1.7v-5.2h-1.5v-1.1h1.5v-2.1zm2.8 6.2q0-1.2 0.4-2.2 0.5-1 1.4-1.6 0.9-0.5 2-0.5 1.7 0 2.8 1.2 1.1 1.2 1.1 3.2v0.1q0 1.2-0.5 2.2-0.5 1-1.4 1.5-0.9 0.6-2 0.6-1.7 0-2.8-1.2-1-1.2-1-3.2zm1.4 0.2q0 1.4 0.7 2.2 0.6 0.9 1.7 0.9 1.1 0 1.8-0.9 0.6-0.8 0.6-2.4 0-1.4-0.7-2.2-0.6-0.9-1.7-0.9-1.1 0-1.7 0.9-0.7 0.8-0.7 2.4zm9.4-4.3l0.1 1q0.9-1.2 2.5-1.2 2.7 0 2.7 3v5.6h-1.4v-5.6q0-0.9-0.5-1.3-0.4-0.5-1.2-0.5-0.7 0-1.3 0.4-0.5 0.4-0.8 1v6h-1.4v-8.4zm13.1 7.2h5.4v1.2h-6.9v-11.4h1.5zm12.1 1.3q-0.1-0.3-0.2-0.9-1 1-2.4 1-1.2 0-2-0.7-0.8-0.7-0.8-1.8 0-1.3 1-2 1-0.8 2.8-0.8h1.4v-0.6q0-0.8-0.5-1.2-0.4-0.5-1.3-0.5-0.8 0-1.3 0.4-0.5 0.4-0.5 1h-1.5q0-0.7 0.5-1.3 0.4-0.5 1.2-0.9 0.8-0.3 1.7-0.3 1.5 0 2.3 0.7 0.8 0.7 0.8 2v3.9q0 1.2 0.3 1.8v0.2zm-2.4-1.1q0.7 0 1.3-0.4 0.6-0.3 0.9-0.9v-1.7h-1.1q-2.7 0-2.7 1.5 0 0.7 0.5 1.1 0.4 0.4 1.1 0.4zm13.1-3.1q0 2-0.9 3.2-0.9 1.1-2.4 1.1-1.6 0-2.5-1.1l-0.1 1h-1.3v-12h1.5v4.4q0.8-1 2.4-1 1.5 0 2.4 1.1 0.9 1.2 0.9 3.2zm-1.5-0.2q0-1.4-0.5-2.2-0.6-0.8-1.7-0.8-1.4 0-2 1.3v3.6q0.6 1.4 2 1.4 1.1 0 1.7-0.8 0.5-0.8 0.5-2.4zm6.8 4.4q-1.7 0-2.8-1.1-1.1-1.2-1.1-3v-0.3q0-1.3 0.5-2.3 0.5-0.9 1.4-1.5 0.8-0.6 1.8-0.6 1.7 0 2.6 1.1 0.9 1.1 0.9 3.1v0.6h-5.7q0 1.3 0.7 2.1 0.7 0.7 1.8 0.7 0.8 0 1.3-0.3 0.5-0.3 0.9-0.8l0.9 0.7q-1.1 1.6-3.2 1.6zm-0.2-7.6q-0.8 0-1.4 0.7-0.6 0.6-0.8 1.7h4.3v-0.1q-0.1-1.1-0.6-1.7-0.6-0.6-1.5-0.6zm6.8 7.4h-1.5v-12h1.5z"/><path fill-rule="evenodd" class="f" d="m92.5 768v-11.4h3.7q1.8 0 2.8 0.8 0.9 0.8 0.9 2.3 0 0.8-0.4 1.4-0.5 0.6-1.3 0.9 0.9 0.3 1.5 1 0.5 0.7 0.5 1.7 0 1.6-1 2.4-1 0.9-2.8 0.9zm1.5-5.3v4.1h2.5q1 0 1.6-0.6 0.6-0.5 0.6-1.5 0-2-2.2-2zm0-1.2h2.3q1 0 1.6-0.5 0.5-0.5 0.5-1.4 0-0.9-0.5-1.3-0.5-0.4-1.7-0.4h-2.2zm13.5 5.6q-0.9 1-2.5 1-1.4 0-2.1-0.7-0.7-0.8-0.7-2.4v-5.5h1.5v5.5q0 1.9 1.5 1.9 1.7 0 2.2-1.2v-6.2h1.5v8.5h-1.4zm5.6-9.7v2.1h1.6v1.1h-1.6v5.2q0 0.5 0.2 0.8 0.2 0.2 0.7 0.2 0.3 0 0.7-0.1v1.2q-0.6 0.2-1.1 0.2-1 0-1.5-0.6-0.5-0.6-0.5-1.7v-5.2h-1.5v-1.1h1.5v-2.1zm5.3 0v2.1h1.5v1.1h-1.5v5.2q0 0.5 0.2 0.8 0.2 0.2 0.7 0.2 0.2 0 0.7-0.1v1.2q-0.6 0.2-1.1 0.2-1 0-1.5-0.6-0.5-0.6-0.5-1.7v-5.2h-1.5v-1.1h1.5v-2.1zm2.8 6.2q0-1.2 0.4-2.2 0.5-1 1.4-1.6 0.9-0.5 2-0.5 1.7 0 2.8 1.2 1.1 1.2 1.1 3.2v0.1q0 1.2-0.5 2.2-0.5 1-1.4 1.5-0.9 0.6-2 0.6-1.7 0-2.8-1.2-1-1.2-1-3.2zm1.4 0.2q0 1.4 0.7 2.2 0.6 0.9 1.7 0.9 1.1 0 1.8-0.9 0.6-0.8 0.6-2.4 0-1.4-0.7-2.2-0.6-0.9-1.7-0.9-1.1 0-1.7 0.9-0.7 0.8-0.7 2.4zm9.4-4.3l0.1 1q0.9-1.2 2.5-1.2 2.7 0 2.7 3v5.6h-1.4v-5.6q0-0.9-0.5-1.3-0.4-0.5-1.2-0.5-0.7 0-1.3 0.4-0.5 0.4-0.8 1v6h-1.4v-8.4zm13.1 7.2h5.4v1.2h-6.9v-11.4h1.5zm12.1 1.3q-0.1-0.3-0.2-0.9-1 1-2.4 1-1.2 0-2-0.7-0.8-0.7-0.8-1.8 0-1.3 1-2 1-0.8 2.8-0.8h1.4v-0.6q0-0.8-0.5-1.2-0.4-0.5-1.3-0.5-0.8 0-1.3 0.4-0.5 0.4-0.5 1h-1.5q0-0.7 0.5-1.3 0.4-0.5 1.2-0.9 0.8-0.3 1.7-0.3 1.5 0 2.3 0.7 0.8 0.7 0.8 2v3.9q0 1.2 0.3 1.8v0.2zm-2.4-1.1q0.7 0 1.3-0.4 0.6-0.3 0.9-0.9v-1.7h-1.1q-2.7 0-2.7 1.5 0 0.7 0.5 1.1 0.4 0.4 1.1 0.4zm13.1-3.1q0 2-0.9 3.2-0.9 1.1-2.4 1.1-1.6 0-2.5-1.1l-0.1 1h-1.3v-12h1.5v4.4q0.8-1 2.4-1 1.5 0 2.4 1.1 0.9 1.2 0.9 3.2zm-1.5-0.2q0-1.4-0.5-2.2-0.6-0.8-1.7-0.8-1.4 0-2 1.3v3.6q0.6 1.4 2 1.4 1.1 0 1.7-0.8 0.5-0.8 0.5-2.4zm6.8 4.4q-1.7 0-2.8-1.1-1.1-1.2-1.1-3v-0.3q0-1.3 0.5-2.3 0.5-0.9 1.4-1.5 0.8-0.6 1.8-0.6 1.7 0 2.6 1.1 0.9 1.1 0.9 3.1v0.6h-5.7q0 1.3 0.7 2.1 0.7 0.7 1.8 0.7 0.8 0 1.3-0.3 0.5-0.3 0.9-0.8l0.9 0.7q-1.1 1.6-3.2 1.6zm-0.2-7.6q-0.8 0-1.4 0.7-0.6 0.6-0.8 1.7h4.3v-0.1q-0.1-1.1-0.6-1.7-0.6-0.6-1.5-0.6zm6.8 7.4h-1.5v-12h1.5z"/><rect class="e" x="424" y="227" width="160" height="48" rx="4"></rect><path fill-rule="evenodd" class="a" d="m460.5 256v-11.4h3.7q1.8 0 2.8 0.8 0.9 0.8 0.9 2.3 0 0.8-0.4 1.4-0.5 0.6-1.3 0.9 0.9 0.3 1.5 1 0.5 0.7 0.5 1.7 0 1.6-1 2.4-1 0.9-2.8 0.9zm1.5-5.3v4.1h2.5q1 0 1.6-0.6 0.6-0.5 0.6-1.5 0-2-2.2-2zm0-1.2h2.3q1 0 1.6-0.5 0.5-0.5 0.5-1.4 0-0.9-0.5-1.3-0.6-0.4-1.7-0.4h-2.2zm13.5 5.6q-0.9 1-2.5 1-1.4 0-2.1-0.7-0.7-0.8-0.7-2.4v-5.5h1.5v5.5q0 1.9 1.5 1.9 1.7 0 2.2-1.2v-6.2h1.5v8.5h-1.4zm5.6-9.7v2.1h1.6v1.1h-1.6v5.2q0 0.5 0.2 0.8 0.2 0.2 0.7 0.2 0.3 0 0.7-0.1v1.2q-0.6 0.2-1.1 0.2-1 0-1.5-0.6-0.5-0.6-0.5-1.7v-5.2h-1.5v-1.1h1.5v-2.1zm5.3 0v2.1h1.5v1.1h-1.5v5.2q0 0.5 0.2 0.8 0.2 0.2 0.7 0.2 0.2 0 0.7-0.1v1.2q-0.6 0.2-1.1 0.2-1 0-1.5-0.6-0.5-0.6-0.5-1.7v-5.2h-1.5v-1.1h1.5v-2.1zm2.8 6.2q0-1.2 0.4-2.2 0.5-1 1.4-1.6 0.9-0.5 2-0.5 1.7 0 2.8 1.2 1 1.2 1.1 3.2v0.1q-0.1 1.2-0.5 2.2-0.5 1-1.4 1.5-0.9 0.6-2 0.6-1.7 0-2.8-1.2-1-1.2-1-3.2zm1.4 0.2q0 1.4 0.7 2.2 0.6 0.9 1.7 0.9 1.1 0 1.8-0.9 0.6-0.8 0.6-2.4 0-1.4-0.7-2.2-0.6-0.9-1.7-0.9-1.1 0-1.7 0.9-0.7 0.8-0.7 2.4zm9.4-4.3l0.1 1q0.9-1.2 2.5-1.2 2.7 0 2.7 3v5.6h-1.4v-5.6q0-0.9-0.5-1.3-0.4-0.5-1.2-0.5-0.7 0-1.3 0.4-0.5 0.4-0.8 1v6h-1.4v-8.4zm13.1 7.2h5.4v1.2h-6.9v-11.4h1.5zm12.1 1.3q-0.1-0.3-0.2-0.9-1 1-2.4 1-1.2 0-2-0.7-0.8-0.7-0.8-1.8 0-1.3 1-2 1-0.8 2.8-0.8h1.4v-0.6q0-0.8-0.5-1.2-0.4-0.5-1.3-0.5-0.8 0-1.3 0.4-0.5 0.4-0.5 1h-1.5q0-0.7 0.5-1.3 0.4-0.5 1.2-0.9 0.8-0.3 1.7-0.3 1.5 0 2.3 0.7 0.8 0.7 0.8 2v3.9q0 1.2 0.3 1.8v0.2zm-2.4-1.1q0.7 0 1.3-0.4 0.6-0.3 0.9-0.9v-1.7h-1.1q-2.7 0-2.7 1.5 0 0.7 0.5 1.1 0.4 0.4 1.1 0.4zm13.1-3.1q0 2-0.9 3.2-0.9 1.1-2.4 1.1-1.6 0-2.5-1.1l-0.1 1h-1.3v-12h1.5v4.4q0.8-1 2.4-1 1.5 0 2.4 1.1 0.9 1.2 0.9 3.2zm-1.5-0.1q0-1.5-0.5-2.3-0.6-0.8-1.7-0.8-1.4 0-2 1.3v3.6q0.6 1.4 2 1.4 1.1 0 1.7-0.8 0.5-0.8 0.5-2.4zm6.8 4.4q-1.7 0-2.8-1.1-1.1-1.2-1.1-3v-0.3q0-1.3 0.5-2.3 0.5-0.9 1.4-1.5 0.8-0.6 1.8-0.6 1.7 0 2.6 1.1 0.9 1.1 0.9 3.1v0.6h-5.7q0 1.3 0.7 2.1 0.7 0.7 1.8 0.7 0.8 0 1.3-0.3 0.5-0.3 0.9-0.8l0.9 0.7q-1.1 1.6-3.2 1.6zm-0.2-7.6q-0.8 0-1.4 0.7-0.6 0.6-0.8 1.7h4.3v-0.1q-0.1-1.1-0.6-1.7-0.6-0.6-1.5-0.6zm6.8 7.4h-1.5v-12h1.5z"/><rect class="c" x="240" y="227" width="160" height="48" rx="4"></rect><path fill-rule="evenodd" class="a" d="m276.5 256v-11.4h3.7q1.8 0 2.8 0.8 0.9 0.8 0.9 2.3 0 0.8-0.4 1.4-0.5 0.6-1.3 0.9 0.9 0.3 1.5 1 0.5 0.7 0.5 1.7 0 1.6-1 2.4-1 0.9-2.8 0.9zm1.5-5.3v4.1h2.5q1 0 1.6-0.6 0.6-0.5 0.6-1.5 0-2-2.2-2zm0-1.2h2.3q1 0 1.6-0.5 0.5-0.5 0.5-1.4 0-0.9-0.5-1.3-0.6-0.4-1.7-0.4h-2.2zm13.5 5.6q-0.9 1-2.5 1-1.4 0-2.1-0.7-0.7-0.8-0.7-2.4v-5.5h1.5v5.5q0 1.9 1.5 1.9 1.7 0 2.2-1.2v-6.2h1.5v8.5h-1.4zm5.6-9.7v2.1h1.6v1.1h-1.6v5.2q0 0.5 0.2 0.8 0.2 0.2 0.7 0.2 0.3 0 0.7-0.1v1.2q-0.6 0.2-1.1 0.2-1 0-1.5-0.6-0.5-0.6-0.5-1.7v-5.2h-1.5v-1.1h1.5v-2.1zm5.3 0v2.1h1.5v1.1h-1.5v5.2q0 0.5 0.2 0.8 0.2 0.2 0.7 0.2 0.2 0 0.7-0.1v1.2q-0.6 0.2-1.1 0.2-1 0-1.5-0.6-0.5-0.6-0.5-1.7v-5.2h-1.5v-1.1h1.5v-2.1zm2.8 6.2q0-1.2 0.4-2.2 0.5-1 1.4-1.6 0.9-0.5 2-0.5 1.7 0 2.8 1.2 1 1.2 1.1 3.2v0.1q-0.1 1.2-0.5 2.2-0.5 1-1.4 1.5-0.9 0.6-2 0.6-1.7 0-2.8-1.2-1-1.2-1-3.2zm1.4 0.2q0 1.4 0.7 2.2 0.6 0.9 1.7 0.9 1.1 0 1.8-0.9 0.6-0.8 0.6-2.4 0-1.4-0.7-2.2-0.6-0.9-1.7-0.9-1.1 0-1.7 0.9-0.7 0.8-0.7 2.4zm9.4-4.3l0.1 1q0.9-1.2 2.5-1.2 2.7 0 2.7 3v5.6h-1.4v-5.6q0-0.9-0.5-1.3-0.4-0.5-1.2-0.5-0.7 0-1.3 0.4-0.5 0.4-0.8 1v6h-1.4v-8.4zm13.1 7.2h5.4v1.2h-6.9v-11.4h1.5zm12.1 1.3q-0.1-0.3-0.2-0.9-1 1-2.4 1-1.2 0-2-0.7-0.8-0.7-0.8-1.8 0-1.3 1-2 1-0.8 2.8-0.8h1.4v-0.6q0-0.8-0.5-1.2-0.4-0.5-1.3-0.5-0.8 0-1.3 0.4-0.5 0.4-0.5 1h-1.5q0-0.7 0.5-1.3 0.4-0.5 1.2-0.9 0.8-0.3 1.7-0.3 1.5 0 2.3 0.7 0.8 0.7 0.8 2v3.9q0 1.2 0.3 1.8v0.2zm-2.4-1.1q0.7 0 1.3-0.4 0.6-0.3 0.9-0.9v-1.7h-1.1q-2.7 0-2.7 1.5 0 0.7 0.5 1.1 0.4 0.4 1.1 0.4zm13.1-3.1q0 2-0.9 3.2-0.9 1.1-2.4 1.1-1.6 0-2.5-1.1l-0.1 1h-1.3v-12h1.5v4.4q0.8-1 2.4-1 1.5 0 2.4 1.1 0.9 1.2 0.9 3.2zm-1.5-0.1q0-1.5-0.5-2.3-0.6-0.8-1.7-0.8-1.4 0-2 1.3v3.6q0.6 1.4 2 1.4 1.1 0 1.7-0.8 0.5-0.8 0.5-2.4zm6.8 4.4q-1.7 0-2.8-1.1-1.1-1.2-1.1-3v-0.3q0-1.3 0.5-2.3 0.5-0.9 1.4-1.5 0.8-0.6 1.8-0.6 1.7 0 2.6 1.1 0.9 1.1 0.9 3.1v0.6h-5.7q0 1.3 0.7 2.1 0.7 0.7 1.8 0.7 0.8 0 1.3-0.3 0.5-0.3 0.9-0.8l0.9 0.7q-1.1 1.6-3.2 1.6zm-0.2-7.6q-0.8 0-1.4 0.7-0.6 0.6-0.8 1.7h4.3v-0.1q-0.1-1.1-0.6-1.7-0.6-0.6-1.5-0.6zm6.8 7.4h-1.5v-12h1.5z"/><rect class="f" x="56" y="299" width="160" height="48" rx="4"></rect><path fill-rule="evenodd" class="a" d="m92.5 328v-11.4h3.7q1.8 0 2.8 0.8 0.9 0.8 0.9 2.3 0 0.8-0.4 1.4-0.5 0.6-1.3 0.9 0.9 0.3 1.5 1 0.5 0.7 0.5 1.7 0 1.6-1 2.4-1 0.9-2.8 0.9zm1.5-5.3v4.1h2.5q1 0 1.6-0.6 0.6-0.5 0.6-1.5 0-2-2.2-2zm0-1.2h2.3q1 0 1.6-0.5 0.5-0.5 0.5-1.4 0-0.9-0.5-1.3-0.5-0.4-1.7-0.4h-2.2zm13.5 5.6q-0.9 1-2.5 1-1.4 0-2.1-0.7-0.7-0.8-0.7-2.4v-5.5h1.5v5.5q0 1.9 1.5 1.9 1.7 0 2.2-1.2v-6.2h1.5v8.5h-1.4zm5.6-9.7v2.1h1.6v1.1h-1.6v5.2q0 0.5 0.2 0.8 0.2 0.2 0.7 0.2 0.3 0 0.7-0.1v1.2q-0.6 0.2-1.1 0.2-1 0-1.5-0.6-0.5-0.6-0.5-1.7v-5.2h-1.5v-1.1h1.5v-2.1zm5.3 0v2.1h1.5v1.1h-1.5v5.2q0 0.5 0.2 0.8 0.2 0.2 0.7 0.2 0.2 0 0.7-0.1v1.2q-0.6 0.2-1.1 0.2-1 0-1.5-0.6-0.5-0.6-0.5-1.7v-5.2h-1.5v-1.1h1.5v-2.1zm2.8 6.2q0-1.2 0.4-2.2 0.5-1 1.4-1.6 0.9-0.5 2-0.5 1.7 0 2.8 1.2 1.1 1.2 1.1 3.2v0.1q0 1.2-0.5 2.2-0.5 1-1.4 1.5-0.9 0.6-2 0.6-1.7 0-2.8-1.2-1-1.2-1-3.2zm1.4 0.2q0 1.4 0.7 2.2 0.6 0.9 1.7 0.9 1.1 0 1.8-0.9 0.6-0.8 0.6-2.4 0-1.4-0.7-2.2-0.6-0.9-1.7-0.9-1.1 0-1.7 0.9-0.7 0.8-0.7 2.4zm9.4-4.3l0.1 1q0.9-1.2 2.5-1.2 2.7 0 2.7 3v5.6h-1.4v-5.6q0-0.9-0.5-1.3-0.4-0.5-1.2-0.5-0.7 0-1.3 0.4-0.5 0.4-0.8 1v6h-1.4v-8.4zm13.1 7.2h5.4v1.2h-6.9v-11.4h1.5zm12.1 1.3q-0.1-0.3-0.2-0.9-1 1-2.4 1-1.2 0-2-0.7-0.8-0.7-0.8-1.8 0-1.3 1-2 1-0.8 2.8-0.8h1.4v-0.6q0-0.8-0.5-1.2-0.4-0.5-1.3-0.5-0.8 0-1.3 0.4-0.5 0.4-0.5 1h-1.5q0-0.7 0.5-1.3 0.4-0.5 1.2-0.9 0.8-0.3 1.7-0.3 1.5 0 2.3 0.7 0.8 0.7 0.8 2v3.9q0 1.2 0.3 1.8v0.2zm-2.4-1.1q0.7 0 1.3-0.4 0.6-0.3 0.9-0.9v-1.7h-1.1q-2.7 0-2.7 1.5 0 0.7 0.5 1.1 0.4 0.4 1.1 0.4zm13.1-3.1q0 2-0.9 3.2-0.9 1.1-2.4 1.1-1.6 0-2.5-1.1l-0.1 1h-1.3v-12h1.5v4.4q0.8-1 2.4-1 1.5 0 2.4 1.1 0.9 1.2 0.9 3.2zm-1.5-0.2q0-1.4-0.5-2.2-0.6-0.8-1.7-0.8-1.4 0-2 1.3v3.6q0.6 1.4 2 1.4 1.1 0 1.7-0.8 0.5-0.8 0.5-2.4zm6.8 4.4q-1.7 0-2.8-1.1-1.1-1.2-1.1-3v-0.3q0-1.3 0.5-2.3 0.5-0.9 1.4-1.5 0.8-0.6 1.8-0.6 1.7 0 2.6 1.1 0.9 1.1 0.9 3.1v0.6h-5.7q0 1.3 0.7 2.1 0.7 0.7 1.8 0.7 0.8 0 1.3-0.3 0.5-0.3 0.9-0.8l0.9 0.7q-1.1 1.6-3.2 1.6zm-0.2-7.6q-0.8 0-1.4 0.7-0.6 0.6-0.8 1.7h4.3v-0.1q-0.1-1.1-0.6-1.7-0.6-0.6-1.5-0.6zm6.8 7.4h-1.5v-12h1.5z"/><rect class="g" x="424" y="299" width="160" height="48" rx="4"></rect><path fill-rule="evenodd" class="a" d="m460.5 328v-11.4h3.7q1.8 0 2.8 0.8 0.9 0.8 0.9 2.3 0 0.8-0.4 1.4-0.5 0.6-1.3 0.9 0.9 0.3 1.5 1 0.5 0.7 0.5 1.7 0 1.6-1 2.4-1 0.9-2.8 0.9zm1.5-5.3v4.1h2.5q1 0 1.6-0.6 0.6-0.5 0.6-1.5 0-2-2.2-2zm0-1.2h2.3q1 0 1.6-0.5 0.5-0.5 0.5-1.4 0-0.9-0.5-1.3-0.6-0.4-1.7-0.4h-2.2zm13.5 5.6q-0.9 1-2.5 1-1.4 0-2.1-0.7-0.7-0.8-0.7-2.4v-5.5h1.5v5.5q0 1.9 1.5 1.9 1.7 0 2.2-1.2v-6.2h1.5v8.5h-1.4zm5.6-9.7v2.1h1.6v1.1h-1.6v5.2q0 0.5 0.2 0.8 0.2 0.2 0.7 0.2 0.3 0 0.7-0.1v1.2q-0.6 0.2-1.1 0.2-1 0-1.5-0.6-0.5-0.6-0.5-1.7v-5.2h-1.5v-1.1h1.5v-2.1zm5.3 0v2.1h1.5v1.1h-1.5v5.2q0 0.5 0.2 0.8 0.2 0.2 0.7 0.2 0.2 0 0.7-0.1v1.2q-0.6 0.2-1.1 0.2-1 0-1.5-0.6-0.5-0.6-0.5-1.7v-5.2h-1.5v-1.1h1.5v-2.1zm2.8 6.2q0-1.2 0.4-2.2 0.5-1 1.4-1.6 0.9-0.5 2-0.5 1.7 0 2.8 1.2 1 1.2 1.1 3.2v0.1q-0.1 1.2-0.5 2.2-0.5 1-1.4 1.5-0.9 0.6-2 0.6-1.7 0-2.8-1.2-1-1.2-1-3.2zm1.4 0.2q0 1.4 0.7 2.2 0.6 0.9 1.7 0.9 1.1 0 1.8-0.9 0.6-0.8 0.6-2.4 0-1.4-0.7-2.2-0.6-0.9-1.7-0.9-1.1 0-1.7 0.9-0.7 0.8-0.7 2.4zm9.4-4.3l0.1 1q0.9-1.2 2.5-1.2 2.7 0 2.7 3v5.6h-1.4v-5.6q0-0.9-0.5-1.3-0.4-0.5-1.2-0.5-0.7 0-1.3 0.4-0.5 0.4-0.8 1v6h-1.4v-8.4zm13.1 7.2h5.4v1.2h-6.9v-11.4h1.5zm12.1 1.3q-0.1-0.3-0.2-0.9-1 1-2.4 1-1.2 0-2-0.7-0.8-0.7-0.8-1.8 0-1.3 1-2 1-0.8 2.8-0.8h1.4v-0.6q0-0.8-0.5-1.2-0.4-0.5-1.3-0.5-0.8 0-1.3 0.4-0.5 0.4-0.5 1h-1.5q0-0.7 0.5-1.3 0.4-0.5 1.2-0.9 0.8-0.3 1.7-0.3 1.5 0 2.3 0.7 0.8 0.7 0.8 2v3.9q0 1.2 0.3 1.8v0.2zm-2.4-1.1q0.7 0 1.3-0.4 0.6-0.3 0.9-0.9v-1.7h-1.1q-2.7 0-2.7 1.5 0 0.7 0.5 1.1 0.4 0.4 1.1 0.4zm13.1-3.1q0 2-0.9 3.2-0.9 1.1-2.4 1.1-1.6 0-2.5-1.1l-0.1 1h-1.3v-12h1.5v4.4q0.8-1 2.4-1 1.5 0 2.4 1.1 0.9 1.2 0.9 3.2zm-1.5-0.2q0-1.4-0.5-2.2-0.6-0.8-1.7-0.8-1.4 0-2 1.3v3.6q0.6 1.4 2 1.4 1.1 0 1.7-0.8 0.5-0.8 0.5-2.4zm6.8 4.4q-1.7 0-2.8-1.1-1.1-1.2-1.1-3v-0.3q0-1.3 0.5-2.3 0.5-0.9 1.4-1.5 0.8-0.6 1.8-0.6 1.7 0 2.6 1.1 0.9 1.1 0.9 3.1v0.6h-5.7q0 1.3 0.7 2.1 0.7 0.7 1.8 0.7 0.8 0 1.3-0.3 0.5-0.3 0.9-0.8l0.9 0.7q-1.1 1.6-3.2 1.6zm-0.2-7.6q-0.8 0-1.4 0.7-0.6 0.6-0.8 1.7h4.3v-0.1q-0.1-1.1-0.6-1.7-0.6-0.6-1.5-0.6zm6.8 7.4h-1.5v-12h1.5z"/><rect class="h" x="240" y="299" width="160" height="48" rx="4"></rect><path fill-rule="evenodd" class="a" d="m276.5 328v-11.4h3.7q1.8 0 2.8 0.8 0.9 0.8 0.9 2.3 0 0.8-0.4 1.4-0.5 0.6-1.3 0.9 0.9 0.3 1.5 1 0.5 0.7 0.5 1.7 0 1.6-1 2.4-1 0.9-2.8 0.9zm1.5-5.3v4.1h2.5q1 0 1.6-0.6 0.6-0.5 0.6-1.5 0-2-2.2-2zm0-1.2h2.3q1 0 1.6-0.5 0.5-0.5 0.5-1.4 0-0.9-0.5-1.3-0.6-0.4-1.7-0.4h-2.2zm13.5 5.6q-0.9 1-2.5 1-1.4 0-2.1-0.7-0.7-0.8-0.7-2.4v-5.5h1.5v5.5q0 1.9 1.5 1.9 1.7 0 2.2-1.2v-6.2h1.5v8.5h-1.4zm5.6-9.7v2.1h1.6v1.1h-1.6v5.2q0 0.5 0.2 0.8 0.2 0.2 0.7 0.2 0.3 0 0.7-0.1v1.2q-0.6 0.2-1.1 0.2-1 0-1.5-0.6-0.5-0.6-0.5-1.7v-5.2h-1.5v-1.1h1.5v-2.1zm5.3 0v2.1h1.5v1.1h-1.5v5.2q0 0.5 0.2 0.8 0.2 0.2 0.7 0.2 0.2 0 0.7-0.1v1.2q-0.6 0.2-1.1 0.2-1 0-1.5-0.6-0.5-0.6-0.5-1.7v-5.2h-1.5v-1.1h1.5v-2.1zm2.8 6.2q0-1.2 0.4-2.2 0.5-1 1.4-1.6 0.9-0.5 2-0.5 1.7 0 2.8 1.2 1 1.2 1.1 3.2v0.1q-0.1 1.2-0.5 2.2-0.5 1-1.4 1.5-0.9 0.6-2 0.6-1.7 0-2.8-1.2-1-1.2-1-3.2zm1.4 0.2q0 1.4 0.7 2.2 0.6 0.9 1.7 0.9 1.1 0 1.8-0.9 0.6-0.8 0.6-2.4 0-1.4-0.7-2.2-0.6-0.9-1.7-0.9-1.1 0-1.7 0.9-0.7 0.8-0.7 2.4zm9.4-4.3l0.1 1q0.9-1.2 2.5-1.2 2.7 0 2.7 3v5.6h-1.4v-5.6q0-0.9-0.5-1.3-0.4-0.5-1.2-0.5-0.7 0-1.3 0.4-0.5 0.4-0.8 1v6h-1.4v-8.4zm13.1 7.2h5.4v1.2h-6.9v-11.4h1.5zm12.1 1.3q-0.1-0.3-0.2-0.9-1 1-2.4 1-1.2 0-2-0.7-0.8-0.7-0.8-1.8 0-1.3 1-2 1-0.8 2.8-0.8h1.4v-0.6q0-0.8-0.5-1.2-0.4-0.5-1.3-0.5-0.8 0-1.3 0.4-0.5 0.4-0.5 1h-1.5q0-0.7 0.5-1.3 0.4-0.5 1.2-0.9 0.8-0.3 1.7-0.3 1.5 0 2.3 0.7 0.8 0.7 0.8 2v3.9q0 1.2 0.3 1.8v0.2zm-2.4-1.1q0.7 0 1.3-0.4 0.6-0.3 0.9-0.9v-1.7h-1.1q-2.7 0-2.7 1.5 0 0.7 0.5 1.1 0.4 0.4 1.1 0.4zm13.1-3.1q0 2-0.9 3.2-0.9 1.1-2.4 1.1-1.6 0-2.5-1.1l-0.1 1h-1.3v-12h1.5v4.4q0.8-1 2.4-1 1.5 0 2.4 1.1 0.9 1.2 0.9 3.2zm-1.5-0.2q0-1.4-0.5-2.2-0.6-0.8-1.7-0.8-1.4 0-2 1.3v3.6q0.6 1.4 2 1.4 1.1 0 1.7-0.8 0.5-0.8 0.5-2.4zm6.8 4.4q-1.7 0-2.8-1.1-1.1-1.2-1.1-3v-0.3q0-1.3 0.5-2.3 0.5-0.9 1.4-1.5 0.8-0.6 1.8-0.6 1.7 0 2.6 1.1 0.9 1.1 0.9 3.1v0.6h-5.7q0 1.3 0.7 2.1 0.7 0.7 1.8 0.7 0.8 0 1.3-0.3 0.5-0.3 0.9-0.8l0.9 0.7q-1.1 1.6-3.2 1.6zm-0.2-7.6q-0.8 0-1.4 0.7-0.6 0.6-0.8 1.7h4.3v-0.1q-0.1-1.1-0.6-1.7-0.6-0.6-1.5-0.6zm6.8 7.4h-1.5v-12h1.5z"/><rect class="d" x="608" y="227" width="160" height="48" rx="4"></rect><path fill-rule="evenodd" class="a" d="m644.5 256v-11.4h3.7q1.8 0 2.8 0.8 0.9 0.8 0.9 2.3 0 0.8-0.4 1.4-0.5 0.6-1.3 0.9 0.9 0.3 1.5 1 0.5 0.7 0.5 1.7 0 1.6-1 2.4-1 0.9-2.8 0.9zm1.5-5.3v4.1h2.5q1 0 1.6-0.6 0.6-0.5 0.6-1.5 0-2-2.2-2zm0-1.2h2.3q1 0 1.5-0.5 0.6-0.5 0.6-1.4 0-0.9-0.5-1.3-0.6-0.4-1.7-0.4h-2.2zm13.5 5.6q-0.9 1-2.5 1-1.4 0-2.1-0.7-0.7-0.8-0.7-2.4v-5.5h1.5v5.5q0 1.9 1.5 1.9 1.7 0 2.2-1.2v-6.2h1.5v8.5h-1.4zm5.6-9.7v2.1h1.6v1.1h-1.6v5.2q0 0.5 0.2 0.8 0.2 0.2 0.7 0.2 0.3 0 0.7-0.1v1.2q-0.6 0.2-1.1 0.2-1 0-1.5-0.6-0.5-0.6-0.5-1.7v-5.2h-1.5v-1.1h1.5v-2.1zm5.3 0v2.1h1.5v1.1h-1.5v5.2q0 0.5 0.2 0.8 0.2 0.2 0.7 0.2 0.2 0 0.7-0.1v1.2q-0.6 0.2-1.1 0.2-1 0-1.5-0.6-0.5-0.6-0.5-1.7v-5.2h-1.5v-1.1h1.5v-2.1zm2.8 6.2q0-1.2 0.4-2.2 0.5-1 1.4-1.6 0.9-0.5 2-0.5 1.7 0 2.8 1.2 1 1.2 1 3.2v0.1q0 1.2-0.4 2.2-0.5 1-1.4 1.5-0.9 0.6-2 0.6-1.7 0-2.8-1.2-1-1.2-1-3.2zm1.4 0.2q0 1.4 0.7 2.2 0.6 0.9 1.7 0.9 1.1 0 1.8-0.9 0.6-0.8 0.6-2.4 0-1.4-0.7-2.2-0.6-0.9-1.7-0.9-1.1 0-1.7 0.9-0.7 0.8-0.7 2.4zm9.4-4.3l0.1 1q0.9-1.2 2.5-1.2 2.7 0 2.7 3v5.6h-1.4v-5.6q0-0.9-0.5-1.3-0.4-0.5-1.2-0.5-0.7 0-1.3 0.4-0.5 0.4-0.8 1v6h-1.4v-8.4zm13.1 7.2h5.4v1.2h-6.9v-11.4h1.5zm12.1 1.3q-0.1-0.3-0.2-0.9-1 1-2.4 1-1.2 0-2-0.7-0.8-0.7-0.8-1.8 0-1.3 1-2 1-0.8 2.8-0.8h1.4v-0.6q0-0.8-0.5-1.2-0.4-0.5-1.3-0.5-0.8 0-1.3 0.4-0.5 0.4-0.5 1h-1.5q0-0.7 0.5-1.3 0.4-0.5 1.2-0.9 0.8-0.3 1.7-0.3 1.5 0 2.3 0.7 0.8 0.7 0.8 2v3.9q0 1.2 0.3 1.8v0.2zm-2.4-1.1q0.7 0 1.3-0.4 0.6-0.3 0.9-0.9v-1.7h-1.1q-2.7 0-2.7 1.5 0 0.7 0.5 1.1 0.4 0.4 1.1 0.4zm13.1-3.1q0 2-0.9 3.2-0.9 1.1-2.4 1.1-1.6 0-2.5-1.1l-0.1 1h-1.3v-12h1.5v4.4q0.8-1 2.4-1 1.5 0 2.4 1.1 0.9 1.2 0.9 3.2zm-1.5-0.1q0-1.5-0.5-2.3-0.6-0.8-1.7-0.8-1.4 0-2 1.3v3.6q0.6 1.4 2 1.4 1.1 0 1.7-0.8 0.5-0.8 0.5-2.4zm6.8 4.4q-1.7 0-2.8-1.1-1.1-1.2-1.1-3v-0.3q0-1.3 0.5-2.3 0.5-0.9 1.4-1.5 0.8-0.6 1.8-0.6 1.7 0 2.6 1.1 0.9 1.1 0.9 3.1v0.6h-5.7q0 1.3 0.7 2.1 0.7 0.7 1.8 0.7 0.8 0 1.3-0.3 0.5-0.3 0.9-0.8l0.9 0.7q-1.1 1.6-3.2 1.6zm-0.2-7.6q-0.8 0-1.4 0.7-0.6 0.6-0.8 1.7h4.3v-0.1q-0.1-1.1-0.6-1.7-0.6-0.6-1.5-0.6zm6.8 7.4h-1.5v-12h1.5z"/><rect class="d" x="608" y="299" width="160" height="48" rx="4"></rect><path fill-rule="evenodd" class="a" d="m644.5 328v-11.4h3.7q1.8 0 2.8 0.8 0.9 0.8 0.9 2.3 0 0.8-0.4 1.4-0.5 0.6-1.3 0.9 0.9 0.3 1.5 1 0.5 0.7 0.5 1.7 0 1.6-1 2.4-1 0.9-2.8 0.9zm1.5-5.3v4.1h2.5q1 0 1.6-0.6 0.6-0.5 0.6-1.5 0-2-2.2-2zm0-1.2h2.3q1 0 1.5-0.5 0.6-0.5 0.6-1.4 0-0.9-0.5-1.3-0.6-0.4-1.7-0.4h-2.2zm13.5 5.6q-0.9 1-2.5 1-1.4 0-2.1-0.7-0.7-0.8-0.7-2.4v-5.5h1.5v5.5q0 1.9 1.5 1.9 1.7 0 2.2-1.2v-6.2h1.5v8.5h-1.4zm5.6-9.7v2.1h1.6v1.1h-1.6v5.2q0 0.5 0.2 0.8 0.2 0.2 0.7 0.2 0.3 0 0.7-0.1v1.2q-0.6 0.2-1.1 0.2-1 0-1.5-0.6-0.5-0.6-0.5-1.7v-5.2h-1.5v-1.1h1.5v-2.1zm5.3 0v2.1h1.5v1.1h-1.5v5.2q0 0.5 0.2 0.8 0.2 0.2 0.7 0.2 0.2 0 0.7-0.1v1.2q-0.6 0.2-1.1 0.2-1 0-1.5-0.6-0.5-0.6-0.5-1.7v-5.2h-1.5v-1.1h1.5v-2.1zm2.8 6.2q0-1.2 0.4-2.2 0.5-1 1.4-1.6 0.9-0.5 2-0.5 1.7 0 2.8 1.2 1 1.2 1 3.2v0.1q0 1.2-0.4 2.2-0.5 1-1.4 1.5-0.9 0.6-2 0.6-1.7 0-2.8-1.2-1-1.2-1-3.2zm1.4 0.2q0 1.4 0.7 2.2 0.6 0.9 1.7 0.9 1.1 0 1.8-0.9 0.6-0.8 0.6-2.4 0-1.4-0.7-2.2-0.6-0.9-1.7-0.9-1.1 0-1.7 0.9-0.7 0.8-0.7 2.4zm9.4-4.3l0.1 1q0.9-1.2 2.5-1.2 2.7 0 2.7 3v5.6h-1.4v-5.6q0-0.9-0.5-1.3-0.4-0.5-1.2-0.5-0.7 0-1.3 0.4-0.5 0.4-0.8 1v6h-1.4v-8.4zm13.1 7.2h5.4v1.2h-6.9v-11.4h1.5zm12.1 1.3q-0.1-0.3-0.2-0.9-1 1-2.4 1-1.2 0-2-0.7-0.8-0.7-0.8-1.8 0-1.3 1-2 1-0.8 2.8-0.8h1.4v-0.6q0-0.8-0.5-1.2-0.4-0.5-1.3-0.5-0.8 0-1.3 0.4-0.5 0.4-0.5 1h-1.5q0-0.7 0.5-1.3 0.4-0.5 1.2-0.9 0.8-0.3 1.7-0.3 1.5 0 2.3 0.7 0.8 0.7 0.8 2v3.9q0 1.2 0.3 1.8v0.2zm-2.4-1.1q0.7 0 1.3-0.4 0.6-0.3 0.9-0.9v-1.7h-1.1q-2.7 0-2.7 1.5 0 0.7 0.5 1.1 0.4 0.4 1.1 0.4zm13.1-3.1q0 2-0.9 3.2-0.9 1.1-2.4 1.1-1.6 0-2.5-1.1l-0.1 1h-1.3v-12h1.5v4.4q0.8-1 2.4-1 1.5 0 2.4 1.1 0.9 1.2 0.9 3.2zm-1.5-0.2q0-1.4-0.5-2.2-0.6-0.8-1.7-0.8-1.4 0-2 1.3v3.6q0.6 1.4 2 1.4 1.1 0 1.7-0.8 0.5-0.8 0.5-2.4zm6.8 4.4q-1.7 0-2.8-1.1-1.1-1.2-1.1-3v-0.3q0-1.3 0.5-2.3 0.5-0.9 1.4-1.5 0.8-0.6 1.8-0.6 1.7 0 2.6 1.1 0.9 1.1 0.9 3.1v0.6h-5.7q0 1.3 0.7 2.1 0.7 0.7 1.8 0.7 0.8 0 1.3-0.3 0.5-0.3 0.9-0.8l0.9 0.7q-1.1 1.6-3.2 1.6zm-0.2-7.6q-0.8 0-1.4 0.7-0.6 0.6-0.8 1.7h4.3v-0.1q-0.1-1.1-0.6-1.7-0.6-0.6-1.5-0.6zm6.8 7.4h-1.5v-12h1.5z"/><path fill-rule="evenodd" class="d" d="m644.5 476v-11.4h3.7q1.8 0 2.8 0.8 0.9 0.8 0.9 2.3 0 0.8-0.4 1.4-0.5 0.6-1.3 0.9 0.9 0.3 1.5 1 0.5 0.7 0.5 1.7 0 1.6-1 2.4-1 0.9-2.8 0.9zm1.5-5.3v4.1h2.5q1 0 1.6-0.6 0.6-0.5 0.6-1.5 0-2-2.2-2zm0-1.2h2.3q1 0 1.5-0.5 0.6-0.5 0.6-1.4 0-0.9-0.5-1.3-0.6-0.4-1.7-0.4h-2.2zm13.5 5.6q-0.9 1-2.5 1-1.4 0-2.1-0.7-0.7-0.8-0.7-2.4v-5.5h1.5v5.5q0 1.9 1.5 1.9 1.7 0 2.2-1.2v-6.2h1.5v8.5h-1.4zm5.6-9.7v2.1h1.6v1.1h-1.6v5.2q0 0.5 0.2 0.8 0.2 0.2 0.7 0.2 0.3 0 0.7-0.1v1.2q-0.6 0.2-1.1 0.2-1 0-1.5-0.6-0.5-0.6-0.5-1.7v-5.2h-1.5v-1.1h1.5v-2.1zm5.3 0v2.1h1.5v1.1h-1.5v5.2q0 0.5 0.2 0.8 0.2 0.2 0.7 0.2 0.2 0 0.7-0.1v1.2q-0.6 0.2-1.1 0.2-1 0-1.5-0.6-0.5-0.6-0.5-1.7v-5.2h-1.5v-1.1h1.5v-2.1zm2.8 6.2q0-1.2 0.4-2.2 0.5-1 1.4-1.6 0.9-0.5 2-0.5 1.7 0 2.8 1.2 1 1.2 1 3.2v0.1q0 1.2-0.4 2.2-0.5 1-1.4 1.5-0.9 0.6-2 0.6-1.7 0-2.8-1.2-1-1.2-1-3.2zm1.4 0.2q0 1.4 0.7 2.2 0.6 0.9 1.7 0.9 1.1 0 1.8-0.9 0.6-0.8 0.6-2.4 0-1.4-0.7-2.2-0.6-0.9-1.7-0.9-1.1 0-1.7 0.9-0.7 0.8-0.7 2.4zm9.4-4.3l0.1 1q0.9-1.2 2.5-1.2 2.7 0 2.7 3v5.6h-1.4v-5.6q0-0.9-0.5-1.3-0.4-0.5-1.2-0.5-0.7 0-1.3 0.4-0.5 0.4-0.8 1v6h-1.4v-8.4zm13.1 7.2h5.4v1.2h-6.9v-11.4h1.5zm12.1 1.3q-0.1-0.3-0.2-0.9-1 1-2.4 1-1.2 0-2-0.7-0.8-0.7-0.8-1.8 0-1.3 1-2 1-0.8 2.8-0.8h1.4v-0.6q0-0.8-0.5-1.2-0.4-0.5-1.3-0.5-0.8 0-1.3 0.4-0.5 0.4-0.5 1h-1.5q0-0.7 0.5-1.3 0.4-0.5 1.2-0.9 0.8-0.3 1.7-0.3 1.5 0 2.3 0.7 0.8 0.7 0.8 2v3.9q0 1.2 0.3 1.8v0.2zm-2.4-1.1q0.7 0 1.3-0.4 0.6-0.3 0.9-0.9v-1.7h-1.1q-2.7 0-2.7 1.5 0 0.7 0.5 1.1 0.4 0.4 1.1 0.4zm13.1-3.1q0 2-0.9 3.2-0.9 1.1-2.4 1.1-1.6 0-2.5-1.1l-0.1 1h-1.3v-12h1.5v4.4q0.8-1 2.4-1 1.5 0 2.4 1.1 0.9 1.2 0.9 3.2zm-1.5-0.2q0-1.4-0.5-2.2-0.6-0.8-1.7-0.8-1.4 0-2 1.3v3.6q0.6 1.4 2 1.4 1.1 0 1.7-0.8 0.5-0.8 0.5-2.4zm6.8 4.4q-1.7 0-2.8-1.1-1.1-1.2-1.1-3v-0.3q0-1.3 0.5-2.3 0.5-0.9 1.4-1.5 0.8-0.6 1.8-0.6 1.7 0 2.6 1.1 0.9 1.1 0.9 3.1v0.6h-5.7q0 1.3 0.7 2.1 0.7 0.7 1.8 0.7 0.8 0 1.3-0.3 0.5-0.3 0.9-0.8l0.9 0.7q-1.1 1.6-3.2 1.6zm-0.2-7.6q-0.8 0-1.4 0.7-0.6 0.6-0.8 1.7h4.3v-0.1q-0.1-1.1-0.6-1.7-0.6-0.6-1.5-0.6zm6.8 7.4h-1.5v-12h1.5z"/><path class="d" d="m612 446h152v2h-152zm157 5v40h-2v-40zm-5 45h-152v-2h152zm-157-5v-40h2v40zm5 5c-2.8 0-5-2.2-5-5h2c0 1.7 1.3 3 3 3zm157-5c0 2.8-2.2 5-5 5v-2c1.7 0 3-1.3 3-3zm-5-45c2.8 0 5 2.2 5 5h-2c0-1.7-1.3-3-3-3zm-152 2c-1.7 0-3 1.3-3 3h-2c0-2.8 2.2-5 5-5z"/><path fill-rule="evenodd" class="d" d="m644.5 548v-11.4h3.7q1.8 0 2.8 0.8 0.9 0.8 0.9 2.3 0 0.8-0.4 1.4-0.5 0.6-1.3 0.9 0.9 0.3 1.5 1 0.5 0.7 0.5 1.7 0 1.6-1 2.4-1 0.9-2.8 0.9zm1.5-5.3v4.1h2.5q1 0 1.6-0.6 0.6-0.5 0.6-1.5 0-2-2.2-2zm0-1.2h2.3q1 0 1.5-0.5 0.6-0.5 0.6-1.4 0-0.9-0.5-1.3-0.6-0.4-1.7-0.4h-2.2zm13.5 5.6q-0.9 1-2.5 1-1.4 0-2.1-0.7-0.7-0.8-0.7-2.4v-5.5h1.5v5.5q0 1.9 1.5 1.9 1.7 0 2.2-1.2v-6.2h1.5v8.5h-1.4zm5.6-9.7v2.1h1.6v1.1h-1.6v5.2q0 0.5 0.2 0.8 0.2 0.2 0.7 0.2 0.3 0 0.7-0.1v1.2q-0.6 0.2-1.1 0.2-1 0-1.5-0.6-0.5-0.6-0.5-1.7v-5.2h-1.5v-1.1h1.5v-2.1zm5.3 0v2.1h1.5v1.1h-1.5v5.2q0 0.5 0.2 0.8 0.2 0.2 0.7 0.2 0.2 0 0.7-0.1v1.2q-0.6 0.2-1.1 0.2-1 0-1.5-0.6-0.5-0.6-0.5-1.7v-5.2h-1.5v-1.1h1.5v-2.1zm2.8 6.2q0-1.2 0.4-2.2 0.5-1 1.4-1.6 0.9-0.5 2-0.5 1.7 0 2.8 1.2 1 1.2 1 3.2v0.1q0 1.2-0.4 2.2-0.5 1-1.4 1.5-0.9 0.6-2 0.6-1.7 0-2.8-1.2-1-1.2-1-3.2zm1.4 0.2q0 1.4 0.7 2.2 0.6 0.9 1.7 0.9 1.1 0 1.8-0.9 0.6-0.8 0.6-2.4 0-1.4-0.7-2.2-0.6-0.9-1.7-0.9-1.1 0-1.7 0.9-0.7 0.8-0.7 2.4zm9.4-4.3l0.1 1q0.9-1.2 2.5-1.2 2.7 0 2.7 3v5.6h-1.4v-5.6q0-0.9-0.5-1.3-0.4-0.5-1.2-0.5-0.7 0-1.3 0.4-0.5 0.4-0.8 1v6h-1.4v-8.4zm13.1 7.2h5.4v1.2h-6.9v-11.4h1.5zm12.1 1.3q-0.1-0.3-0.2-0.9-1 1-2.4 1-1.2 0-2-0.7-0.8-0.7-0.8-1.8 0-1.3 1-2 1-0.8 2.8-0.8h1.4v-0.6q0-0.8-0.5-1.2-0.4-0.5-1.3-0.5-0.8 0-1.3 0.4-0.5 0.4-0.5 1h-1.5q0-0.7 0.5-1.3 0.4-0.5 1.2-0.9 0.8-0.3 1.7-0.3 1.5 0 2.3 0.7 0.8 0.7 0.8 2v3.9q0 1.2 0.3 1.8v0.2zm-2.4-1.1q0.7 0 1.3-0.4 0.6-0.3 0.9-0.9v-1.7h-1.1q-2.7 0-2.7 1.5 0 0.7 0.5 1.1 0.4 0.4 1.1 0.4zm13.1-3.1q0 2-0.9 3.2-0.9 1.1-2.4 1.1-1.6 0-2.5-1.1l-0.1 1h-1.3v-12h1.5v4.4q0.8-1 2.4-1 1.5 0 2.4 1.1 0.9 1.2 0.9 3.2zm-1.5-0.2q0-1.4-0.5-2.2-0.6-0.8-1.7-0.8-1.4 0-2 1.3v3.6q0.6 1.4 2 1.4 1.1 0 1.7-0.8 0.5-0.8 0.5-2.4zm6.8 4.4q-1.7 0-2.8-1.1-1.1-1.2-1.1-3v-0.3q0-1.3 0.5-2.3 0.5-0.9 1.4-1.5 0.8-0.6 1.8-0.6 1.7 0 2.6 1.1 0.9 1.1 0.9 3.1v0.6h-5.7q0 1.3 0.7 2.1 0.7 0.7 1.8 0.7 0.8 0 1.3-0.3 0.5-0.3 0.9-0.8l0.9 0.7q-1.1 1.6-3.2 1.6zm-0.2-7.6q-0.8 0-1.4 0.7-0.6 0.6-0.8 1.7h4.3v-0.1q-0.1-1.1-0.6-1.7-0.6-0.6-1.5-0.6zm6.8 7.4h-1.5v-12h1.5z"/><path class="d" d="m612 518h152v2h-152zm157 5v40h-2v-40zm-5 45h-152v-2h152zm-157-5v-40h2v40zm5 5c-2.8 0-5-2.2-5-5h2c0 1.7 1.3 3 3 3zm157-5c0 2.8-2.2 5-5 5v-2c1.7 0 3-1.3 3-3zm-5-45c2.8 0 5 2.2 5 5h-2c0-1.7-1.3-3-3-3zm-152 2c-1.7 0-3 1.3-3 3h-2c0-2.8 2.2-5 5-5z"/><path fill-rule="evenodd" class="b" d="m92.5 476v-11.4h3.7q1.8 0 2.8 0.8 0.9 0.8 0.9 2.3 0 0.8-0.4 1.4-0.5 0.6-1.3 0.9 0.9 0.3 1.5 1 0.5 0.7 0.5 1.7 0 1.6-1 2.4-1 0.9-2.8 0.9zm1.5-5.3v4.1h2.5q1 0 1.6-0.6 0.6-0.5 0.6-1.5 0-2-2.2-2zm0-1.2h2.3q1 0 1.6-0.5 0.5-0.5 0.5-1.4 0-0.9-0.5-1.3-0.5-0.4-1.7-0.4h-2.2zm13.5 5.6q-0.9 1-2.5 1-1.4 0-2.1-0.7-0.7-0.8-0.7-2.4v-5.5h1.5v5.5q0 1.9 1.5 1.9 1.7 0 2.2-1.2v-6.2h1.5v8.5h-1.4zm5.6-9.7v2.1h1.6v1.1h-1.6v5.2q0 0.5 0.2 0.8 0.2 0.2 0.7 0.2 0.3 0 0.7-0.1v1.2q-0.6 0.2-1.1 0.2-1 0-1.5-0.6-0.5-0.6-0.5-1.7v-5.2h-1.5v-1.1h1.5v-2.1zm5.3 0v2.1h1.5v1.1h-1.5v5.2q0 0.5 0.2 0.8 0.2 0.2 0.7 0.2 0.2 0 0.7-0.1v1.2q-0.6 0.2-1.1 0.2-1 0-1.5-0.6-0.5-0.6-0.5-1.7v-5.2h-1.5v-1.1h1.5v-2.1zm2.8 6.2q0-1.2 0.4-2.2 0.5-1 1.4-1.6 0.9-0.5 2-0.5 1.7 0 2.8 1.2 1.1 1.2 1.1 3.2v0.1q0 1.2-0.5 2.2-0.5 1-1.4 1.5-0.9 0.6-2 0.6-1.7 0-2.8-1.2-1-1.2-1-3.2zm1.4 0.2q0 1.4 0.7 2.2 0.6 0.9 1.7 0.9 1.1 0 1.8-0.9 0.6-0.8 0.6-2.4 0-1.4-0.7-2.2-0.6-0.9-1.7-0.9-1.1 0-1.7 0.9-0.7 0.8-0.7 2.4zm9.4-4.3l0.1 1q0.9-1.2 2.5-1.2 2.7 0 2.7 3v5.6h-1.4v-5.6q0-0.9-0.5-1.3-0.4-0.5-1.2-0.5-0.7 0-1.3 0.4-0.5 0.4-0.8 1v6h-1.4v-8.4zm13.1 7.2h5.4v1.2h-6.9v-11.4h1.5zm12.1 1.3q-0.1-0.3-0.2-0.9-1 1-2.4 1-1.2 0-2-0.7-0.8-0.7-0.8-1.8 0-1.3 1-2 1-0.8 2.8-0.8h1.4v-0.6q0-0.8-0.5-1.2-0.4-0.5-1.3-0.5-0.8 0-1.3 0.4-0.5 0.4-0.5 1h-1.5q0-0.7 0.5-1.3 0.4-0.5 1.2-0.9 0.8-0.3 1.7-0.3 1.5 0 2.3 0.7 0.8 0.7 0.8 2v3.9q0 1.2 0.3 1.8v0.2zm-2.4-1.1q0.7 0 1.3-0.4 0.6-0.3 0.9-0.9v-1.7h-1.1q-2.7 0-2.7 1.5 0 0.7 0.5 1.1 0.4 0.4 1.1 0.4zm13.1-3.1q0 2-0.9 3.2-0.9 1.1-2.4 1.1-1.6 0-2.5-1.1l-0.1 1h-1.3v-12h1.5v4.4q0.8-1 2.4-1 1.5 0 2.4 1.1 0.9 1.2 0.9 3.2zm-1.5-0.2q0-1.4-0.5-2.2-0.6-0.8-1.7-0.8-1.4 0-2 1.3v3.6q0.6 1.4 2 1.4 1.1 0 1.7-0.8 0.5-0.8 0.5-2.4zm6.8 4.4q-1.7 0-2.8-1.1-1.1-1.2-1.1-3v-0.3q0-1.3 0.5-2.3 0.5-0.9 1.4-1.5 0.8-0.6 1.8-0.6 1.7 0 2.6 1.1 0.9 1.1 0.9 3.1v0.6h-5.7q0 1.3 0.7 2.1 0.7 0.7 1.8 0.7 0.8 0 1.3-0.3 0.5-0.3 0.9-0.8l0.9 0.7q-1.1 1.6-3.2 1.6zm-0.2-7.6q-0.8 0-1.4 0.7-0.6 0.6-0.8 1.7h4.3v-0.1q-0.1-1.1-0.6-1.7-0.6-0.6-1.5-0.6zm6.8 7.4h-1.5v-12h1.5z"/><path class="b" d="m60 446h152v2h-152zm157 5v40h-2v-40zm-5 45h-152v-2h152zm-157-5v-40h2v40zm5 5c-2.8 0-5-2.2-5-5h2c0 1.7 1.3 3 3 3zm157-5c0 2.8-2.2 5-5 5v-2c1.7 0 3-1.3 3-3zm-5-45c2.8 0 5 2.2 5 5h-2c0-1.7-1.3-3-3-3zm-152 2c-1.7 0-3 1.3-3 3h-2c0-2.8 2.2-5 5-5z"/><path fill-rule="evenodd" class="f" d="m92.5 548v-11.4h3.7q1.8 0 2.8 0.8 0.9 0.8 0.9 2.3 0 0.8-0.4 1.4-0.5 0.6-1.3 0.9 0.9 0.3 1.5 1 0.5 0.7 0.5 1.7 0 1.6-1 2.4-1 0.9-2.8 0.9zm1.5-5.3v4.1h2.5q1 0 1.6-0.6 0.6-0.5 0.6-1.5 0-2-2.2-2zm0-1.2h2.3q1 0 1.6-0.5 0.5-0.5 0.5-1.4 0-0.9-0.5-1.3-0.5-0.4-1.7-0.4h-2.2zm13.5 5.6q-0.9 1-2.5 1-1.4 0-2.1-0.7-0.7-0.8-0.7-2.4v-5.5h1.5v5.5q0 1.9 1.5 1.9 1.7 0 2.2-1.2v-6.2h1.5v8.5h-1.4zm5.6-9.7v2.1h1.6v1.1h-1.6v5.2q0 0.5 0.2 0.8 0.2 0.2 0.7 0.2 0.3 0 0.7-0.1v1.2q-0.6 0.2-1.1 0.2-1 0-1.5-0.6-0.5-0.6-0.5-1.7v-5.2h-1.5v-1.1h1.5v-2.1zm5.3 0v2.1h1.5v1.1h-1.5v5.2q0 0.5 0.2 0.8 0.2 0.2 0.7 0.2 0.2 0 0.7-0.1v1.2q-0.6 0.2-1.1 0.2-1 0-1.5-0.6-0.5-0.6-0.5-1.7v-5.2h-1.5v-1.1h1.5v-2.1zm2.8 6.2q0-1.2 0.4-2.2 0.5-1 1.4-1.6 0.9-0.5 2-0.5 1.7 0 2.8 1.2 1.1 1.2 1.1 3.2v0.1q0 1.2-0.5 2.2-0.5 1-1.4 1.5-0.9 0.6-2 0.6-1.7 0-2.8-1.2-1-1.2-1-3.2zm1.4 0.2q0 1.4 0.7 2.2 0.6 0.9 1.7 0.9 1.1 0 1.8-0.9 0.6-0.8 0.6-2.4 0-1.4-0.7-2.2-0.6-0.9-1.7-0.9-1.1 0-1.7 0.9-0.7 0.8-0.7 2.4zm9.4-4.3l0.1 1q0.9-1.2 2.5-1.2 2.7 0 2.7 3v5.6h-1.4v-5.6q0-0.9-0.5-1.3-0.4-0.5-1.2-0.5-0.7 0-1.3 0.4-0.5 0.4-0.8 1v6h-1.4v-8.4zm13.1 7.2h5.4v1.2h-6.9v-11.4h1.5zm12.1 1.3q-0.1-0.3-0.2-0.9-1 1-2.4 1-1.2 0-2-0.7-0.8-0.7-0.8-1.8 0-1.3 1-2 1-0.8 2.8-0.8h1.4v-0.6q0-0.8-0.5-1.2-0.4-0.5-1.3-0.5-0.8 0-1.3 0.4-0.5 0.4-0.5 1h-1.5q0-0.7 0.5-1.3 0.4-0.5 1.2-0.9 0.8-0.3 1.7-0.3 1.5 0 2.3 0.7 0.8 0.7 0.8 2v3.9q0 1.2 0.3 1.8v0.2zm-2.4-1.1q0.7 0 1.3-0.4 0.6-0.3 0.9-0.9v-1.7h-1.1q-2.7 0-2.7 1.5 0 0.7 0.5 1.1 0.4 0.4 1.1 0.4zm13.1-3.1q0 2-0.9 3.2-0.9 1.1-2.4 1.1-1.6 0-2.5-1.1l-0.1 1h-1.3v-12h1.5v4.4q0.8-1 2.4-1 1.5 0 2.4 1.1 0.9 1.2 0.9 3.2zm-1.5-0.2q0-1.4-0.5-2.2-0.6-0.8-1.7-0.8-1.4 0-2 1.3v3.6q0.6 1.4 2 1.4 1.1 0 1.7-0.8 0.5-0.8 0.5-2.4zm6.8 4.4q-1.7 0-2.8-1.1-1.1-1.2-1.1-3v-0.3q0-1.3 0.5-2.3 0.5-0.9 1.4-1.5 0.8-0.6 1.8-0.6 1.7 0 2.6 1.1 0.9 1.1 0.9 3.1v0.6h-5.7q0 1.3 0.7 2.1 0.7 0.7 1.8 0.7 0.8 0 1.3-0.3 0.5-0.3 0.9-0.8l0.9 0.7q-1.1 1.6-3.2 1.6zm-0.2-7.6q-0.8 0-1.4 0.7-0.6 0.6-0.8 1.7h4.3v-0.1q-0.1-1.1-0.6-1.7-0.6-0.6-1.5-0.6zm6.8 7.4h-1.5v-12h1.5z"/><path class="f" d="m60 518h152v2h-152zm157 5v40h-2v-40zm-5 45h-152v-2h152zm-157-5v-40h2v40zm5 5c-2.8 0-5-2.2-5-5h2c0 1.7 1.3 3 3 3zm157-5c0 2.8-2.2 5-5 5v-2c1.7 0 3-1.3 3-3zm-5-45c2.8 0 5 2.2 5 5h-2c0-1.7-1.3-3-3-3zm-152 2c-1.7 0-3 1.3-3 3h-2c0-2.8 2.2-5 5-5z"/><path fill-rule="evenodd" class="d" d="m644.5 696v-11.4h3.7q1.8 0 2.8 0.8 0.9 0.8 0.9 2.3 0 0.8-0.4 1.4-0.5 0.6-1.3 0.9 0.9 0.3 1.5 1 0.5 0.7 0.5 1.7 0 1.6-1 2.4-1 0.9-2.8 0.9zm1.5-5.3v4.1h2.5q1 0 1.6-0.6 0.6-0.5 0.6-1.5 0-2-2.2-2zm0-1.2h2.3q1 0 1.5-0.5 0.6-0.5 0.6-1.4 0-0.9-0.5-1.3-0.6-0.4-1.7-0.4h-2.2zm13.5 5.6q-0.9 1-2.5 1-1.4 0-2.1-0.7-0.7-0.8-0.7-2.4v-5.5h1.5v5.5q0 1.9 1.5 1.9 1.7 0 2.2-1.2v-6.2h1.5v8.5h-1.4zm5.6-9.7v2.1h1.6v1.1h-1.6v5.2q0 0.5 0.2 0.8 0.2 0.2 0.7 0.2 0.3 0 0.7-0.1v1.2q-0.6 0.2-1.1 0.2-1 0-1.5-0.6-0.5-0.6-0.5-1.7v-5.2h-1.5v-1.1h1.5v-2.1zm5.3 0v2.1h1.5v1.1h-1.5v5.2q0 0.5 0.2 0.8 0.2 0.2 0.7 0.2 0.2 0 0.7-0.1v1.2q-0.6 0.2-1.1 0.2-1 0-1.5-0.6-0.5-0.6-0.5-1.7v-5.2h-1.5v-1.1h1.5v-2.1zm2.8 6.2q0-1.2 0.4-2.2 0.5-1 1.4-1.6 0.9-0.5 2-0.5 1.7 0 2.8 1.2 1 1.2 1 3.2v0.1q0 1.2-0.4 2.2-0.5 1-1.4 1.5-0.9 0.6-2 0.6-1.7 0-2.8-1.2-1-1.2-1-3.2zm1.4 0.2q0 1.4 0.7 2.2 0.6 0.9 1.7 0.9 1.1 0 1.8-0.9 0.6-0.8 0.6-2.4 0-1.4-0.7-2.2-0.6-0.9-1.7-0.9-1.1 0-1.7 0.9-0.7 0.8-0.7 2.4zm9.4-4.3l0.1 1q0.9-1.2 2.5-1.2 2.7 0 2.7 3v5.6h-1.4v-5.6q0-0.9-0.5-1.3-0.4-0.5-1.2-0.5-0.7 0-1.3 0.4-0.5 0.4-0.8 1v6h-1.4v-8.4zm13.1 7.2h5.4v1.2h-6.9v-11.4h1.5zm12.1 1.3q-0.1-0.3-0.2-0.9-1 1-2.4 1-1.2 0-2-0.7-0.8-0.7-0.8-1.8 0-1.3 1-2 1-0.8 2.8-0.8h1.4v-0.6q0-0.8-0.5-1.2-0.4-0.5-1.3-0.5-0.8 0-1.3 0.4-0.5 0.4-0.5 1h-1.5q0-0.7 0.5-1.3 0.4-0.5 1.2-0.9 0.8-0.3 1.7-0.3 1.5 0 2.3 0.7 0.8 0.7 0.8 2v3.9q0 1.2 0.3 1.8v0.2zm-2.4-1.1q0.7 0 1.3-0.4 0.6-0.3 0.9-0.9v-1.7h-1.1q-2.7 0-2.7 1.5 0 0.7 0.5 1.1 0.4 0.4 1.1 0.4zm13.1-3.1q0 2-0.9 3.2-0.9 1.1-2.4 1.1-1.6 0-2.5-1.1l-0.1 1h-1.3v-12h1.5v4.4q0.8-1 2.4-1 1.5 0 2.4 1.1 0.9 1.2 0.9 3.2zm-1.5-0.2q0-1.4-0.5-2.2-0.6-0.8-1.7-0.8-1.4 0-2 1.3v3.6q0.6 1.4 2 1.4 1.1 0 1.7-0.8 0.5-0.8 0.5-2.4zm6.8 4.4q-1.7 0-2.8-1.1-1.1-1.2-1.1-3v-0.3q0-1.3 0.5-2.3 0.5-0.9 1.4-1.5 0.8-0.6 1.8-0.6 1.7 0 2.6 1.1 0.9 1.1 0.9 3.1v0.6h-5.7q0 1.3 0.7 2.1 0.7 0.7 1.8 0.7 0.8 0 1.3-0.3 0.5-0.3 0.9-0.8l0.9 0.7q-1.1 1.6-3.2 1.6zm-0.2-7.6q-0.8 0-1.4 0.7-0.6 0.6-0.8 1.7h4.3v-0.1q-0.1-1.1-0.6-1.7-0.6-0.6-1.5-0.6zm6.8 7.4h-1.5v-12h1.5z"/><path fill-rule="evenodd" class="d" d="m644.5 768v-11.4h3.7q1.8 0 2.8 0.8 0.9 0.8 0.9 2.3 0 0.8-0.4 1.4-0.5 0.6-1.3 0.9 0.9 0.3 1.5 1 0.5 0.7 0.5 1.7 0 1.6-1 2.4-1 0.9-2.8 0.9zm1.5-5.3v4.1h2.5q1 0 1.6-0.6 0.6-0.5 0.6-1.5 0-2-2.2-2zm0-1.2h2.3q1 0 1.5-0.5 0.6-0.5 0.6-1.4 0-0.9-0.5-1.3-0.6-0.4-1.7-0.4h-2.2zm13.5 5.6q-0.9 1-2.5 1-1.4 0-2.1-0.7-0.7-0.8-0.7-2.4v-5.5h1.5v5.5q0 1.9 1.5 1.9 1.7 0 2.2-1.2v-6.2h1.5v8.5h-1.4zm5.6-9.7v2.1h1.6v1.1h-1.6v5.2q0 0.5 0.2 0.8 0.2 0.2 0.7 0.2 0.3 0 0.7-0.1v1.2q-0.6 0.2-1.1 0.2-1 0-1.5-0.6-0.5-0.6-0.5-1.7v-5.2h-1.5v-1.1h1.5v-2.1zm5.3 0v2.1h1.5v1.1h-1.5v5.2q0 0.5 0.2 0.8 0.2 0.2 0.7 0.2 0.2 0 0.7-0.1v1.2q-0.6 0.2-1.1 0.2-1 0-1.5-0.6-0.5-0.6-0.5-1.7v-5.2h-1.5v-1.1h1.5v-2.1zm2.8 6.2q0-1.2 0.4-2.2 0.5-1 1.4-1.6 0.9-0.5 2-0.5 1.7 0 2.8 1.2 1 1.2 1 3.2v0.1q0 1.2-0.4 2.2-0.5 1-1.4 1.5-0.9 0.6-2 0.6-1.7 0-2.8-1.2-1-1.2-1-3.2zm1.4 0.2q0 1.4 0.7 2.2 0.6 0.9 1.7 0.9 1.1 0 1.8-0.9 0.6-0.8 0.6-2.4 0-1.4-0.7-2.2-0.6-0.9-1.7-0.9-1.1 0-1.7 0.9-0.7 0.8-0.7 2.4zm9.4-4.3l0.1 1q0.9-1.2 2.5-1.2 2.7 0 2.7 3v5.6h-1.4v-5.6q0-0.9-0.5-1.3-0.4-0.5-1.2-0.5-0.7 0-1.3 0.4-0.5 0.4-0.8 1v6h-1.4v-8.4zm13.1 7.2h5.4v1.2h-6.9v-11.4h1.5zm12.1 1.3q-0.1-0.3-0.2-0.9-1 1-2.4 1-1.2 0-2-0.7-0.8-0.7-0.8-1.8 0-1.3 1-2 1-0.8 2.8-0.8h1.4v-0.6q0-0.8-0.5-1.2-0.4-0.5-1.3-0.5-0.8 0-1.3 0.4-0.5 0.4-0.5 1h-1.5q0-0.7 0.5-1.3 0.4-0.5 1.2-0.9 0.8-0.3 1.7-0.3 1.5 0 2.3 0.7 0.8 0.7 0.8 2v3.9q0 1.2 0.3 1.8v0.2zm-2.4-1.1q0.7 0 1.3-0.4 0.6-0.3 0.9-0.9v-1.7h-1.1q-2.7 0-2.7 1.5 0 0.7 0.5 1.1 0.4 0.4 1.1 0.4zm13.1-3.1q0 2-0.9 3.2-0.9 1.1-2.4 1.1-1.6 0-2.5-1.1l-0.1 1h-1.3v-12h1.5v4.4q0.8-1 2.4-1 1.5 0 2.4 1.1 0.9 1.2 0.9 3.2zm-1.5-0.2q0-1.4-0.5-2.2-0.6-0.8-1.7-0.8-1.4 0-2 1.3v3.6q0.6 1.4 2 1.4 1.1 0 1.7-0.8 0.5-0.8 0.5-2.4zm6.8 4.4q-1.7 0-2.8-1.1-1.1-1.2-1.1-3v-0.3q0-1.3 0.5-2.3 0.5-0.9 1.4-1.5 0.8-0.6 1.8-0.6 1.7 0 2.6 1.1 0.9 1.1 0.9 3.1v0.6h-5.7q0 1.3 0.7 2.1 0.7 0.7 1.8 0.7 0.8 0 1.3-0.3 0.5-0.3 0.9-0.8l0.9 0.7q-1.1 1.6-3.2 1.6zm-0.2-7.6q-0.8 0-1.4 0.7-0.6 0.6-0.8 1.7h4.3v-0.1q-0.1-1.1-0.6-1.7-0.6-0.6-1.5-0.6zm6.8 7.4h-1.5v-12h1.5z"/><path fill-rule="evenodd" class="c" d="m276.5 696v-11.4h3.7q1.8 0 2.8 0.8 0.9 0.8 0.9 2.3 0 0.8-0.4 1.4-0.5 0.6-1.3 0.9 0.9 0.3 1.5 1 0.5 0.7 0.5 1.7 0 1.6-1 2.4-1 0.9-2.8 0.9zm1.5-5.3v4.1h2.5q1 0 1.6-0.6 0.6-0.5 0.6-1.5 0-2-2.2-2zm0-1.2h2.3q1 0 1.6-0.5 0.5-0.5 0.5-1.4 0-0.9-0.5-1.3-0.6-0.4-1.7-0.4h-2.2zm13.5 5.6q-0.9 1-2.5 1-1.4 0-2.1-0.7-0.7-0.8-0.7-2.4v-5.5h1.5v5.5q0 1.9 1.5 1.9 1.7 0 2.2-1.2v-6.2h1.5v8.5h-1.4zm5.6-9.7v2.1h1.6v1.1h-1.6v5.2q0 0.5 0.2 0.8 0.2 0.2 0.7 0.2 0.3 0 0.7-0.1v1.2q-0.6 0.2-1.1 0.2-1 0-1.5-0.6-0.5-0.6-0.5-1.7v-5.2h-1.5v-1.1h1.5v-2.1zm5.3 0v2.1h1.5v1.1h-1.5v5.2q0 0.5 0.2 0.8 0.2 0.2 0.7 0.2 0.2 0 0.7-0.1v1.2q-0.6 0.2-1.1 0.2-1 0-1.5-0.6-0.5-0.6-0.5-1.7v-5.2h-1.5v-1.1h1.5v-2.1zm2.8 6.2q0-1.2 0.4-2.2 0.5-1 1.4-1.6 0.9-0.5 2-0.5 1.7 0 2.8 1.2 1 1.2 1.1 3.2v0.1q-0.1 1.2-0.5 2.2-0.5 1-1.4 1.5-0.9 0.6-2 0.6-1.7 0-2.8-1.2-1-1.2-1-3.2zm1.4 0.2q0 1.4 0.7 2.2 0.6 0.9 1.7 0.9 1.1 0 1.8-0.9 0.6-0.8 0.6-2.4 0-1.4-0.7-2.2-0.6-0.9-1.7-0.9-1.1 0-1.7 0.9-0.7 0.8-0.7 2.4zm9.4-4.3l0.1 1q0.9-1.2 2.5-1.2 2.7 0 2.7 3v5.6h-1.4v-5.6q0-0.9-0.5-1.3-0.4-0.5-1.2-0.5-0.7 0-1.3 0.4-0.5 0.4-0.8 1v6h-1.4v-8.4zm13.1 7.2h5.4v1.2h-6.9v-11.4h1.5zm12.1 1.3q-0.1-0.3-0.2-0.9-1 1-2.4 1-1.2 0-2-0.7-0.8-0.7-0.8-1.8 0-1.3 1-2 1-0.8 2.8-0.8h1.4v-0.6q0-0.8-0.5-1.2-0.4-0.5-1.3-0.5-0.8 0-1.3 0.4-0.5 0.4-0.5 1h-1.5q0-0.7 0.5-1.3 0.4-0.5 1.2-0.9 0.8-0.3 1.7-0.3 1.5 0 2.3 0.7 0.8 0.7 0.8 2v3.9q0 1.2 0.3 1.8v0.2zm-2.4-1.1q0.7 0 1.3-0.4 0.6-0.3 0.9-0.9v-1.7h-1.1q-2.7 0-2.7 1.5 0 0.7 0.5 1.1 0.4 0.4 1.1 0.4zm13.1-3.1q0 2-0.9 3.2-0.9 1.1-2.4 1.1-1.6 0-2.5-1.1l-0.1 1h-1.3v-12h1.5v4.4q0.8-1 2.4-1 1.5 0 2.4 1.1 0.9 1.2 0.9 3.2zm-1.5-0.2q0-1.4-0.5-2.2-0.6-0.8-1.7-0.8-1.4 0-2 1.3v3.6q0.6 1.4 2 1.4 1.1 0 1.7-0.8 0.5-0.8 0.5-2.4zm6.8 4.4q-1.7 0-2.8-1.1-1.1-1.2-1.1-3v-0.3q0-1.3 0.5-2.3 0.5-0.9 1.4-1.5 0.8-0.6 1.8-0.6 1.7 0 2.6 1.1 0.9 1.1 0.9 3.1v0.6h-5.7q0 1.3 0.7 2.1 0.7 0.7 1.8 0.7 0.8 0 1.3-0.3 0.5-0.3 0.9-0.8l0.9 0.7q-1.1 1.6-3.2 1.6zm-0.2-7.6q-0.8 0-1.4 0.7-0.6 0.6-0.8 1.7h4.3v-0.1q-0.1-1.1-0.6-1.7-0.6-0.6-1.5-0.6zm6.8 7.4h-1.5v-12h1.5z"/><path fill-rule="evenodd" class="h" d="m276.5 768v-11.4h3.7q1.8 0 2.8 0.8 0.9 0.8 0.9 2.3 0 0.8-0.4 1.4-0.5 0.6-1.3 0.9 0.9 0.3 1.5 1 0.5 0.7 0.5 1.7 0 1.6-1 2.4-1 0.9-2.8 0.9zm1.5-5.3v4.1h2.5q1 0 1.6-0.6 0.6-0.5 0.6-1.5 0-2-2.2-2zm0-1.2h2.3q1 0 1.6-0.5 0.5-0.5 0.5-1.4 0-0.9-0.5-1.3-0.6-0.4-1.7-0.4h-2.2zm13.5 5.6q-0.9 1-2.5 1-1.4 0-2.1-0.7-0.7-0.8-0.7-2.4v-5.5h1.5v5.5q0 1.9 1.5 1.9 1.7 0 2.2-1.2v-6.2h1.5v8.5h-1.4zm5.6-9.7v2.1h1.6v1.1h-1.6v5.2q0 0.5 0.2 0.8 0.2 0.2 0.7 0.2 0.3 0 0.7-0.1v1.2q-0.6 0.2-1.1 0.2-1 0-1.5-0.6-0.5-0.6-0.5-1.7v-5.2h-1.5v-1.1h1.5v-2.1zm5.3 0v2.1h1.5v1.1h-1.5v5.2q0 0.5 0.2 0.8 0.2 0.2 0.7 0.2 0.2 0 0.7-0.1v1.2q-0.6 0.2-1.1 0.2-1 0-1.5-0.6-0.5-0.6-0.5-1.7v-5.2h-1.5v-1.1h1.5v-2.1zm2.8 6.2q0-1.2 0.4-2.2 0.5-1 1.4-1.6 0.9-0.5 2-0.5 1.7 0 2.8 1.2 1 1.2 1.1 3.2v0.1q-0.1 1.2-0.5 2.2-0.5 1-1.4 1.5-0.9 0.6-2 0.6-1.7 0-2.8-1.2-1-1.2-1-3.2zm1.4 0.2q0 1.4 0.7 2.2 0.6 0.9 1.7 0.9 1.1 0 1.8-0.9 0.6-0.8 0.6-2.4 0-1.4-0.7-2.2-0.6-0.9-1.7-0.9-1.1 0-1.7 0.9-0.7 0.8-0.7 2.4zm9.4-4.3l0.1 1q0.9-1.2 2.5-1.2 2.7 0 2.7 3v5.6h-1.4v-5.6q0-0.9-0.5-1.3-0.4-0.5-1.2-0.5-0.7 0-1.3 0.4-0.5 0.4-0.8 1v6h-1.4v-8.4zm13.1 7.2h5.4v1.2h-6.9v-11.4h1.5zm12.1 1.3q-0.1-0.3-0.2-0.9-1 1-2.4 1-1.2 0-2-0.7-0.8-0.7-0.8-1.8 0-1.3 1-2 1-0.8 2.8-0.8h1.4v-0.6q0-0.8-0.5-1.2-0.4-0.5-1.3-0.5-0.8 0-1.3 0.4-0.5 0.4-0.5 1h-1.5q0-0.7 0.5-1.3 0.4-0.5 1.2-0.9 0.8-0.3 1.7-0.3 1.5 0 2.3 0.7 0.8 0.7 0.8 2v3.9q0 1.2 0.3 1.8v0.2zm-2.4-1.1q0.7 0 1.3-0.4 0.6-0.3 0.9-0.9v-1.7h-1.1q-2.7 0-2.7 1.5 0 0.7 0.5 1.1 0.4 0.4 1.1 0.4zm13.1-3.1q0 2-0.9 3.2-0.9 1.1-2.4 1.1-1.6 0-2.5-1.1l-0.1 1h-1.3v-12h1.5v4.4q0.8-1 2.4-1 1.5 0 2.4 1.1 0.9 1.2 0.9 3.2zm-1.5-0.2q0-1.4-0.5-2.2-0.6-0.8-1.7-0.8-1.4 0-2 1.3v3.6q0.6 1.4 2 1.4 1.1 0 1.7-0.8 0.5-0.8 0.5-2.4zm6.8 4.4q-1.7 0-2.8-1.1-1.1-1.2-1.1-3v-0.3q0-1.3 0.5-2.3 0.5-0.9 1.4-1.5 0.8-0.6 1.8-0.6 1.7 0 2.6 1.1 0.9 1.1 0.9 3.1v0.6h-5.7q0 1.3 0.7 2.1 0.7 0.7 1.8 0.7 0.8 0 1.3-0.3 0.5-0.3 0.9-0.8l0.9 0.7q-1.1 1.6-3.2 1.6zm-0.2-7.6q-0.8 0-1.4 0.7-0.6 0.6-0.8 1.7h4.3v-0.1q-0.1-1.1-0.6-1.7-0.6-0.6-1.5-0.6zm6.8 7.4h-1.5v-12h1.5z"/><rect class="b" x="56" y="227" width="160" height="48" rx="4"></rect><path fill-rule="evenodd" class="a" d="m92.5 256v-11.4h3.7q1.8 0 2.8 0.8 0.9 0.8 0.9 2.3 0 0.8-0.4 1.4-0.5 0.6-1.3 0.9 0.9 0.3 1.5 1 0.5 0.7 0.5 1.7 0 1.6-1 2.4-1 0.9-2.8 0.9zm1.5-5.3v4.1h2.5q1 0 1.6-0.6 0.6-0.5 0.6-1.5 0-2-2.2-2zm0-1.2h2.3q1 0 1.6-0.5 0.5-0.5 0.5-1.4 0-0.9-0.5-1.3-0.5-0.4-1.7-0.4h-2.2zm13.5 5.6q-0.9 1-2.5 1-1.4 0-2.1-0.7-0.7-0.8-0.7-2.4v-5.5h1.5v5.5q0 1.9 1.5 1.9 1.7 0 2.2-1.2v-6.2h1.5v8.5h-1.4zm5.6-9.7v2.1h1.6v1.1h-1.6v5.2q0 0.5 0.2 0.8 0.2 0.2 0.7 0.2 0.3 0 0.7-0.1v1.2q-0.6 0.2-1.1 0.2-1 0-1.5-0.6-0.5-0.6-0.5-1.7v-5.2h-1.5v-1.1h1.5v-2.1zm5.3 0v2.1h1.5v1.1h-1.5v5.2q0 0.5 0.2 0.8 0.2 0.2 0.7 0.2 0.2 0 0.7-0.1v1.2q-0.6 0.2-1.1 0.2-1 0-1.5-0.6-0.5-0.6-0.5-1.7v-5.2h-1.5v-1.1h1.5v-2.1zm2.8 6.2q0-1.2 0.4-2.2 0.5-1 1.4-1.6 0.9-0.5 2-0.5 1.7 0 2.8 1.2 1.1 1.2 1.1 3.2v0.1q0 1.2-0.5 2.2-0.5 1-1.4 1.5-0.9 0.6-2 0.6-1.7 0-2.8-1.2-1-1.2-1-3.2zm1.4 0.2q0 1.4 0.7 2.2 0.6 0.9 1.7 0.9 1.1 0 1.8-0.9 0.6-0.8 0.6-2.4 0-1.4-0.7-2.2-0.6-0.9-1.7-0.9-1.1 0-1.7 0.9-0.7 0.8-0.7 2.4zm9.4-4.3l0.1 1q0.9-1.2 2.5-1.2 2.7 0 2.7 3v5.6h-1.4v-5.6q0-0.9-0.5-1.3-0.4-0.5-1.2-0.5-0.7 0-1.3 0.4-0.5 0.4-0.8 1v6h-1.4v-8.4zm13.1 7.2h5.4v1.2h-6.9v-11.4h1.5zm12.1 1.3q-0.1-0.3-0.2-0.9-1 1-2.4 1-1.2 0-2-0.7-0.8-0.7-0.8-1.8 0-1.3 1-2 1-0.8 2.8-0.8h1.4v-0.6q0-0.8-0.5-1.2-0.4-0.5-1.3-0.5-0.8 0-1.3 0.4-0.5 0.4-0.5 1h-1.5q0-0.7 0.5-1.3 0.4-0.5 1.2-0.9 0.8-0.3 1.7-0.3 1.5 0 2.3 0.7 0.8 0.7 0.8 2v3.9q0 1.2 0.3 1.8v0.2zm-2.4-1.1q0.7 0 1.3-0.4 0.6-0.3 0.9-0.9v-1.7h-1.1q-2.7 0-2.7 1.5 0 0.7 0.5 1.1 0.4 0.4 1.1 0.4zm13.1-3.1q0 2-0.9 3.2-0.9 1.1-2.4 1.1-1.6 0-2.5-1.1l-0.1 1h-1.3v-12h1.5v4.4q0.8-1 2.4-1 1.5 0 2.4 1.1 0.9 1.2 0.9 3.2zm-1.5-0.1q0-1.5-0.5-2.3-0.6-0.8-1.7-0.8-1.4 0-2 1.3v3.6q0.6 1.4 2 1.4 1.1 0 1.7-0.8 0.5-0.8 0.5-2.4zm6.8 4.4q-1.7 0-2.8-1.1-1.1-1.2-1.1-3v-0.3q0-1.3 0.5-2.3 0.5-0.9 1.4-1.5 0.8-0.6 1.8-0.6 1.7 0 2.6 1.1 0.9 1.1 0.9 3.1v0.6h-5.7q0 1.3 0.7 2.1 0.7 0.7 1.8 0.7 0.8 0 1.3-0.3 0.5-0.3 0.9-0.8l0.9 0.7q-1.1 1.6-3.2 1.6zm-0.2-7.6q-0.8 0-1.4 0.7-0.6 0.6-0.8 1.7h4.3v-0.1q-0.1-1.1-0.6-1.7-0.6-0.6-1.5-0.6zm6.8 7.4h-1.5v-12h1.5z"/><rect class="i" x="240" y="447" width="160" height="48" rx="4"></rect><path fill-rule="evenodd" class="b" d="m276.5 476v-11.4h3.7q1.8 0 2.8 0.8 0.9 0.8 0.9 2.3 0 0.8-0.4 1.4-0.5 0.6-1.3 0.9 0.9 0.3 1.5 1 0.5 0.7 0.5 1.7 0 1.6-1 2.4-1 0.9-2.8 0.9zm1.5-5.3v4.1h2.5q1 0 1.6-0.6 0.6-0.5 0.6-1.5 0-2-2.2-2zm0-1.2h2.3q1 0 1.6-0.5 0.5-0.5 0.5-1.4 0-0.9-0.5-1.3-0.6-0.4-1.7-0.4h-2.2zm13.5 5.6q-0.9 1-2.5 1-1.4 0-2.1-0.7-0.7-0.8-0.7-2.4v-5.5h1.5v5.5q0 1.9 1.5 1.9 1.7 0 2.2-1.2v-6.2h1.5v8.5h-1.4zm5.6-9.7v2.1h1.6v1.1h-1.6v5.2q0 0.5 0.2 0.8 0.2 0.2 0.7 0.2 0.3 0 0.7-0.1v1.2q-0.6 0.2-1.1 0.2-1 0-1.5-0.6-0.5-0.6-0.5-1.7v-5.2h-1.5v-1.1h1.5v-2.1zm5.3 0v2.1h1.5v1.1h-1.5v5.2q0 0.5 0.2 0.8 0.2 0.2 0.7 0.2 0.2 0 0.7-0.1v1.2q-0.6 0.2-1.1 0.2-1 0-1.5-0.6-0.5-0.6-0.5-1.7v-5.2h-1.5v-1.1h1.5v-2.1zm2.8 6.2q0-1.2 0.4-2.2 0.5-1 1.4-1.6 0.9-0.5 2-0.5 1.7 0 2.8 1.2 1 1.2 1.1 3.2v0.1q-0.1 1.2-0.5 2.2-0.5 1-1.4 1.5-0.9 0.6-2 0.6-1.7 0-2.8-1.2-1-1.2-1-3.2zm1.4 0.2q0 1.4 0.7 2.2 0.6 0.9 1.7 0.9 1.1 0 1.8-0.9 0.6-0.8 0.6-2.4 0-1.4-0.7-2.2-0.6-0.9-1.7-0.9-1.1 0-1.7 0.9-0.7 0.8-0.7 2.4zm9.4-4.3l0.1 1q0.9-1.2 2.5-1.2 2.7 0 2.7 3v5.6h-1.4v-5.6q0-0.9-0.5-1.3-0.4-0.5-1.2-0.5-0.7 0-1.3 0.4-0.5 0.4-0.8 1v6h-1.4v-8.4zm13.1 7.2h5.4v1.2h-6.9v-11.4h1.5zm12.1 1.3q-0.1-0.3-0.2-0.9-1 1-2.4 1-1.2 0-2-0.7-0.8-0.7-0.8-1.8 0-1.3 1-2 1-0.8 2.8-0.8h1.4v-0.6q0-0.8-0.5-1.2-0.4-0.5-1.3-0.5-0.8 0-1.3 0.4-0.5 0.4-0.5 1h-1.5q0-0.7 0.5-1.3 0.4-0.5 1.2-0.9 0.8-0.3 1.7-0.3 1.5 0 2.3 0.7 0.8 0.7 0.8 2v3.9q0 1.2 0.3 1.8v0.2zm-2.4-1.1q0.7 0 1.3-0.4 0.6-0.3 0.9-0.9v-1.7h-1.1q-2.7 0-2.7 1.5 0 0.7 0.5 1.1 0.4 0.4 1.1 0.4zm13.1-3.1q0 2-0.9 3.2-0.9 1.1-2.4 1.1-1.6 0-2.5-1.1l-0.1 1h-1.3v-12h1.5v4.4q0.8-1 2.4-1 1.5 0 2.4 1.1 0.9 1.2 0.9 3.2zm-1.5-0.2q0-1.4-0.5-2.2-0.6-0.8-1.7-0.8-1.4 0-2 1.3v3.6q0.6 1.4 2 1.4 1.1 0 1.7-0.8 0.5-0.8 0.5-2.4zm6.8 4.4q-1.7 0-2.8-1.1-1.1-1.2-1.1-3v-0.3q0-1.3 0.5-2.3 0.5-0.9 1.4-1.5 0.8-0.6 1.8-0.6 1.7 0 2.6 1.1 0.9 1.1 0.9 3.1v0.6h-5.7q0 1.3 0.7 2.1 0.7 0.7 1.8 0.7 0.8 0 1.3-0.3 0.5-0.3 0.9-0.8l0.9 0.7q-1.1 1.6-3.2 1.6zm-0.2-7.6q-0.8 0-1.4 0.7-0.6 0.6-0.8 1.7h4.3v-0.1q-0.1-1.1-0.6-1.7-0.6-0.6-1.5-0.6zm6.8 7.4h-1.5v-12h1.5z"/><path class="b" d="m244 446h152v2h-152zm157 5v40h-2v-40zm-5 45h-152v-2h152zm-157-5v-40h2v40zm5 5c-2.8 0-5-2.2-5-5h2c0 1.7 1.3 3 3 3zm157-5c0 2.8-2.2 5-5 5v-2c1.7 0 3-1.3 3-3zm-5-45c2.8 0 5 2.2 5 5h-2c0-1.7-1.3-3-3-3zm-152 2c-1.7 0-3 1.3-3 3h-2c0-2.8 2.2-5 5-5z"/><rect class="j" x="240" y="519" width="160" height="48" rx="4"></rect><path fill-rule="evenodd" class="f" d="m276.5 548v-11.4h3.7q1.8 0 2.8 0.8 0.9 0.8 0.9 2.3 0 0.8-0.4 1.4-0.5 0.6-1.3 0.9 0.9 0.3 1.5 1 0.5 0.7 0.5 1.7 0 1.6-1 2.4-1 0.9-2.8 0.9zm1.5-5.3v4.1h2.5q1 0 1.6-0.6 0.6-0.5 0.6-1.5 0-2-2.2-2zm0-1.2h2.3q1 0 1.6-0.5 0.5-0.5 0.5-1.4 0-0.9-0.5-1.3-0.6-0.4-1.7-0.4h-2.2zm13.5 5.6q-0.9 1-2.5 1-1.4 0-2.1-0.7-0.7-0.8-0.7-2.4v-5.5h1.5v5.5q0 1.9 1.5 1.9 1.7 0 2.2-1.2v-6.2h1.5v8.5h-1.4zm5.6-9.7v2.1h1.6v1.1h-1.6v5.2q0 0.5 0.2 0.8 0.2 0.2 0.7 0.2 0.3 0 0.7-0.1v1.2q-0.6 0.2-1.1 0.2-1 0-1.5-0.6-0.5-0.6-0.5-1.7v-5.2h-1.5v-1.1h1.5v-2.1zm5.3 0v2.1h1.5v1.1h-1.5v5.2q0 0.5 0.2 0.8 0.2 0.2 0.7 0.2 0.2 0 0.7-0.1v1.2q-0.6 0.2-1.1 0.2-1 0-1.5-0.6-0.5-0.6-0.5-1.7v-5.2h-1.5v-1.1h1.5v-2.1zm2.8 6.2q0-1.2 0.4-2.2 0.5-1 1.4-1.6 0.9-0.5 2-0.5 1.7 0 2.8 1.2 1 1.2 1.1 3.2v0.1q-0.1 1.2-0.5 2.2-0.5 1-1.4 1.5-0.9 0.6-2 0.6-1.7 0-2.8-1.2-1-1.2-1-3.2zm1.4 0.2q0 1.4 0.7 2.2 0.6 0.9 1.7 0.9 1.1 0 1.8-0.9 0.6-0.8 0.6-2.4 0-1.4-0.7-2.2-0.6-0.9-1.7-0.9-1.1 0-1.7 0.9-0.7 0.8-0.7 2.4zm9.4-4.3l0.1 1q0.9-1.2 2.5-1.2 2.7 0 2.7 3v5.6h-1.4v-5.6q0-0.9-0.5-1.3-0.4-0.5-1.2-0.5-0.7 0-1.3 0.4-0.5 0.4-0.8 1v6h-1.4v-8.4zm13.1 7.2h5.4v1.2h-6.9v-11.4h1.5zm12.1 1.3q-0.1-0.3-0.2-0.9-1 1-2.4 1-1.2 0-2-0.7-0.8-0.7-0.8-1.8 0-1.3 1-2 1-0.8 2.8-0.8h1.4v-0.6q0-0.8-0.5-1.2-0.4-0.5-1.3-0.5-0.8 0-1.3 0.4-0.5 0.4-0.5 1h-1.5q0-0.7 0.5-1.3 0.4-0.5 1.2-0.9 0.8-0.3 1.7-0.3 1.5 0 2.3 0.7 0.8 0.7 0.8 2v3.9q0 1.2 0.3 1.8v0.2zm-2.4-1.1q0.7 0 1.3-0.4 0.6-0.3 0.9-0.9v-1.7h-1.1q-2.7 0-2.7 1.5 0 0.7 0.5 1.1 0.4 0.4 1.1 0.4zm13.1-3.1q0 2-0.9 3.2-0.9 1.1-2.4 1.1-1.6 0-2.5-1.1l-0.1 1h-1.3v-12h1.5v4.4q0.8-1 2.4-1 1.5 0 2.4 1.1 0.9 1.2 0.9 3.2zm-1.5-0.2q0-1.4-0.5-2.2-0.6-0.8-1.7-0.8-1.4 0-2 1.3v3.6q0.6 1.4 2 1.4 1.1 0 1.7-0.8 0.5-0.8 0.5-2.4zm6.8 4.4q-1.7 0-2.8-1.1-1.1-1.2-1.1-3v-0.3q0-1.3 0.5-2.3 0.5-0.9 1.4-1.5 0.8-0.6 1.8-0.6 1.7 0 2.6 1.1 0.9 1.1 0.9 3.1v0.6h-5.7q0 1.3 0.7 2.1 0.7 0.7 1.8 0.7 0.8 0 1.3-0.3 0.5-0.3 0.9-0.8l0.9 0.7q-1.1 1.6-3.2 1.6zm-0.2-7.6q-0.8 0-1.4 0.7-0.6 0.6-0.8 1.7h4.3v-0.1q-0.1-1.1-0.6-1.7-0.6-0.6-1.5-0.6zm6.8 7.4h-1.5v-12h1.5z"/><path class="f" d="m244 518h152v2h-152zm157 5v40h-2v-40zm-5 45h-152v-2h152zm-157-5v-40h2v40zm5 5c-2.8 0-5-2.2-5-5h2c0 1.7 1.3 3 3 3zm157-5c0 2.8-2.2 5-5 5v-2c1.7 0 3-1.3 3-3zm-5-45c2.8 0 5 2.2 5 5h-2c0-1.7-1.3-3-3-3zm-152 2c-1.7 0-3 1.3-3 3h-2c0-2.8 2.2-5 5-5z"/><rect class="k" x="424" y="447" width="160" height="48" rx="4"></rect><path fill-rule="evenodd" class="b" d="m460.5 476v-11.4h3.7q1.8 0 2.8 0.8 0.9 0.8 0.9 2.3 0 0.8-0.4 1.4-0.5 0.6-1.3 0.9 0.9 0.3 1.5 1 0.5 0.7 0.5 1.7 0 1.6-1 2.4-1 0.9-2.8 0.9zm1.5-5.3v4.1h2.5q1 0 1.6-0.6 0.6-0.5 0.6-1.5 0-2-2.2-2zm0-1.2h2.3q1 0 1.6-0.5 0.5-0.5 0.5-1.4 0-0.9-0.5-1.3-0.6-0.4-1.7-0.4h-2.2zm13.5 5.6q-0.9 1-2.5 1-1.4 0-2.1-0.7-0.7-0.8-0.7-2.4v-5.5h1.5v5.5q0 1.9 1.5 1.9 1.7 0 2.2-1.2v-6.2h1.5v8.5h-1.4zm5.6-9.7v2.1h1.6v1.1h-1.6v5.2q0 0.5 0.2 0.8 0.2 0.2 0.7 0.2 0.3 0 0.7-0.1v1.2q-0.6 0.2-1.1 0.2-1 0-1.5-0.6-0.5-0.6-0.5-1.7v-5.2h-1.5v-1.1h1.5v-2.1zm5.3 0v2.1h1.5v1.1h-1.5v5.2q0 0.5 0.2 0.8 0.2 0.2 0.7 0.2 0.2 0 0.7-0.1v1.2q-0.6 0.2-1.1 0.2-1 0-1.5-0.6-0.5-0.6-0.5-1.7v-5.2h-1.5v-1.1h1.5v-2.1zm2.8 6.2q0-1.2 0.4-2.2 0.5-1 1.4-1.6 0.9-0.5 2-0.5 1.7 0 2.8 1.2 1 1.2 1.1 3.2v0.1q-0.1 1.2-0.5 2.2-0.5 1-1.4 1.5-0.9 0.6-2 0.6-1.7 0-2.8-1.2-1-1.2-1-3.2zm1.4 0.2q0 1.4 0.7 2.2 0.6 0.9 1.7 0.9 1.1 0 1.8-0.9 0.6-0.8 0.6-2.4 0-1.4-0.7-2.2-0.6-0.9-1.7-0.9-1.1 0-1.7 0.9-0.7 0.8-0.7 2.4zm9.4-4.3l0.1 1q0.9-1.2 2.5-1.2 2.7 0 2.7 3v5.6h-1.4v-5.6q0-0.9-0.5-1.3-0.4-0.5-1.2-0.5-0.7 0-1.3 0.4-0.5 0.4-0.8 1v6h-1.4v-8.4zm13.1 7.2h5.4v1.2h-6.9v-11.4h1.5zm12.1 1.3q-0.1-0.3-0.2-0.9-1 1-2.4 1-1.2 0-2-0.7-0.8-0.7-0.8-1.8 0-1.3 1-2 1-0.8 2.8-0.8h1.4v-0.6q0-0.8-0.5-1.2-0.4-0.5-1.3-0.5-0.8 0-1.3 0.4-0.5 0.4-0.5 1h-1.5q0-0.7 0.5-1.3 0.4-0.5 1.2-0.9 0.8-0.3 1.7-0.3 1.5 0 2.3 0.7 0.8 0.7 0.8 2v3.9q0 1.2 0.3 1.8v0.2zm-2.4-1.1q0.7 0 1.3-0.4 0.6-0.3 0.9-0.9v-1.7h-1.1q-2.7 0-2.7 1.5 0 0.7 0.5 1.1 0.4 0.4 1.1 0.4zm13.1-3.1q0 2-0.9 3.2-0.9 1.1-2.4 1.1-1.6 0-2.5-1.1l-0.1 1h-1.3v-12h1.5v4.4q0.8-1 2.4-1 1.5 0 2.4 1.1 0.9 1.2 0.9 3.2zm-1.5-0.2q0-1.4-0.5-2.2-0.6-0.8-1.7-0.8-1.4 0-2 1.3v3.6q0.6 1.4 2 1.4 1.1 0 1.7-0.8 0.5-0.8 0.5-2.4zm6.8 4.4q-1.7 0-2.8-1.1-1.1-1.2-1.1-3v-0.3q0-1.3 0.5-2.3 0.5-0.9 1.4-1.5 0.8-0.6 1.8-0.6 1.7 0 2.6 1.1 0.9 1.1 0.9 3.1v0.6h-5.7q0 1.3 0.7 2.1 0.7 0.7 1.8 0.7 0.8 0 1.3-0.3 0.5-0.3 0.9-0.8l0.9 0.7q-1.1 1.6-3.2 1.6zm-0.2-7.6q-0.8 0-1.4 0.7-0.6 0.6-0.8 1.7h4.3v-0.1q-0.1-1.1-0.6-1.7-0.6-0.6-1.5-0.6zm6.8 7.4h-1.5v-12h1.5z"/><path class="b" d="m428 446h152v2h-152zm157 5v40h-2v-40zm-5 45h-152v-2h152zm-157-5v-40h2v40zm5 5c-2.8 0-5-2.2-5-5h2c0 1.7 1.3 3 3 3zm157-5c0 2.8-2.2 5-5 5v-2c1.7 0 3-1.3 3-3zm-5-45c2.8 0 5 2.2 5 5h-2c0-1.7-1.3-3-3-3zm-152 2c-1.7 0-3 1.3-3 3h-2c0-2.8 2.2-5 5-5z"/><rect class="l" x="424" y="519" width="160" height="48" rx="4"></rect><path fill-rule="evenodd" class="f" d="m460.5 548v-11.4h3.7q1.8 0 2.8 0.8 0.9 0.8 0.9 2.3 0 0.8-0.4 1.4-0.5 0.6-1.3 0.9 0.9 0.3 1.5 1 0.5 0.7 0.5 1.7 0 1.6-1 2.4-1 0.9-2.8 0.9zm1.5-5.3v4.1h2.5q1 0 1.6-0.6 0.6-0.5 0.6-1.5 0-2-2.2-2zm0-1.2h2.3q1 0 1.6-0.5 0.5-0.5 0.5-1.4 0-0.9-0.5-1.3-0.6-0.4-1.7-0.4h-2.2zm13.5 5.6q-0.9 1-2.5 1-1.4 0-2.1-0.7-0.7-0.8-0.7-2.4v-5.5h1.5v5.5q0 1.9 1.5 1.9 1.7 0 2.2-1.2v-6.2h1.5v8.5h-1.4zm5.6-9.7v2.1h1.6v1.1h-1.6v5.2q0 0.5 0.2 0.8 0.2 0.2 0.7 0.2 0.3 0 0.7-0.1v1.2q-0.6 0.2-1.1 0.2-1 0-1.5-0.6-0.5-0.6-0.5-1.7v-5.2h-1.5v-1.1h1.5v-2.1zm5.3 0v2.1h1.5v1.1h-1.5v5.2q0 0.5 0.2 0.8 0.2 0.2 0.7 0.2 0.2 0 0.7-0.1v1.2q-0.6 0.2-1.1 0.2-1 0-1.5-0.6-0.5-0.6-0.5-1.7v-5.2h-1.5v-1.1h1.5v-2.1zm2.8 6.2q0-1.2 0.4-2.2 0.5-1 1.4-1.6 0.9-0.5 2-0.5 1.7 0 2.8 1.2 1 1.2 1.1 3.2v0.1q-0.1 1.2-0.5 2.2-0.5 1-1.4 1.5-0.9 0.6-2 0.6-1.7 0-2.8-1.2-1-1.2-1-3.2zm1.4 0.2q0 1.4 0.7 2.2 0.6 0.9 1.7 0.9 1.1 0 1.8-0.9 0.6-0.8 0.6-2.4 0-1.4-0.7-2.2-0.6-0.9-1.7-0.9-1.1 0-1.7 0.9-0.7 0.8-0.7 2.4zm9.4-4.3l0.1 1q0.9-1.2 2.5-1.2 2.7 0 2.7 3v5.6h-1.4v-5.6q0-0.9-0.5-1.3-0.4-0.5-1.2-0.5-0.7 0-1.3 0.4-0.5 0.4-0.8 1v6h-1.4v-8.4zm13.1 7.2h5.4v1.2h-6.9v-11.4h1.5zm12.1 1.3q-0.1-0.3-0.2-0.9-1 1-2.4 1-1.2 0-2-0.7-0.8-0.7-0.8-1.8 0-1.3 1-2 1-0.8 2.8-0.8h1.4v-0.6q0-0.8-0.5-1.2-0.4-0.5-1.3-0.5-0.8 0-1.3 0.4-0.5 0.4-0.5 1h-1.5q0-0.7 0.5-1.3 0.4-0.5 1.2-0.9 0.8-0.3 1.7-0.3 1.5 0 2.3 0.7 0.8 0.7 0.8 2v3.9q0 1.2 0.3 1.8v0.2zm-2.4-1.1q0.7 0 1.3-0.4 0.6-0.3 0.9-0.9v-1.7h-1.1q-2.7 0-2.7 1.5 0 0.7 0.5 1.1 0.4 0.4 1.1 0.4zm13.1-3.1q0 2-0.9 3.2-0.9 1.1-2.4 1.1-1.6 0-2.5-1.1l-0.1 1h-1.3v-12h1.5v4.4q0.8-1 2.4-1 1.5 0 2.4 1.1 0.9 1.2 0.9 3.2zm-1.5-0.2q0-1.4-0.5-2.2-0.6-0.8-1.7-0.8-1.4 0-2 1.3v3.6q0.6 1.4 2 1.4 1.1 0 1.7-0.8 0.5-0.8 0.5-2.4zm6.8 4.4q-1.7 0-2.8-1.1-1.1-1.2-1.1-3v-0.3q0-1.3 0.5-2.3 0.5-0.9 1.4-1.5 0.8-0.6 1.8-0.6 1.7 0 2.6 1.1 0.9 1.1 0.9 3.1v0.6h-5.7q0 1.3 0.7 2.1 0.7 0.7 1.8 0.7 0.8 0 1.3-0.3 0.5-0.3 0.9-0.8l0.9 0.7q-1.1 1.6-3.2 1.6zm-0.2-7.6q-0.8 0-1.4 0.7-0.6 0.6-0.8 1.7h4.3v-0.1q-0.1-1.1-0.6-1.7-0.6-0.6-1.5-0.6zm6.8 7.4h-1.5v-12h1.5z"/><path class="f" d="m428 518h152v2h-152zm157 5v40h-2v-40zm-5 45h-152v-2h152zm-157-5v-40h2v40zm5 5c-2.8 0-5-2.2-5-5h2c0 1.7 1.3 3 3 3zm157-5c0 2.8-2.2 5-5 5v-2c1.7 0 3-1.3 3-3zm-5-45c2.8 0 5 2.2 5 5h-2c0-1.7-1.3-3-3-3zm-152 2c-1.7 0-3 1.3-3 3h-2c0-2.8 2.2-5 5-5z"/><rect class="m" x="40.5" y="182.5" width="743" height="803" rx="4.5"></rect><path fill-rule="evenodd" class="d" d="m67.4 827.5h-7.2v7.5h-2.2v-17.1h10.6v1.9h-8.4v5.8h7.2zm5.9 7.6h-2.2v-18h2.2zm2.9-6.5q0-1.9 0.7-3.3 0.7-1.5 2-2.3 1.3-0.9 3-0.9 2.6 0 4.2 1.8 1.6 1.8 1.6 4.8v0.2q0 1.8-0.7 3.3-0.7 1.5-2 2.3-1.3 0.8-3.1 0.8-2.5 0-4.1-1.8-1.6-1.8-1.6-4.7zm2.1 0.2q0 2.1 1 3.4 1 1.3 2.6 1.3 1.7 0 2.7-1.3 0.9-1.3 0.9-3.6 0-2.1-1-3.4-0.9-1.3-2.6-1.3-1.6 0-2.6 1.3-1 1.2-1 3.6zm20 6.2q-0.2-0.4-0.3-1.3-1.6 1.5-3.7 1.5-1.8 0-3-1-1.2-1.1-1.2-2.7 0-2 1.5-3.1 1.5-1.1 4.2-1.1h2.1v-1q0-1.1-0.7-1.8-0.6-0.7-2-0.7-1.1 0-1.9 0.6-0.8 0.6-0.8 1.4h-2.2q0-0.9 0.7-1.8 0.7-0.9 1.8-1.4 1.2-0.5 2.6-0.5 2.2 0 3.4 1.1 1.2 1.1 1.3 3v5.8q0 1.8 0.4 2.8v0.2zm-3.6-1.6q1.1 0 2-0.6 0.9-0.5 1.3-1.3v-2.6h-1.7q-4 0-4 2.3 0 1 0.7 1.6 0.7 0.6 1.7 0.6zm11.8-14.1v3h2.4v1.7h-2.4v7.9q0 0.7 0.3 1.1 0.3 0.4 1.1 0.4 0.4 0 1-0.1v1.7q-0.8 0.2-1.6 0.2-1.5 0-2.2-0.8-0.8-0.9-0.8-2.5v-7.9h-2.3v-1.7h2.3v-3zm7.3 15.7h-2.2v-12.7h2.2zm-2.3-16q0-0.5 0.3-0.9 0.3-0.4 0.9-0.4 0.7 0 1 0.4 0.3 0.4 0.3 0.9 0 0.5-0.3 0.9-0.3 0.3-1 0.3-0.6 0-0.9-0.3-0.3-0.4-0.3-0.9zm7.8 3.4l0.1 1.5q1.5-1.8 3.8-1.8 4 0 4.1 4.6v8.3h-2.2v-8.4q0-1.3-0.7-2-0.6-0.6-1.9-0.6-1 0-1.8 0.5-0.8 0.6-1.3 1.5v9h-2.1v-12.6zm10.7 6.2q0-3 1.3-4.7 1.4-1.8 3.7-1.8 2.3 0 3.6 1.7l0.1-1.4h2v12.3q0 2.5-1.5 3.9-1.5 1.4-3.9 1.4-1.4 0-2.7-0.6-1.3-0.5-2-1.6l1.1-1.3q1.4 1.8 3.4 1.8 1.6 0 2.5-0.9 0.9-0.9 0.9-2.5v-1.1q-1.3 1.5-3.6 1.5-2.2 0-3.6-1.8-1.3-1.8-1.3-4.9zm2.1 0.2q0 2.2 0.9 3.4 0.9 1.2 2.5 1.2 2 0 3-1.8v-5.8q-1-1.8-3-1.8-1.6 0-2.5 1.2-0.9 1.2-0.9 3.6z"/><path fill-rule="evenodd" class="d" d="m71.1 387q0 2.5-0.8 4.4-0.9 1.9-2.4 2.8-1.6 1-3.6 1-2.1 0-3.6-1-1.6-0.9-2.4-2.8-0.9-1.8-0.9-4.2v-1.3q0-2.4 0.8-4.3 0.9-1.9 2.5-2.9 1.5-1 3.5-1 2.1 0 3.6 1 1.6 1 2.5 2.9 0.8 1.8 0.8 4.3zm-2.2-1.1q0-3-1.3-4.6-1.2-1.6-3.4-1.6-2.1 0-3.3 1.6-1.2 1.6-1.3 4.5v1.2q0 3 1.3 4.7 1.2 1.6 3.4 1.6 2.1 0 3.3-1.5 1.2-1.6 1.3-4.6zm13.1 7.8q-1.3 1.5-3.7 1.5-2.1 0-3.1-1.2-1.1-1.1-1.1-3.4v-8.3h2.2v8.2q0 2.9 2.3 2.9 2.5 0 3.3-1.9v-9.2h2.2v12.7h-2.1zm8.4-14.5v3.1h2.3v1.6h-2.3v7.9q0 0.8 0.3 1.1 0.3 0.4 1.1 0.4 0.3 0 1-0.1v1.7q-0.9 0.3-1.7 0.3-1.4 0-2.2-0.9-0.7-0.9-0.7-2.5v-7.9h-2.3v-1.6h2.3v-3.1zm7.3 15.7h-2.2v-18h2.2zm5.8 0h-2.2v-12.6h2.2zm-2.3-16.1q0-0.5 0.3-0.9 0.3-0.3 0.9-0.3 0.7 0 1 0.3 0.3 0.4 0.3 0.9 0 0.5-0.3 0.9-0.3 0.3-1 0.3-0.6 0-0.9-0.3-0.3-0.4-0.3-0.9zm7.8 3.4l0.1 1.6q1.5-1.9 3.8-1.9 4 0 4.1 4.6v8.4h-2.2v-8.4q0-1.4-0.6-2.1-0.7-0.6-2-0.6-1 0-1.8 0.5-0.8 0.6-1.2 1.5v9.1h-2.2v-12.7zm16.4 12.9q-2.5 0-4.2-1.7-1.6-1.7-1.6-4.5v-0.4q0-1.9 0.7-3.4 0.8-1.5 2.1-2.3 1.3-0.9 2.8-0.9 2.4 0 3.8 1.7 1.4 1.6 1.4 4.6v0.9h-8.6q0 1.9 1.1 3.1 1 1.1 2.7 1.1 1.1 0 1.9-0.4 0.8-0.5 1.4-1.3l1.3 1q-1.6 2.5-4.8 2.5zm-0.2-11.4q-1.3 0-2.2 1-0.9 0.9-1.1 2.7h6.3v-0.2q-0.1-1.7-0.9-2.6-0.8-0.9-2.1-0.9z"/><path fill-rule="evenodd" class="d" d="m69.8 599.8h-5.5v15.2h-2.3v-15.2h-5.4v-1.9h13.2zm6.3 15.5q-2.6 0-4.2-1.7-1.7-1.7-1.7-4.5v-0.4q0-1.9 0.8-3.4 0.7-1.5 2-2.3 1.3-0.9 2.8-0.9 2.5 0 3.8 1.7 1.4 1.6 1.4 4.6v0.9h-8.6q0.1 1.9 1.1 3.1 1.1 1.1 2.7 1.1 1.1 0 1.9-0.5 0.8-0.4 1.4-1.2l1.3 1q-1.6 2.5-4.7 2.5zm-0.3-11.4q-1.3 0-2.2 1-0.9 0.9-1.1 2.6h6.3v-0.1q-0.1-1.7-0.9-2.6-0.8-0.9-2.1-0.9zm12 3.1l2.8-4.6h2.5l-4.1 6.2 4.2 6.4h-2.5l-2.9-4.7-2.9 4.7h-2.5l4.2-6.4-4.1-6.2h2.5zm10.6-7.7v3h2.4v1.7h-2.4v7.9q0 0.7 0.3 1.1 0.3 0.4 1.1 0.4 0.4 0 1-0.1v1.7q-0.8 0.3-1.7 0.3-1.4 0-2.1-0.9-0.8-0.9-0.8-2.5v-7.9h-2.3v-1.7h2.3v-3z"/><path fill-rule="evenodd" class="d" d="m57.2 213v-10h2.8q1.3 0 2.3 0.6 1 0.6 1.5 1.7 0.5 1 0.6 2.4v0.6q0 1.4-0.6 2.5-0.5 1.1-1.5 1.6-1 0.6-2.4 0.6zm1.3-8.9v7.8h1.4q1.5 0 2.4-0.9 0.8-1 0.8-2.7v-0.6q0-1.7-0.8-2.6-0.8-1-2.2-1zm10.7 9q-1.5 0-2.4-0.9-1-1-1-2.7v-0.2q0-1.1 0.4-2 0.5-0.9 1.2-1.3 0.8-0.5 1.6-0.5 1.5 0 2.3 0.9 0.8 1 0.8 2.7v0.6h-5q0 1.1 0.6 1.7 0.6 0.7 1.6 0.7 0.6 0 1.1-0.3 0.5-0.2 0.8-0.7l0.8 0.6q-0.9 1.4-2.8 1.4zm-0.2-6.6q-0.7 0-1.2 0.6-0.6 0.5-0.7 1.5h3.7v-0.1q0-0.9-0.5-1.5-0.5-0.5-1.3-0.5zm5.2 6.5v-6.4h-1.2v-1h1.2v-0.8q0-1.1 0.6-1.8 0.6-0.6 1.8-0.6 0.4 0 0.9 0.1l-0.1 1q-0.3-0.1-0.7-0.1-0.6 0-0.9 0.4-0.4 0.4-0.4 1v0.8h1.6v1h-1.6v6.4zm8.9 0q-0.2-0.2-0.2-0.8-0.9 0.9-2.1 0.9-1.1 0-1.8-0.6-0.7-0.6-0.7-1.6 0-1.1 0.8-1.7 0.9-0.7 2.5-0.7h1.3v-0.6q0-0.6-0.4-1-0.4-0.4-1.2-0.4-0.7 0-1.1 0.3-0.5 0.4-0.5 0.9h-1.3q0-0.6 0.4-1.1 0.4-0.5 1.1-0.8 0.7-0.3 1.5-0.3 1.2 0 2 0.6 0.7 0.6 0.7 1.8v3.4q0 1 0.3 1.6v0.1zm-2.1-1q0.6 0 1.1-0.3 0.5-0.3 0.8-0.8v-1.5h-1q-2.3 0-2.3 1.4 0 0.6 0.4 0.9 0.4 0.3 1 0.3zm9.7 0.3q-0.7 0.8-2.2 0.8-1.2 0-1.8-0.6-0.6-0.7-0.6-2.1v-4.8h1.3v4.8q0 1.7 1.3 1.7 1.5 0 2-1.1v-5.4h1.2v7.4h-1.2zm4.6 0.7h-1.3v-10.5h1.3zm3.7-9.2v1.8h1.4v1h-1.4v4.6q0 0.4 0.2 0.7 0.2 0.2 0.6 0.2 0.2 0 0.6-0.1v1q-0.5 0.2-1 0.2-0.8 0-1.2-0.5-0.5-0.6-0.5-1.5v-4.6h-1.3v-1h1.3v-1.8z"/><path fill-rule="evenodd" class="d" d="m57.2 433v-10h2.8q1.3 0 2.3 0.6 1 0.6 1.5 1.7 0.5 1 0.6 2.4v0.6q0 1.4-0.6 2.5-0.5 1.1-1.5 1.6-1 0.6-2.4 0.6zm1.3-8.9v7.8h1.4q1.5 0 2.4-0.9 0.8-1 0.8-2.7v-0.6q0-1.7-0.8-2.6-0.8-1-2.2-1zm10.7 9q-1.5 0-2.4-0.9-1-1-1-2.7v-0.2q0-1.1 0.4-2 0.5-0.9 1.2-1.3 0.8-0.5 1.6-0.5 1.5 0 2.3 0.9 0.8 1 0.8 2.7v0.6h-5q0 1.1 0.6 1.7 0.6 0.7 1.6 0.7 0.6 0 1.1-0.3 0.5-0.2 0.8-0.7l0.8 0.6q-0.9 1.4-2.8 1.4zm-0.2-6.6q-0.7 0-1.2 0.6-0.6 0.5-0.7 1.5h3.7v-0.1q0-0.9-0.5-1.5-0.5-0.5-1.3-0.5zm5.2 6.5v-6.4h-1.2v-1h1.2v-0.8q0-1.1 0.6-1.8 0.6-0.6 1.8-0.6 0.4 0 0.9 0.1l-0.1 1q-0.3-0.1-0.7-0.1-0.6 0-0.9 0.4-0.4 0.4-0.4 1v0.8h1.6v1h-1.6v6.4zm8.9 0q-0.2-0.2-0.2-0.8-0.9 0.9-2.1 0.9-1.1 0-1.8-0.6-0.7-0.6-0.7-1.6 0-1.1 0.8-1.7 0.9-0.7 2.5-0.7h1.3v-0.6q0-0.6-0.4-1-0.4-0.4-1.2-0.4-0.7 0-1.1 0.3-0.5 0.4-0.5 0.9h-1.3q0-0.6 0.4-1.1 0.4-0.5 1.1-0.8 0.7-0.3 1.5-0.3 1.2 0 2 0.6 0.7 0.6 0.7 1.8v3.4q0 1 0.3 1.6v0.1zm-2.1-1q0.6 0 1.1-0.3 0.5-0.3 0.8-0.8v-1.5h-1q-2.3 0-2.3 1.4 0 0.6 0.4 0.9 0.4 0.3 1 0.3zm9.7 0.3q-0.7 0.8-2.2 0.8-1.2 0-1.8-0.6-0.6-0.7-0.6-2.1v-4.8h1.3v4.8q0 1.7 1.3 1.7 1.5 0 2-1.1v-5.4h1.2v7.4h-1.2zm4.6 0.7h-1.3v-10.5h1.3zm3.7-9.2v1.8h1.4v1h-1.4v4.6q0 0.4 0.2 0.7 0.2 0.2 0.6 0.2 0.2 0 0.6-0.1v1q-0.5 0.2-1 0.2-0.8 0-1.2-0.5-0.5-0.6-0.5-1.5v-4.6h-1.3v-1h1.3v-1.8z"/><path fill-rule="evenodd" class="d" d="m57.2 653v-10h2.8q1.3 0 2.3 0.6 1 0.6 1.5 1.7 0.5 1 0.6 2.4v0.6q0 1.4-0.6 2.5-0.5 1.1-1.5 1.6-1 0.6-2.4 0.6zm1.3-8.9v7.8h1.4q1.5 0 2.4-0.9 0.8-1 0.8-2.7v-0.6q0-1.7-0.8-2.6-0.8-1-2.2-1zm10.7 9q-1.5 0-2.4-0.9-1-1-1-2.7v-0.2q0-1.1 0.4-2 0.5-0.9 1.2-1.3 0.8-0.5 1.6-0.5 1.5 0 2.3 0.9 0.8 1 0.8 2.7v0.6h-5q0 1.1 0.6 1.7 0.6 0.7 1.6 0.7 0.6 0 1.1-0.3 0.5-0.2 0.8-0.7l0.8 0.6q-0.9 1.4-2.8 1.4zm-0.2-6.6q-0.7 0-1.2 0.6-0.6 0.5-0.7 1.5h3.7v-0.1q0-0.9-0.5-1.5-0.5-0.5-1.3-0.5zm5.2 6.5v-6.4h-1.2v-1h1.2v-0.8q0-1.1 0.6-1.8 0.6-0.6 1.8-0.6 0.4 0 0.9 0.1l-0.1 1q-0.3-0.1-0.7-0.1-0.6 0-0.9 0.4-0.4 0.4-0.4 1v0.8h1.6v1h-1.6v6.4zm8.9 0q-0.2-0.2-0.2-0.8-0.9 0.9-2.1 0.9-1.1 0-1.8-0.6-0.7-0.6-0.7-1.6 0-1.1 0.8-1.7 0.9-0.7 2.5-0.7h1.3v-0.6q0-0.6-0.4-1-0.4-0.4-1.2-0.4-0.7 0-1.1 0.3-0.5 0.4-0.5 0.9h-1.3q0-0.6 0.4-1.1 0.4-0.5 1.1-0.8 0.7-0.3 1.5-0.3 1.2 0 2 0.6 0.7 0.6 0.7 1.8v3.4q0 1 0.3 1.6v0.1zm-2.1-1q0.6 0 1.1-0.3 0.5-0.3 0.8-0.8v-1.5h-1q-2.3 0-2.3 1.4 0 0.6 0.4 0.9 0.4 0.3 1 0.3zm9.7 0.3q-0.7 0.8-2.2 0.8-1.2 0-1.8-0.6-0.6-0.7-0.6-2.1v-4.8h1.3v4.8q0 1.7 1.3 1.7 1.5 0 2-1.1v-5.4h1.2v7.4h-1.2zm4.6 0.7h-1.3v-10.5h1.3zm3.7-9.2v1.8h1.4v1h-1.4v4.6q0 0.4 0.2 0.7 0.2 0.2 0.6 0.2 0.2 0 0.6-0.1v1q-0.5 0.2-1 0.2-0.8 0-1.2-0.5-0.5-0.6-0.5-1.5v-4.6h-1.3v-1h1.3v-1.8z"/><path fill-rule="evenodd" class="d" d="m62.8 868.4h-4.3v3.5h5v1.1h-6.3v-10h6.2v1.1h-4.9v3.2h4.3zm3.3-2.8l0.1 1q0.8-1.1 2.2-1.1 2.3 0 2.3 2.6v4.9h-1.2v-4.9q0-0.8-0.4-1.1-0.4-0.4-1.1-0.4-0.6 0-1.1 0.3-0.5 0.3-0.7 0.9v5.2h-1.3v-7.4zm11.1 7.4q-0.1-0.2-0.2-0.8-0.9 1-2.1 1-1.1 0-1.8-0.7-0.7-0.6-0.7-1.5 0-1.2 0.9-1.8 0.9-0.7 2.5-0.7h1.2v-0.5q0-0.7-0.4-1.1-0.4-0.4-1.2-0.4-0.6 0-1.1 0.4-0.4 0.3-0.4 0.8h-1.3q0-0.6 0.4-1.1 0.4-0.5 1-0.8 0.7-0.3 1.5-0.3 1.3 0 2 0.6 0.7 0.7 0.8 1.8v3.4q0 1 0.2 1.6v0.1zm-2.1-0.9q0.6 0 1.2-0.3 0.5-0.4 0.7-0.8v-1.6h-1q-2.3 0-2.3 1.4 0 0.6 0.4 0.9 0.4 0.4 1 0.4zm11.4-2.7q0 1.7-0.7 2.7-0.8 1.1-2.1 1.1-1.4 0-2.2-1l-0.1 0.8h-1.1v-10.5h1.2v3.9q0.8-0.9 2.2-0.9 1.3 0 2.1 1 0.7 1 0.7 2.8zm-1.2-0.1q0-1.3-0.5-2-0.5-0.7-1.5-0.7-1.2 0-1.8 1.1v3.2q0.6 1.2 1.9 1.2 0.9 0 1.4-0.7 0.5-0.7 0.5-2.1zm4.2 3.7h-1.2v-10.5h1.2zm5.1 0.2q-1.5 0-2.4-1-1-1-1-2.7v-0.2q0-1.1 0.4-2 0.5-0.8 1.2-1.3 0.8-0.5 1.7-0.5 1.4 0 2.2 0.9 0.8 1 0.8 2.8v0.5h-5q0 1.1 0.6 1.8 0.6 0.6 1.6 0.6 0.7 0 1.1-0.3 0.5-0.2 0.8-0.7l0.8 0.6q-0.9 1.5-2.8 1.5zm-0.1-6.7q-0.8 0-1.3 0.6-0.5 0.5-0.7 1.5h3.7v-0.1q0-0.9-0.5-1.4-0.4-0.6-1.2-0.6zm4.2 2.8q0-1.7 0.8-2.8 0.8-1 2.1-1 1.3 0 2 0.9v-3.9h1.3v10.5h-1.2v-0.8q-0.8 1-2.1 1-1.3 0-2.1-1.1-0.8-1.1-0.8-2.7zm1.2 0.1q0 1.3 0.5 2 0.6 0.7 1.5 0.7 1.2 0 1.7-1.1v-3.4q-0.5-1-1.7-1-0.9 0-1.5 0.7-0.5 0.7-0.5 2.1z"/><path fill-rule="evenodd" class="d" d="m248.8 213h-1.3v-4.6h-5v4.6h-1.3v-10h1.3v4.3h5v-4.3h1.3zm1.8-3.7q0-1.1 0.4-2 0.5-0.8 1.2-1.3 0.8-0.5 1.8-0.5 1.5 0 2.4 1.1 0.9 1 0.9 2.7v0.1q0 1.1-0.4 2-0.4 0.8-1.2 1.3-0.7 0.5-1.7 0.5-1.5 0-2.5-1.1-0.9-1-0.9-2.7zm1.3 0.1q0 1.3 0.5 2 0.6 0.7 1.6 0.7 0.9 0 1.5-0.7 0.6-0.8 0.6-2.1 0-1.2-0.6-2-0.6-0.8-1.5-0.8-1 0-1.6 0.8-0.5 0.7-0.5 2.1zm9.4 1.9l1.8-5.7h1.3l-2.7 7.4h-0.9l-2.7-7.4h1.3zm7.3 1.9q-1.5 0-2.5-1-0.9-1-0.9-2.6v-0.3q0-1.1 0.4-1.9 0.4-0.9 1.2-1.4 0.7-0.5 1.6-0.5 1.5 0 2.3 1 0.8 0.9 0.8 2.7v0.5h-5q0 1.1 0.6 1.8 0.6 0.7 1.6 0.7 0.6 0 1.1-0.3 0.5-0.3 0.8-0.7l0.8 0.6q-1 1.4-2.8 1.4zm-0.2-6.6q-0.7 0-1.3 0.5-0.5 0.6-0.6 1.6h3.7v-0.1q0-1-0.5-1.5-0.5-0.5-1.3-0.5zm8.1 0.2q-0.3-0.1-0.6-0.1-1.2 0-1.7 1.1v5.3h-1.3v-7.4h1.3v0.8q0.6-1 1.8-1 0.3 0 0.5 0.1z"/><path fill-rule="evenodd" class="d" d="m248.8 433h-1.3v-4.6h-5v4.6h-1.3v-10h1.3v4.3h5v-4.3h1.3zm1.8-3.7q0-1.1 0.4-2 0.5-0.8 1.2-1.3 0.8-0.5 1.8-0.5 1.5 0 2.4 1.1 0.9 1 0.9 2.7v0.1q0 1.1-0.4 2-0.4 0.8-1.2 1.3-0.7 0.5-1.7 0.5-1.5 0-2.5-1.1-0.9-1-0.9-2.7zm1.3 0.1q0 1.3 0.5 2 0.6 0.7 1.6 0.7 0.9 0 1.5-0.7 0.6-0.8 0.6-2.1 0-1.2-0.6-2-0.6-0.8-1.5-0.8-1 0-1.6 0.8-0.5 0.7-0.5 2.1zm9.4 1.9l1.8-5.7h1.3l-2.7 7.4h-0.9l-2.7-7.4h1.3zm7.3 1.9q-1.5 0-2.5-1-0.9-1-0.9-2.6v-0.3q0-1.1 0.4-1.9 0.4-0.9 1.2-1.4 0.7-0.5 1.6-0.5 1.5 0 2.3 1 0.8 0.9 0.8 2.7v0.5h-5q0 1.1 0.6 1.8 0.6 0.7 1.6 0.7 0.6 0 1.1-0.3 0.5-0.3 0.8-0.7l0.8 0.6q-1 1.4-2.8 1.4zm-0.2-6.6q-0.7 0-1.3 0.5-0.5 0.6-0.6 1.6h3.7v-0.1q0-1-0.5-1.5-0.5-0.5-1.3-0.5zm8.1 0.2q-0.3-0.1-0.6-0.1-1.2 0-1.7 1.1v5.3h-1.3v-7.4h1.3v0.8q0.6-1 1.8-1 0.3 0 0.5 0.1z"/><path fill-rule="evenodd" class="d" d="m248.8 653h-1.3v-4.6h-5v4.6h-1.3v-10h1.3v4.3h5v-4.3h1.3zm1.8-3.7q0-1.1 0.4-2 0.5-0.8 1.2-1.3 0.8-0.5 1.8-0.5 1.5 0 2.4 1.1 0.9 1 0.9 2.7v0.1q0 1.1-0.4 2-0.4 0.8-1.2 1.3-0.7 0.5-1.7 0.5-1.5 0-2.5-1.1-0.9-1-0.9-2.7zm1.3 0.1q0 1.3 0.5 2 0.6 0.7 1.6 0.7 0.9 0 1.5-0.7 0.6-0.8 0.6-2.1 0-1.2-0.6-2-0.6-0.8-1.5-0.8-1 0-1.6 0.8-0.5 0.7-0.5 2.1zm9.4 1.9l1.8-5.7h1.3l-2.7 7.4h-0.9l-2.7-7.4h1.3zm7.3 1.9q-1.5 0-2.5-1-0.9-1-0.9-2.6v-0.3q0-1.1 0.4-1.9 0.4-0.9 1.2-1.4 0.7-0.5 1.6-0.5 1.5 0 2.3 1 0.8 0.9 0.8 2.7v0.5h-5q0 1.1 0.6 1.8 0.6 0.7 1.6 0.7 0.6 0 1.1-0.3 0.5-0.3 0.8-0.7l0.8 0.6q-1 1.4-2.8 1.4zm-0.2-6.6q-0.7 0-1.3 0.5-0.5 0.6-0.6 1.6h3.7v-0.1q0-1-0.5-1.5-0.5-0.5-1.3-0.5zm8.1 0.2q-0.3-0.1-0.6-0.1-1.2 0-1.7 1.1v5.3h-1.3v-7.4h1.3v0.8q0.6-1 1.8-1 0.3 0 0.5 0.1z"/><path fill-rule="evenodd" class="d" d="m248.8 873h-1.3v-4.6h-5v4.6h-1.3v-10h1.3v4.3h5v-4.3h1.3zm1.8-3.7q0-1.1 0.4-2 0.5-0.8 1.2-1.3 0.8-0.5 1.8-0.5 1.5 0 2.4 1.1 0.9 1 0.9 2.7v0.1q0 1.1-0.4 2-0.4 0.8-1.2 1.3-0.7 0.5-1.7 0.5-1.5 0-2.5-1.1-0.9-1-0.9-2.7zm1.3 0.1q0 1.3 0.5 2 0.6 0.7 1.6 0.7 0.9 0 1.5-0.7 0.6-0.8 0.6-2.1 0-1.2-0.6-2-0.6-0.8-1.5-0.8-1 0-1.6 0.8-0.5 0.7-0.5 2.1zm9.4 1.9l1.8-5.7h1.3l-2.7 7.4h-0.9l-2.7-7.4h1.3zm7.3 1.9q-1.5 0-2.5-1-0.9-1-0.9-2.6v-0.3q0-1.1 0.4-1.9 0.4-0.9 1.2-1.4 0.7-0.5 1.6-0.5 1.5 0 2.3 1 0.8 0.9 0.8 2.7v0.5h-5q0 1.1 0.6 1.8 0.6 0.7 1.6 0.7 0.6 0 1.1-0.3 0.5-0.3 0.8-0.7l0.8 0.6q-1 1.4-2.8 1.4zm-0.2-6.6q-0.7 0-1.3 0.5-0.5 0.6-0.6 1.6h3.7v-0.1q0-1-0.5-1.5-0.5-0.5-1.3-0.5zm8.1 0.2q-0.3-0.1-0.6-0.1-1.2 0-1.7 1.1v5.3h-1.3v-7.4h1.3v0.8q0.6-1 1.8-1 0.3 0 0.5 0.1z"/><path fill-rule="evenodd" class="d" d="m430.6 208.6h-4.1v4.4h-1.3v-10h6.1v1.1h-4.8v3.4h4.1zm1.6 0.7q0-1.1 0.4-2 0.5-0.9 1.2-1.3 0.8-0.5 1.8-0.5 1.5 0 2.4 1 0.9 1.1 0.9 2.8v0.1q0 1.1-0.4 2-0.4 0.8-1.2 1.3-0.7 0.5-1.7 0.5-1.5 0-2.5-1.1-0.9-1-0.9-2.8zm1.3 0.2q0 1.2 0.5 2 0.6 0.7 1.6 0.7 0.9 0 1.5-0.7 0.6-0.8 0.6-2.2 0-1.2-0.6-1.9-0.6-0.8-1.5-0.8-1 0-1.5 0.8-0.6 0.7-0.6 2.1zm10 2.7q0.7 0 1.2-0.4 0.5-0.4 0.5-1h1.2q0 0.6-0.4 1.2-0.4 0.6-1.1 0.9-0.7 0.4-1.4 0.4-1.5 0-2.4-1.1-0.9-1-0.9-2.7v-0.2q0-1.1 0.4-1.9 0.4-0.9 1.1-1.4 0.8-0.4 1.8-0.4 1.2 0 2.1 0.7 0.8 0.8 0.8 2h-1.2q0-0.8-0.5-1.2-0.5-0.5-1.2-0.5-1 0-1.5 0.7-0.5 0.7-0.5 2v0.3q0 1.2 0.5 1.9 0.5 0.7 1.5 0.7zm8.9 0.2q-0.7 0.9-2.1 0.9-1.2 0-1.8-0.7-0.7-0.7-0.7-2.1v-4.8h1.3v4.8q0 1.7 1.4 1.7 1.4 0 1.9-1.1v-5.4h1.3v7.4h-1.2zm7.4-1.2q0-0.5-0.4-0.8-0.4-0.3-1.3-0.5-1-0.2-1.5-0.5-0.6-0.3-0.9-0.7-0.2-0.4-0.2-0.9 0-0.9 0.7-1.6 0.8-0.6 2-0.6 1.2 0 2 0.7 0.8 0.6 0.8 1.6h-1.3q0-0.5-0.4-0.9-0.4-0.3-1.1-0.3-0.7 0-1.1 0.3-0.4 0.3-0.4 0.7 0 0.5 0.4 0.7 0.3 0.3 1.3 0.5 0.9 0.2 1.5 0.5 0.6 0.3 0.9 0.7 0.3 0.4 0.3 1 0 1-0.8 1.6-0.8 0.6-2.1 0.6-0.9 0-1.5-0.3-0.7-0.3-1.1-0.9-0.4-0.6-0.4-1.2h1.3q0 0.6 0.5 1 0.5 0.4 1.2 0.4 0.7 0 1.2-0.3 0.4-0.3 0.4-0.8zm6 2.1q-1.5 0-2.4-1-1-1-1-2.6v-0.3q0-1.1 0.4-1.9 0.4-0.9 1.2-1.4 0.8-0.5 1.6-0.5 1.5 0 2.3 1 0.8 0.9 0.8 2.7v0.5h-5q0 1.1 0.6 1.8 0.6 0.7 1.6 0.7 0.6 0 1.1-0.3 0.5-0.3 0.8-0.7l0.8 0.6q-0.9 1.4-2.8 1.4zm-0.2-6.6q-0.7 0-1.2 0.5-0.6 0.6-0.7 1.6h3.7v-0.1q0-1-0.5-1.5-0.5-0.5-1.3-0.5zm4.2 2.7q0-1.7 0.9-2.7 0.8-1.1 2.1-1.1 1.3 0 2 0.9v-3.9h1.3v10.5h-1.2v-0.7q-0.8 0.9-2.2 0.9-1.2 0-2-1.1-0.9-1-0.9-2.7zm1.3 0.1q0 1.3 0.5 2 0.5 0.7 1.5 0.7 1.2 0 1.7-1.1v-3.4q-0.5-1-1.7-1-1 0-1.5 0.7-0.5 0.7-0.5 2.1z"/><path fill-rule="evenodd" class="d" d="m430.6 428.6h-4.1v4.4h-1.3v-10h6.1v1.1h-4.8v3.4h4.1zm1.6 0.7q0-1.1 0.4-2 0.5-0.9 1.2-1.3 0.8-0.5 1.8-0.5 1.5 0 2.4 1 0.9 1.1 0.9 2.8v0.1q0 1.1-0.4 2-0.4 0.8-1.2 1.3-0.7 0.5-1.7 0.5-1.5 0-2.5-1.1-0.9-1-0.9-2.8zm1.3 0.2q0 1.2 0.5 2 0.6 0.7 1.6 0.7 0.9 0 1.5-0.7 0.6-0.8 0.6-2.2 0-1.2-0.6-1.9-0.6-0.8-1.5-0.8-1 0-1.5 0.8-0.6 0.7-0.6 2.1zm10 2.7q0.7 0 1.2-0.4 0.5-0.4 0.5-1h1.2q0 0.6-0.4 1.2-0.4 0.6-1.1 0.9-0.7 0.4-1.4 0.4-1.5 0-2.4-1.1-0.9-1-0.9-2.7v-0.2q0-1.1 0.4-1.9 0.4-0.9 1.1-1.4 0.8-0.4 1.8-0.4 1.2 0 2.1 0.7 0.8 0.8 0.8 2h-1.2q0-0.8-0.5-1.2-0.5-0.5-1.2-0.5-1 0-1.5 0.7-0.5 0.7-0.5 2v0.3q0 1.2 0.5 1.9 0.5 0.7 1.5 0.7zm8.9 0.2q-0.7 0.9-2.1 0.9-1.2 0-1.8-0.7-0.7-0.7-0.7-2.1v-4.8h1.3v4.8q0 1.7 1.4 1.7 1.4 0 1.9-1.1v-5.4h1.3v7.4h-1.2zm7.4-1.2q0-0.5-0.4-0.8-0.4-0.3-1.3-0.5-1-0.2-1.5-0.5-0.6-0.3-0.9-0.7-0.2-0.4-0.2-0.9 0-0.9 0.7-1.6 0.8-0.6 2-0.6 1.2 0 2 0.7 0.8 0.6 0.8 1.6h-1.3q0-0.5-0.4-0.9-0.4-0.3-1.1-0.3-0.7 0-1.1 0.3-0.4 0.3-0.4 0.7 0 0.5 0.4 0.7 0.3 0.3 1.3 0.5 0.9 0.2 1.5 0.5 0.6 0.3 0.9 0.7 0.3 0.4 0.3 1 0 1-0.8 1.6-0.8 0.6-2.1 0.6-0.9 0-1.5-0.3-0.7-0.3-1.1-0.9-0.4-0.6-0.4-1.2h1.3q0 0.6 0.5 1 0.5 0.4 1.2 0.4 0.7 0 1.2-0.3 0.4-0.3 0.4-0.8zm6 2.1q-1.5 0-2.4-1-1-1-1-2.6v-0.3q0-1.1 0.4-1.9 0.4-0.9 1.2-1.4 0.8-0.5 1.6-0.5 1.5 0 2.3 1 0.8 0.9 0.8 2.7v0.5h-5q0 1.1 0.6 1.8 0.6 0.7 1.6 0.7 0.6 0 1.1-0.3 0.5-0.3 0.8-0.7l0.8 0.6q-0.9 1.4-2.8 1.4zm-0.2-6.6q-0.7 0-1.2 0.5-0.6 0.6-0.7 1.6h3.7v-0.1q0-1-0.5-1.5-0.5-0.5-1.3-0.5zm4.2 2.7q0-1.7 0.9-2.7 0.8-1.1 2.1-1.1 1.3 0 2 0.9v-3.9h1.3v10.5h-1.2v-0.7q-0.8 0.9-2.2 0.9-1.2 0-2-1.1-0.9-1-0.9-2.7zm1.3 0.1q0 1.3 0.5 2 0.5 0.7 1.5 0.7 1.2 0 1.7-1.1v-3.4q-0.5-1-1.7-1-1 0-1.5 0.7-0.5 0.7-0.5 2.1z"/><path fill-rule="evenodd" class="d" d="m430.6 648.6h-4.1v4.4h-1.3v-10h6.1v1.1h-4.8v3.4h4.1zm1.6 0.7q0-1.1 0.4-2 0.5-0.9 1.2-1.3 0.8-0.5 1.8-0.5 1.5 0 2.4 1 0.9 1.1 0.9 2.8v0.1q0 1.1-0.4 2-0.4 0.8-1.2 1.3-0.7 0.5-1.7 0.5-1.5 0-2.5-1.1-0.9-1-0.9-2.8zm1.3 0.2q0 1.2 0.5 2 0.6 0.7 1.6 0.7 0.9 0 1.5-0.7 0.6-0.8 0.6-2.2 0-1.2-0.6-1.9-0.6-0.8-1.5-0.8-1 0-1.5 0.8-0.6 0.7-0.6 2.1zm10 2.7q0.7 0 1.2-0.4 0.5-0.4 0.5-1h1.2q0 0.6-0.4 1.2-0.4 0.6-1.1 0.9-0.7 0.4-1.4 0.4-1.5 0-2.4-1.1-0.9-1-0.9-2.7v-0.2q0-1.1 0.4-1.9 0.4-0.9 1.1-1.4 0.8-0.4 1.8-0.4 1.2 0 2.1 0.7 0.8 0.8 0.8 2h-1.2q0-0.8-0.5-1.2-0.5-0.5-1.2-0.5-1 0-1.5 0.7-0.5 0.7-0.5 2v0.3q0 1.2 0.5 1.9 0.5 0.7 1.5 0.7zm8.9 0.2q-0.7 0.9-2.1 0.9-1.2 0-1.8-0.7-0.7-0.7-0.7-2.1v-4.8h1.3v4.8q0 1.7 1.4 1.7 1.4 0 1.9-1.1v-5.4h1.3v7.4h-1.2zm7.4-1.2q0-0.5-0.4-0.8-0.4-0.3-1.3-0.5-1-0.2-1.5-0.5-0.6-0.3-0.9-0.7-0.2-0.4-0.2-0.9 0-0.9 0.7-1.6 0.8-0.6 2-0.6 1.2 0 2 0.7 0.8 0.6 0.8 1.6h-1.3q0-0.5-0.4-0.9-0.4-0.3-1.1-0.3-0.7 0-1.1 0.3-0.4 0.3-0.4 0.7 0 0.5 0.4 0.7 0.3 0.3 1.3 0.5 0.9 0.2 1.5 0.5 0.6 0.3 0.9 0.7 0.3 0.4 0.3 1 0 1-0.8 1.6-0.8 0.6-2.1 0.6-0.9 0-1.5-0.3-0.7-0.3-1.1-0.9-0.4-0.6-0.4-1.2h1.3q0 0.6 0.5 1 0.5 0.4 1.2 0.4 0.7 0 1.2-0.3 0.4-0.3 0.4-0.8zm6 2.1q-1.5 0-2.4-1-1-1-1-2.6v-0.3q0-1.1 0.4-1.9 0.4-0.9 1.2-1.4 0.8-0.5 1.6-0.5 1.5 0 2.3 1 0.8 0.9 0.8 2.7v0.5h-5q0 1.1 0.6 1.8 0.6 0.7 1.6 0.7 0.6 0 1.1-0.3 0.5-0.3 0.8-0.7l0.8 0.6q-0.9 1.4-2.8 1.4zm-0.2-6.6q-0.7 0-1.2 0.5-0.6 0.6-0.7 1.6h3.7v-0.1q0-1-0.5-1.5-0.5-0.5-1.3-0.5zm4.2 2.7q0-1.7 0.9-2.7 0.8-1.1 2.1-1.1 1.3 0 2 0.9v-3.9h1.3v10.5h-1.2v-0.7q-0.8 0.9-2.2 0.9-1.2 0-2-1.1-0.9-1-0.9-2.7zm1.3 0.1q0 1.3 0.5 2 0.5 0.7 1.5 0.7 1.2 0 1.7-1.1v-3.4q-0.5-1-1.7-1-1 0-1.5 0.7-0.5 0.7-0.5 2.1z"/><path fill-rule="evenodd" class="d" d="m430.6 868.6h-4.1v4.4h-1.3v-10h6.1v1.1h-4.8v3.4h4.1zm1.6 0.7q0-1.1 0.4-2 0.5-0.9 1.2-1.3 0.8-0.5 1.8-0.5 1.5 0 2.4 1 0.9 1.1 0.9 2.8v0.1q0 1.1-0.4 2-0.4 0.8-1.2 1.3-0.7 0.5-1.7 0.5-1.5 0-2.5-1.1-0.9-1-0.9-2.8zm1.3 0.2q0 1.2 0.5 2 0.6 0.7 1.6 0.7 0.9 0 1.5-0.7 0.6-0.8 0.6-2.2 0-1.2-0.6-1.9-0.6-0.8-1.5-0.8-1 0-1.5 0.8-0.6 0.7-0.6 2.1zm10 2.7q0.7 0 1.2-0.4 0.5-0.4 0.5-1h1.2q0 0.6-0.4 1.2-0.4 0.6-1.1 0.9-0.7 0.4-1.4 0.4-1.5 0-2.4-1.1-0.9-1-0.9-2.7v-0.2q0-1.1 0.4-1.9 0.4-0.9 1.1-1.4 0.8-0.4 1.8-0.4 1.2 0 2.1 0.7 0.8 0.8 0.8 2h-1.2q0-0.8-0.5-1.2-0.5-0.5-1.2-0.5-1 0-1.5 0.7-0.5 0.7-0.5 2v0.3q0 1.2 0.5 1.9 0.5 0.7 1.5 0.7zm8.9 0.2q-0.7 0.9-2.1 0.9-1.2 0-1.8-0.7-0.7-0.7-0.7-2.1v-4.8h1.3v4.8q0 1.7 1.4 1.7 1.4 0 1.9-1.1v-5.4h1.3v7.4h-1.2zm7.4-1.2q0-0.5-0.4-0.8-0.4-0.3-1.3-0.5-1-0.2-1.5-0.5-0.6-0.3-0.9-0.7-0.2-0.4-0.2-0.9 0-0.9 0.7-1.6 0.8-0.6 2-0.6 1.2 0 2 0.7 0.8 0.6 0.8 1.6h-1.3q0-0.5-0.4-0.9-0.4-0.3-1.1-0.3-0.7 0-1.1 0.3-0.4 0.3-0.4 0.7 0 0.5 0.4 0.7 0.3 0.3 1.3 0.5 0.9 0.2 1.5 0.5 0.6 0.3 0.9 0.7 0.3 0.4 0.3 1 0 1-0.8 1.6-0.8 0.6-2.1 0.6-0.9 0-1.5-0.3-0.7-0.3-1.1-0.9-0.4-0.6-0.4-1.2h1.3q0 0.6 0.5 1 0.5 0.4 1.2 0.4 0.7 0 1.2-0.3 0.4-0.3 0.4-0.8zm6 2.1q-1.5 0-2.4-1-1-1-1-2.6v-0.3q0-1.1 0.4-1.9 0.4-0.9 1.2-1.4 0.8-0.5 1.6-0.5 1.5 0 2.3 1 0.8 0.9 0.8 2.7v0.5h-5q0 1.1 0.6 1.8 0.6 0.7 1.6 0.7 0.6 0 1.1-0.3 0.5-0.3 0.8-0.7l0.8 0.6q-0.9 1.4-2.8 1.4zm-0.2-6.6q-0.7 0-1.2 0.5-0.6 0.6-0.7 1.6h3.7v-0.1q0-1-0.5-1.5-0.5-0.5-1.3-0.5zm4.2 2.7q0-1.7 0.9-2.7 0.8-1.1 2.1-1.1 1.3 0 2 0.9v-3.9h1.3v10.5h-1.2v-0.7q-0.8 0.9-2.2 0.9-1.2 0-2-1.1-0.9-1-0.9-2.7zm1.3 0.1q0 1.3 0.5 2 0.5 0.7 1.5 0.7 1.2 0 1.7-1.1v-3.4q-0.5-1-1.7-1-1 0-1.5 0.7-0.5 0.7-0.5 2.1z"/><path fill-rule="evenodd" class="d" d="m609.2 213v-10h2.8q1.3 0 2.3 0.6 1 0.6 1.5 1.7 0.5 1 0.6 2.4v0.6q0 1.4-0.6 2.5-0.5 1.1-1.5 1.6-1.1 0.6-2.4 0.6zm1.3-8.9v7.8h1.4q1.5 0 2.4-0.9 0.8-1 0.8-2.7v-0.6q0-1.7-0.8-2.6-0.8-1-2.2-1zm9 8.9h-1.3v-7.4h1.3zm-1.4-9.4q0-0.3 0.2-0.5 0.2-0.2 0.6-0.2 0.4 0 0.5 0.2 0.2 0.2 0.2 0.5 0 0.4-0.2 0.6-0.1 0.2-0.5 0.2-0.4 0-0.6-0.2-0.2-0.2-0.2-0.6zm7.7 7.4q0-0.5-0.3-0.8-0.4-0.2-1.4-0.4-1-0.2-1.5-0.5-0.6-0.3-0.9-0.7-0.2-0.4-0.2-1 0-0.9 0.7-1.5 0.8-0.6 2-0.6 1.3 0 2.1 0.6 0.7 0.7 0.7 1.7h-1.2q0-0.5-0.5-0.9-0.4-0.4-1.1-0.4-0.7 0-1.1 0.3-0.4 0.3-0.4 0.8 0 0.5 0.4 0.7 0.4 0.2 1.3 0.4 1 0.2 1.6 0.5 0.5 0.3 0.8 0.7 0.3 0.5 0.3 1.1 0 0.9-0.8 1.5-0.8 0.6-2 0.6-0.9 0-1.6-0.3-0.7-0.3-1.1-0.8-0.4-0.6-0.4-1.3h1.3q0 0.7 0.5 1 0.5 0.4 1.3 0.4 0.7 0 1.1-0.3 0.4-0.3 0.4-0.8zm7.5 2q-0.1-0.2-0.2-0.8-0.8 0.9-2.1 0.9-1.1 0-1.8-0.6-0.7-0.6-0.7-1.5 0-1.2 0.9-1.8 0.9-0.7 2.5-0.7h1.2v-0.6q0-0.6-0.4-1-0.4-0.4-1.1-0.4-0.7 0-1.2 0.3-0.4 0.4-0.4 0.9h-1.3q0-0.6 0.4-1.1 0.4-0.5 1-0.8 0.7-0.3 1.5-0.3 1.3 0 2 0.6 0.8 0.6 0.8 1.8v3.4q0 1 0.2 1.6v0.1zm-2.1-1q0.6 0 1.2-0.3 0.5-0.3 0.7-0.8v-1.5h-0.9q-2.4 0-2.4 1.4 0 0.6 0.4 0.9 0.4 0.3 1 0.3zm11.5-2.6q0 1.7-0.8 2.7-0.8 1-2.1 1-1.4 0-2.2-0.9v0.8h-1.2v-10.5h1.3v3.9q0.7-0.9 2.1-0.9 1.3 0 2.1 1 0.8 1 0.8 2.8zm-1.3-0.2q0-1.3-0.5-2-0.5-0.7-1.4-0.7-1.3 0-1.8 1.2v3.2q0.5 1.2 1.8 1.2 0.9 0 1.4-0.7 0.5-0.8 0.5-2.2zm4.2 3.8h-1.2v-10.5h1.2zm5.1 0.1q-1.5 0-2.4-1-1-0.9-1-2.6v-0.2q0-1.1 0.5-2 0.4-0.9 1.1-1.3 0.8-0.5 1.7-0.5 1.4 0 2.2 0.9 0.8 1 0.8 2.7v0.6h-5q0 1.1 0.6 1.7 0.7 0.7 1.6 0.7 0.7 0 1.1-0.3 0.5-0.2 0.8-0.7l0.8 0.6q-0.9 1.4-2.8 1.4zm-0.1-6.6q-0.8 0-1.3 0.6-0.5 0.5-0.7 1.5h3.8v-0.1q-0.1-0.9-0.6-1.5-0.4-0.5-1.2-0.5zm4.2 2.7q0-1.7 0.8-2.7 0.8-1 2.1-1 1.3 0 2.1 0.8v-3.8h1.2v10.5h-1.1l-0.1-0.8q-0.8 0.9-2.1 0.9-1.3 0-2.1-1-0.8-1.1-0.8-2.8zm1.2 0.2q0 1.2 0.6 1.9 0.5 0.8 1.4 0.8 1.2 0 1.8-1.1v-3.4q-0.6-1.1-1.8-1.1-0.9 0-1.4 0.7-0.6 0.8-0.6 2.2z"/><path fill-rule="evenodd" class="d" d="m609.2 433v-10h2.8q1.3 0 2.3 0.6 1 0.6 1.5 1.7 0.5 1 0.6 2.4v0.6q0 1.4-0.6 2.5-0.5 1.1-1.5 1.6-1.1 0.6-2.4 0.6zm1.3-8.9v7.8h1.4q1.5 0 2.4-0.9 0.8-1 0.8-2.7v-0.6q0-1.7-0.8-2.6-0.8-1-2.2-1zm9 8.9h-1.3v-7.4h1.3zm-1.4-9.4q0-0.3 0.2-0.5 0.2-0.2 0.6-0.2 0.4 0 0.5 0.2 0.2 0.2 0.2 0.5 0 0.4-0.2 0.6-0.1 0.2-0.5 0.2-0.4 0-0.6-0.2-0.2-0.2-0.2-0.6zm7.7 7.4q0-0.5-0.3-0.8-0.4-0.2-1.4-0.4-1-0.2-1.5-0.5-0.6-0.3-0.9-0.7-0.2-0.4-0.2-1 0-0.9 0.7-1.5 0.8-0.6 2-0.6 1.3 0 2.1 0.6 0.7 0.7 0.7 1.7h-1.2q0-0.5-0.5-0.9-0.4-0.4-1.1-0.4-0.7 0-1.1 0.3-0.4 0.3-0.4 0.8 0 0.5 0.4 0.7 0.4 0.2 1.3 0.4 1 0.2 1.6 0.5 0.5 0.3 0.8 0.7 0.3 0.5 0.3 1.1 0 0.9-0.8 1.5-0.8 0.6-2 0.6-0.9 0-1.6-0.3-0.7-0.3-1.1-0.8-0.4-0.6-0.4-1.3h1.3q0 0.7 0.5 1 0.5 0.4 1.3 0.4 0.7 0 1.1-0.3 0.4-0.3 0.4-0.8zm7.5 2q-0.1-0.2-0.2-0.8-0.8 0.9-2.1 0.9-1.1 0-1.8-0.6-0.7-0.6-0.7-1.5 0-1.2 0.9-1.8 0.9-0.7 2.5-0.7h1.2v-0.6q0-0.6-0.4-1-0.4-0.4-1.1-0.4-0.7 0-1.2 0.3-0.4 0.4-0.4 0.9h-1.3q0-0.6 0.4-1.1 0.4-0.5 1-0.8 0.7-0.3 1.5-0.3 1.3 0 2 0.6 0.8 0.6 0.8 1.8v3.4q0 1 0.2 1.6v0.1zm-2.1-1q0.6 0 1.2-0.3 0.5-0.3 0.7-0.8v-1.5h-0.9q-2.4 0-2.4 1.4 0 0.6 0.4 0.9 0.4 0.3 1 0.3zm11.5-2.6q0 1.7-0.8 2.7-0.8 1-2.1 1-1.4 0-2.2-0.9v0.8h-1.2v-10.5h1.3v3.9q0.7-0.9 2.1-0.9 1.3 0 2.1 1 0.8 1 0.8 2.8zm-1.3-0.2q0-1.3-0.5-2-0.5-0.7-1.4-0.7-1.3 0-1.8 1.2v3.2q0.5 1.2 1.8 1.2 0.9 0 1.4-0.7 0.5-0.8 0.5-2.2zm4.2 3.8h-1.2v-10.5h1.2zm5.1 0.1q-1.5 0-2.4-1-1-0.9-1-2.6v-0.2q0-1.1 0.5-2 0.4-0.9 1.1-1.3 0.8-0.5 1.7-0.5 1.4 0 2.2 0.9 0.8 1 0.8 2.7v0.6h-5q0 1.1 0.6 1.7 0.7 0.7 1.6 0.7 0.7 0 1.1-0.3 0.5-0.2 0.8-0.7l0.8 0.6q-0.9 1.4-2.8 1.4zm-0.1-6.6q-0.8 0-1.3 0.6-0.5 0.5-0.7 1.5h3.8v-0.1q-0.1-0.9-0.6-1.5-0.4-0.5-1.2-0.5zm4.2 2.7q0-1.7 0.8-2.7 0.8-1 2.1-1 1.3 0 2.1 0.8v-3.8h1.2v10.5h-1.1l-0.1-0.8q-0.8 0.9-2.1 0.9-1.3 0-2.1-1-0.8-1.1-0.8-2.8zm1.2 0.2q0 1.2 0.6 1.9 0.5 0.8 1.4 0.8 1.2 0 1.8-1.1v-3.4q-0.6-1.1-1.8-1.1-0.9 0-1.4 0.7-0.6 0.8-0.6 2.2z"/><path fill-rule="evenodd" class="d" d="m609.2 653v-10h2.8q1.3 0 2.3 0.6 1 0.6 1.5 1.7 0.5 1 0.6 2.4v0.6q0 1.4-0.6 2.5-0.5 1.1-1.5 1.6-1.1 0.6-2.4 0.6zm1.3-8.9v7.8h1.4q1.5 0 2.4-0.9 0.8-1 0.8-2.7v-0.6q0-1.7-0.8-2.6-0.8-1-2.2-1zm9 8.9h-1.3v-7.4h1.3zm-1.4-9.4q0-0.3 0.2-0.5 0.2-0.2 0.6-0.2 0.4 0 0.5 0.2 0.2 0.2 0.2 0.5 0 0.4-0.2 0.6-0.1 0.2-0.5 0.2-0.4 0-0.6-0.2-0.2-0.2-0.2-0.6zm7.7 7.4q0-0.5-0.3-0.8-0.4-0.2-1.4-0.4-1-0.2-1.5-0.5-0.6-0.3-0.9-0.7-0.2-0.4-0.2-1 0-0.9 0.7-1.5 0.8-0.6 2-0.6 1.3 0 2.1 0.6 0.7 0.7 0.7 1.7h-1.2q0-0.5-0.5-0.9-0.4-0.4-1.1-0.4-0.7 0-1.1 0.3-0.4 0.3-0.4 0.8 0 0.5 0.4 0.7 0.4 0.2 1.3 0.4 1 0.2 1.6 0.5 0.5 0.3 0.8 0.7 0.3 0.5 0.3 1.1 0 0.9-0.8 1.5-0.8 0.6-2 0.6-0.9 0-1.6-0.3-0.7-0.3-1.1-0.8-0.4-0.6-0.4-1.3h1.3q0 0.7 0.5 1 0.5 0.4 1.3 0.4 0.7 0 1.1-0.3 0.4-0.3 0.4-0.8zm7.5 2q-0.1-0.2-0.2-0.8-0.8 0.9-2.1 0.9-1.1 0-1.8-0.6-0.7-0.6-0.7-1.5 0-1.2 0.9-1.8 0.9-0.7 2.5-0.7h1.2v-0.6q0-0.6-0.4-1-0.4-0.4-1.1-0.4-0.7 0-1.2 0.3-0.4 0.4-0.4 0.9h-1.3q0-0.6 0.4-1.1 0.4-0.5 1-0.8 0.7-0.3 1.5-0.3 1.3 0 2 0.6 0.8 0.6 0.8 1.8v3.4q0 1 0.2 1.6v0.1zm-2.1-1q0.6 0 1.2-0.3 0.5-0.3 0.7-0.8v-1.5h-0.9q-2.4 0-2.4 1.4 0 0.6 0.4 0.9 0.4 0.3 1 0.3zm11.5-2.6q0 1.7-0.8 2.7-0.8 1-2.1 1-1.4 0-2.2-0.9v0.8h-1.2v-10.5h1.3v3.9q0.7-0.9 2.1-0.9 1.3 0 2.1 1 0.8 1 0.8 2.8zm-1.3-0.2q0-1.3-0.5-2-0.5-0.7-1.4-0.7-1.3 0-1.8 1.2v3.2q0.5 1.2 1.8 1.2 0.9 0 1.4-0.7 0.5-0.8 0.5-2.2zm4.2 3.8h-1.2v-10.5h1.2zm5.1 0.1q-1.5 0-2.4-1-1-0.9-1-2.6v-0.2q0-1.1 0.5-2 0.4-0.9 1.1-1.3 0.8-0.5 1.7-0.5 1.4 0 2.2 0.9 0.8 1 0.8 2.7v0.6h-5q0 1.1 0.6 1.7 0.7 0.7 1.6 0.7 0.7 0 1.1-0.3 0.5-0.2 0.8-0.7l0.8 0.6q-0.9 1.4-2.8 1.4zm-0.1-6.6q-0.8 0-1.3 0.6-0.5 0.5-0.7 1.5h3.8v-0.1q-0.1-0.9-0.6-1.5-0.4-0.5-1.2-0.5zm4.2 2.7q0-1.7 0.8-2.7 0.8-1 2.1-1 1.3 0 2.1 0.8v-3.8h1.2v10.5h-1.1l-0.1-0.8q-0.8 0.9-2.1 0.9-1.3 0-2.1-1-0.8-1.1-0.8-2.8zm1.2 0.2q0 1.2 0.6 1.9 0.5 0.8 1.4 0.8 1.2 0 1.8-1.1v-3.4q-0.6-1.1-1.8-1.1-0.9 0-1.4 0.7-0.6 0.8-0.6 2.2z"/><path fill-rule="evenodd" class="d" d="m609.2 873v-10h2.8q1.3 0 2.3 0.6 1 0.6 1.5 1.7 0.5 1 0.6 2.4v0.6q0 1.4-0.6 2.5-0.5 1.1-1.5 1.6-1.1 0.6-2.4 0.6zm1.3-8.9v7.8h1.4q1.5 0 2.4-0.9 0.8-1 0.8-2.7v-0.6q0-1.7-0.8-2.6-0.8-1-2.2-1zm9 8.9h-1.3v-7.4h1.3zm-1.4-9.4q0-0.3 0.2-0.5 0.2-0.2 0.6-0.2 0.4 0 0.5 0.2 0.2 0.2 0.2 0.5 0 0.4-0.2 0.6-0.1 0.2-0.5 0.2-0.4 0-0.6-0.2-0.2-0.2-0.2-0.6zm7.7 7.4q0-0.5-0.3-0.8-0.4-0.2-1.4-0.4-1-0.2-1.5-0.5-0.6-0.3-0.9-0.7-0.2-0.4-0.2-1 0-0.9 0.7-1.5 0.8-0.6 2-0.6 1.3 0 2.1 0.6 0.7 0.7 0.7 1.7h-1.2q0-0.5-0.5-0.9-0.4-0.4-1.1-0.4-0.7 0-1.1 0.3-0.4 0.3-0.4 0.8 0 0.5 0.4 0.7 0.4 0.2 1.3 0.4 1 0.2 1.6 0.5 0.5 0.3 0.8 0.7 0.3 0.5 0.3 1.1 0 0.9-0.8 1.5-0.8 0.6-2 0.6-0.9 0-1.6-0.3-0.7-0.3-1.1-0.8-0.4-0.6-0.4-1.3h1.3q0 0.7 0.5 1 0.5 0.4 1.3 0.4 0.7 0 1.1-0.3 0.4-0.3 0.4-0.8zm7.5 2q-0.1-0.2-0.2-0.8-0.8 0.9-2.1 0.9-1.1 0-1.8-0.6-0.7-0.6-0.7-1.5 0-1.2 0.9-1.8 0.9-0.7 2.5-0.7h1.2v-0.6q0-0.6-0.4-1-0.4-0.4-1.1-0.4-0.7 0-1.2 0.3-0.4 0.4-0.4 0.9h-1.3q0-0.6 0.4-1.1 0.4-0.5 1-0.8 0.7-0.3 1.5-0.3 1.3 0 2 0.6 0.8 0.6 0.8 1.8v3.4q0 1 0.2 1.6v0.1zm-2.1-1q0.6 0 1.2-0.3 0.5-0.3 0.7-0.8v-1.5h-0.9q-2.4 0-2.4 1.4 0 0.6 0.4 0.9 0.4 0.3 1 0.3zm11.5-2.6q0 1.7-0.8 2.7-0.8 1-2.1 1-1.4 0-2.2-0.9v0.8h-1.2v-10.5h1.3v3.9q0.7-0.9 2.1-0.9 1.3 0 2.1 1 0.8 1 0.8 2.8zm-1.3-0.2q0-1.3-0.5-2-0.5-0.7-1.4-0.7-1.3 0-1.8 1.2v3.2q0.5 1.2 1.8 1.2 0.9 0 1.4-0.7 0.5-0.8 0.5-2.2zm4.2 3.8h-1.2v-10.5h1.2zm5.1 0.1q-1.5 0-2.4-1-1-0.9-1-2.6v-0.2q0-1.1 0.5-2 0.4-0.9 1.1-1.3 0.8-0.5 1.7-0.5 1.4 0 2.2 0.9 0.8 1 0.8 2.7v0.6h-5q0 1.1 0.6 1.7 0.7 0.7 1.6 0.7 0.7 0 1.1-0.3 0.5-0.2 0.8-0.7l0.8 0.6q-0.9 1.4-2.8 1.4zm-0.1-6.6q-0.8 0-1.3 0.6-0.5 0.5-0.7 1.5h3.8v-0.1q-0.1-0.9-0.6-1.5-0.4-0.5-1.2-0.5zm4.2 2.7q0-1.7 0.8-2.7 0.8-1 2.1-1 1.3 0 2.1 0.8v-3.8h1.2v10.5h-1.1l-0.1-0.8q-0.8 0.9-2.1 0.9-1.3 0-2.1-1-0.8-1.1-0.8-2.8zm1.2 0.2q0 1.2 0.6 1.9 0.5 0.8 1.4 0.8 1.2 0 1.8-1.1v-3.4q-0.6-1.1-1.8-1.1-0.9 0-1.4 0.7-0.6 0.8-0.6 2.2z"/><path fill-rule="evenodd" class="n" d="m65.3 92.6v7.8q0 1.6-1 2.6-1 1-2.7 1.1l-0.4 0.1q-1.9 0-3-1.1-1.1-1-1.1-2.7v-7.8h1.5v7.7q0 1.3 0.7 2 0.6 0.6 1.9 0.6 1.3 0 1.9-0.6 0.7-0.7 0.7-2v-7.7zm7.1 9.2q0-0.6-0.5-0.9-0.4-0.4-1.5-0.6-1.1-0.2-1.7-0.6-0.7-0.3-1-0.8-0.3-0.4-0.3-1 0-1.1 0.9-1.8 0.9-0.7 2.2-0.7 1.5 0 2.4 0.7 0.8 0.8 0.9 1.9h-1.5q0-0.6-0.5-1-0.5-0.4-1.3-0.4-0.8 0-1.2 0.3-0.5 0.4-0.5 0.9 0 0.5 0.5 0.8 0.4 0.3 1.5 0.5 1 0.3 1.7 0.6 0.7 0.3 1 0.8 0.3 0.5 0.3 1.2 0 1.1-0.9 1.8-0.9 0.7-2.3 0.7-1 0-1.8-0.4-0.8-0.4-1.3-1-0.4-0.7-0.4-1.4h1.5q0 0.7 0.5 1.2 0.6 0.4 1.5 0.4 0.8 0 1.3-0.4 0.5-0.3 0.5-0.8zm6.8 2.4q-1.7 0-2.8-1.2-1.1-1.1-1.1-3v-0.3q0-1.2 0.5-2.2 0.5-1 1.4-1.5 0.8-0.6 1.8-0.6 1.7 0 2.6 1.1 0.9 1.1 0.9 3.1v0.6h-5.7q0 1.2 0.7 2 0.7 0.8 1.8 0.8 0.8 0 1.3-0.3 0.5-0.3 0.9-0.9l0.9 0.7q-1.1 1.7-3.2 1.7zm-0.2-7.6q-0.8 0-1.4 0.6-0.6 0.7-0.8 1.8h4.3v-0.1q-0.1-1.1-0.6-1.7-0.6-0.6-1.5-0.6zm11.1-3.1v2h1.6v1.2h-1.6v5.2q0 0.5 0.2 0.8 0.2 0.2 0.8 0.2 0.2 0 0.6-0.1v1.2q-0.5 0.2-1.1 0.2-0.9 0-1.4-0.6-0.5-0.6-0.5-1.7v-5.2h-1.6v-1.2h1.6v-2zm4.7 3.1q1-1.2 2.5-1.2 2.7 0 2.7 3v5.6h-1.4v-5.6q-0.1-0.9-0.5-1.3-0.4-0.5-1.2-0.5-0.7 0-1.3 0.4-0.5 0.4-0.8 1v6h-1.4v-12h1.4zm10.9 7.6q-1.7 0-2.8-1.1-1.1-1.2-1.1-3.1v-0.2q0-1.3 0.5-2.3 0.5-1 1.3-1.5 0.9-0.6 1.9-0.6 1.6 0 2.6 1.1 0.9 1.1 0.9 3.1v0.6h-5.8q0.1 1.3 0.8 2 0.7 0.8 1.8 0.8 0.7 0 1.2-0.3 0.6-0.3 1-0.8l0.9 0.7q-1.1 1.6-3.2 1.6zm-0.2-7.6q-0.9 0-1.5 0.6-0.6 0.7-0.7 1.8h4.2v-0.1q0-1.1-0.6-1.7-0.5-0.6-1.4-0.6zm8.8 3.1q0-1.9 0.9-3.1 0.9-1.2 2.4-1.2 1.5 0 2.4 1v-4.4h1.4v12h-1.3l-0.1-0.9q-0.9 1.1-2.4 1.1-1.5 0-2.4-1.2-0.9-1.2-0.9-3.2zm1.4 0.2q0 1.4 0.6 2.3 0.6 0.8 1.6 0.8 1.4 0 2.1-1.3v-3.8q-0.7-1.2-2-1.2-1.1 0-1.7 0.8-0.6 0.8-0.6 2.4zm9.5 4.1h-1.4v-8.4h1.4zm-1.5-10.7q0-0.4 0.2-0.6 0.2-0.2 0.6-0.2 0.4 0 0.6 0.2 0.3 0.2 0.3 0.6 0 0.3-0.3 0.6-0.2 0.2-0.6 0.2-0.4 0-0.6-0.2-0.2-0.3-0.2-0.6zm4.6 10.7v-7.3h-1.4v-1.2h1.4v-0.8q0-1.4 0.7-2.1 0.7-0.8 2-0.8 0.5 0 1 0.2l-0.1 1.1q-0.3 0-0.7 0-0.7 0-1.1 0.4-0.4 0.4-0.4 1.1v0.9h1.8v1.2h-1.8v7.3zm5.6 0v-7.3h-1.4v-1.2h1.4v-0.8q0-1.4 0.7-2.1 0.7-0.8 2-0.8 0.5 0 1 0.2v1.1q-0.4 0-0.8 0-0.7 0-1.1 0.4-0.4 0.4-0.4 1.1v0.9h1.8v1.2h-1.8v7.3zm8.2 0.1q-1.7 0-2.8-1.1-1.1-1.1-1.1-3v-0.3q0-1.2 0.5-2.2 0.5-1 1.3-1.6 0.9-0.5 1.9-0.5 1.6 0 2.6 1.1 0.9 1 0.9 3.1v0.6h-5.8q0.1 1.2 0.8 2 0.7 0.8 1.8 0.8 0.7 0 1.3-0.4 0.5-0.3 0.9-0.8l0.9 0.7q-1.1 1.6-3.2 1.6zm-0.2-7.5q-0.9 0-1.5 0.6-0.6 0.6-0.7 1.8h4.2v-0.1q0-1.1-0.6-1.7-0.5-0.6-1.4-0.6zm9.2 0.2q-0.3 0-0.7 0-1.4 0-1.9 1.2v6h-1.4v-8.5h1.4v1q0.7-1.1 2-1.1 0.4 0 0.6 0.1zm4.7 7.3q-1.7 0-2.8-1.1-1-1.2-1-3v-0.3q0-1.3 0.4-2.3 0.5-1 1.4-1.5 0.8-0.6 1.8-0.6 1.7 0 2.6 1.1 0.9 1.1 0.9 3.1v0.6h-5.7q0 1.3 0.7 2.1 0.7 0.7 1.8 0.7 0.8 0 1.3-0.3 0.5-0.3 0.9-0.8l0.9 0.7q-1 1.6-3.2 1.6zm-0.2-7.6q-0.8 0-1.4 0.7-0.6 0.6-0.8 1.7h4.3v-0.1q-0.1-1.1-0.6-1.7-0.5-0.6-1.5-0.6zm6.6-1v1.1q1-1.3 2.5-1.3 2.7 0 2.8 3.1v5.5h-1.5v-5.6q0-0.9-0.4-1.3-0.4-0.4-1.3-0.4-0.7 0-1.2 0.3-0.6 0.4-0.9 1v6h-1.4v-8.4zm9.4-2.1v2.1h1.6v1.1h-1.6v5.2q0 0.6 0.2 0.8 0.2 0.3 0.8 0.3 0.2 0 0.6-0.1v1.1q-0.5 0.2-1.1 0.2-0.9 0-1.4-0.6-0.5-0.6-0.5-1.7v-5.2h-1.6v-1.1h1.6v-2.1zm14.4 6.4q0 1.9-0.9 3.1-0.9 1.2-2.4 1.2-1.6 0-2.5-1.1l-0.1 0.9h-1.3v-12h1.5v4.5q0.8-1.1 2.4-1.1 1.5 0 2.4 1.2 0.9 1.2 0.9 3.2zm-1.5-0.2q0-1.5-0.5-2.3-0.6-0.8-1.7-0.8-1.4 0-2 1.4v3.6q0.6 1.3 2 1.3 1.1 0 1.7-0.8 0.5-0.8 0.5-2.4zm8.5 3.5q-0.8 1-2.5 1-1.3 0-2-0.8-0.7-0.8-0.7-2.3v-5.5h1.4v5.4q0 1.9 1.6 1.9 1.6 0 2.2-1.2v-6.1h1.4v8.4h-1.3zm5.5-9.6v2h1.6v1.1h-1.6v5.3q0 0.5 0.2 0.7 0.2 0.3 0.8 0.3 0.2 0 0.6-0.1v1.2q-0.5 0.1-1.1 0.1-0.9 0-1.4-0.6-0.5-0.6-0.5-1.6v-5.3h-1.6v-1.1h1.6v-2zm5.2 0v2h1.6v1.1h-1.6v5.3q0 0.5 0.2 0.7 0.2 0.3 0.7 0.3 0.3 0 0.7-0.1v1.2q-0.5 0.1-1.1 0.1-0.9 0-1.4-0.6-0.5-0.6-0.5-1.6v-5.3h-1.6v-1.1h1.6v-2zm2.7 6.1q0-1.2 0.5-2.2 0.5-1 1.3-1.5 0.9-0.6 2-0.6 1.8 0 2.8 1.2 1.1 1.2 1.1 3.2v0.1q0 1.3-0.5 2.2-0.4 1-1.3 1.6-0.9 0.5-2 0.5-1.8 0-2.8-1.2-1.1-1.2-1.1-3.1zm1.5 0.1q0 1.4 0.6 2.3 0.7 0.8 1.8 0.8 1.1 0 1.7-0.8 0.7-0.9 0.7-2.4 0-1.4-0.7-2.3-0.7-0.9-1.8-0.9-1 0-1.7 0.9-0.6 0.8-0.6 2.4zm9.4-4.3v1.1q1-1.3 2.6-1.3 2.6 0 2.7 3.1v5.6h-1.5v-5.6q0-1-0.4-1.4-0.4-0.4-1.3-0.4-0.7 0-1.2 0.3-0.5 0.4-0.8 1v6.1h-1.5v-8.5zm13.4-2v2h1.6v1.1h-1.6v5.3q0 0.5 0.2 0.7 0.2 0.3 0.7 0.3 0.3 0 0.7-0.1v1.2q-0.6 0.1-1.1 0.1-1 0-1.5-0.6-0.4-0.6-0.4-1.6v-5.3h-1.6v-1.1h1.6v-2zm6 8.3l2-6.3h1.5l-3.4 9.8q-0.8 2.1-2.5 2.1l-0.3-0.1-0.5-0.1v-1.1h0.4q0.7 0 1.1-0.3 0.4-0.3 0.7-1.1l0.3-0.8-3-8.4h1.6zm11.9-2q0 1.9-0.8 3.1-0.9 1.2-2.4 1.2-1.6 0-2.5-1v4.1h-1.4v-11.7h1.3l0.1 0.9q0.9-1.1 2.4-1.1 1.6 0 2.4 1.2 0.9 1.1 0.9 3.2zm-1.4-0.2q0-1.4-0.6-2.3-0.6-0.8-1.7-0.8-1.3 0-2 1.2v4q0.7 1.2 2 1.2 1.1 0 1.7-0.9 0.6-0.8 0.6-2.4zm6.8 4.4q-1.7 0-2.8-1.1-1.1-1.1-1.1-3v-0.3q0-1.2 0.5-2.2 0.5-1 1.3-1.6 0.9-0.5 1.9-0.5 1.7 0 2.6 1.1 0.9 1 0.9 3.1v0.6h-5.7q0 1.2 0.7 2 0.7 0.8 1.8 0.8 0.7 0 1.3-0.4 0.5-0.3 0.9-0.8l0.9 0.7q-1.1 1.6-3.2 1.6zm-0.2-7.5q-0.9 0-1.5 0.6-0.6 0.6-0.7 1.8h4.2v-0.1q0-1.1-0.6-1.7-0.5-0.6-1.4-0.6zm10.1 5.1q0-0.5-0.5-0.9-0.4-0.3-1.5-0.5-1.1-0.3-1.7-0.6-0.7-0.3-1-0.8-0.3-0.4-0.3-1 0-1.1 0.9-1.8 0.9-0.7 2.2-0.7 1.5 0 2.4 0.7 0.9 0.8 0.9 1.9h-1.5q0-0.6-0.5-1-0.5-0.4-1.3-0.4-0.8 0-1.2 0.3-0.5 0.4-0.5 0.9 0 0.5 0.5 0.8 0.4 0.3 1.5 0.5 1 0.2 1.7 0.6 0.7 0.3 1 0.8 0.3 0.5 0.3 1.1 0 1.2-0.9 1.9-0.9 0.6-2.3 0.6-1 0-1.8-0.3-0.8-0.4-1.2-1-0.5-0.7-0.5-1.4h1.5q0 0.7 0.5 1.1 0.6 0.5 1.5 0.5 0.8 0 1.3-0.4 0.5-0.3 0.5-0.9zm9.2-8.2v2h1.6v1.1h-1.6v5.3q0 0.5 0.3 0.8 0.2 0.2 0.7 0.2 0.2 0 0.7-0.1v1.2q-0.6 0.1-1.1 0.1-1 0-1.5-0.5-0.5-0.6-0.5-1.7v-5.3h-1.5v-1.1h1.5v-2zm2.7 6.2q0-1.3 0.5-2.3 0.5-0.9 1.4-1.5 0.9-0.5 2-0.5 1.7 0 2.8 1.2 1 1.2 1 3.2v0.1q0 1.2-0.4 2.2-0.5 0.9-1.4 1.5-0.9 0.5-2 0.5-1.7 0-2.8-1.2-1.1-1.1-1.1-3.1zm1.5 0.2q0 1.4 0.6 2.2 0.7 0.9 1.8 0.9 1.1 0 1.7-0.9 0.7-0.9 0.7-2.4 0-1.4-0.7-2.3-0.6-0.8-1.7-0.8-1.1 0-1.8 0.8-0.6 0.9-0.6 2.5zm13.5-3.3q0.9-1.2 2.5-1.2 2.6 0 2.7 3v5.6h-1.5v-5.6q0-0.9-0.4-1.4-0.4-0.4-1.3-0.4-0.7 0-1.2 0.4-0.5 0.4-0.8 1v6h-1.5v-12h1.5zm10.8 7.6q-1.7 0-2.8-1.2-1-1.1-1-3v-0.2q0-1.3 0.4-2.3 0.5-1 1.4-1.5 0.8-0.6 1.9-0.6 1.6 0 2.5 1.1 0.9 1.1 0.9 3.1v0.6h-5.7q0 1.3 0.7 2 0.7 0.8 1.8 0.8 0.8 0 1.3-0.3 0.5-0.3 0.9-0.8l0.9 0.6q-1 1.7-3.2 1.7zm-0.1-7.6q-0.9 0-1.5 0.6-0.6 0.7-0.8 1.8h4.3v-0.1q-0.1-1.1-0.6-1.7-0.5-0.6-1.4-0.6zm6.7 7.4h-1.5v-12h1.5zm9.4-4.1q0 1.9-0.8 3.1-0.9 1.2-2.4 1.2-1.6 0-2.5-1v4.1h-1.4v-11.7h1.3l0.1 0.9q0.9-1.1 2.4-1.1 1.6 0 2.4 1.2 0.9 1.1 0.9 3.2zm-1.4-0.2q0-1.4-0.6-2.3-0.6-0.8-1.7-0.8-1.3 0-2 1.2v4q0.7 1.2 2 1.2 1.1 0 1.7-0.9 0.6-0.8 0.6-2.4zm12.2 2q0-0.5-0.5-0.9-0.4-0.3-1.5-0.5-1.1-0.3-1.8-0.6-0.6-0.3-0.9-0.8-0.3-0.4-0.3-1 0-1.1 0.9-1.8 0.8-0.7 2.2-0.7 1.5 0 2.3 0.7 0.9 0.8 0.9 1.9h-1.4q0-0.6-0.5-1-0.5-0.4-1.3-0.4-0.8 0-1.2 0.3-0.5 0.3-0.5 0.9 0 0.5 0.4 0.8 0.5 0.3 1.5 0.5 1.1 0.2 1.8 0.6 0.7 0.3 1 0.8 0.3 0.5 0.3 1.1 0 1.2-0.9 1.9-0.9 0.6-2.3 0.6-1.1 0-1.8-0.3-0.8-0.4-1.3-1-0.4-0.7-0.4-1.4h1.4q0.1 0.7 0.6 1.1 0.6 0.5 1.5 0.5 0.8 0 1.3-0.4 0.5-0.3 0.5-0.9zm4.7-5.1q1-1.2 2.5-1.2 2.7 0 2.7 3v5.6h-1.4v-5.6q0-0.9-0.4-1.4-0.4-0.4-1.3-0.4-0.7 0-1.2 0.4-0.6 0.4-0.9 1v6h-1.4v-12h1.4zm7 3.1q0-1.2 0.5-2.2 0.5-1 1.4-1.6 0.8-0.5 2-0.5 1.7 0 2.8 1.2 1 1.2 1 3.2v0.1q0 1.2-0.5 2.2-0.4 1-1.3 1.5-0.9 0.6-2 0.6-1.7 0-2.8-1.2-1.1-1.2-1.1-3.2zm1.5 0.2q0 1.4 0.6 2.2 0.7 0.9 1.8 0.9 1.1 0 1.7-0.9 0.7-0.8 0.7-2.4 0-1.4-0.7-2.2-0.6-0.9-1.7-0.9-1.1 0-1.8 0.8-0.6 0.9-0.6 2.5zm15.5 2.1l1.6-6.4h1.5l-2.5 8.4h-1.1l-2.1-6.4-2 6.4h-1.2l-2.4-8.4h1.4l1.7 6.3 2-6.3h1.1zm10.5-8.5v2h1.6v1.1h-1.6v5.3q0 0.5 0.2 0.7 0.2 0.3 0.7 0.3 0.3 0 0.7-0.1v1.2q-0.6 0.1-1.1 0.1-1 0-1.5-0.6-0.5-0.6-0.5-1.6v-5.3h-1.5v-1.1h1.5v-2zm4.8 3q0.9-1.2 2.5-1.2 2.6 0 2.7 3.1v5.6h-1.5v-5.6q0-1-0.4-1.4-0.4-0.4-1.3-0.4-0.7 0-1.2 0.3-0.5 0.4-0.8 1v6.1h-1.5v-12h1.5zm10.8 7.5q-1.7 0-2.8-1.1-1-1.1-1-3v-0.3q0-1.2 0.4-2.2 0.5-1 1.4-1.6 0.9-0.5 1.9-0.5 1.6 0 2.5 1.1 0.9 1 0.9 3.1v0.6h-5.7q0 1.2 0.7 2 0.7 0.8 1.8 0.8 0.8 0 1.3-0.4 0.5-0.3 0.9-0.8l0.9 0.7q-1 1.6-3.2 1.6zm-0.1-7.5q-0.9 0-1.5 0.6-0.6 0.6-0.7 1.8h4.2v-0.1q-0.1-1.1-0.6-1.7-0.5-0.6-1.4-0.6zm14.3 6.5q-0.8 1-2.5 1-1.3 0-2-0.7-0.7-0.8-0.7-2.4v-5.5h1.4v5.5q0 1.9 1.6 1.9 1.6 0 2.2-1.2v-6.2h1.4v8.5h-1.4zm8.6-1.4q0-0.6-0.5-0.9-0.4-0.4-1.5-0.6-1.1-0.2-1.8-0.6-0.6-0.3-0.9-0.7-0.3-0.5-0.3-1.1 0-1.1 0.9-1.8 0.8-0.7 2.2-0.7 1.4 0 2.3 0.8 0.9 0.7 0.9 1.9h-1.4q0-0.6-0.5-1.1-0.5-0.4-1.3-0.4-0.8 0-1.2 0.3-0.5 0.4-0.5 0.9 0 0.6 0.4 0.8 0.5 0.3 1.5 0.5 1.1 0.3 1.8 0.6 0.7 0.4 1 0.8 0.3 0.5 0.3 1.2 0 1.1-0.9 1.8-0.9 0.7-2.3 0.7-1.1 0-1.8-0.4-0.8-0.3-1.3-1-0.4-0.6-0.4-1.4h1.4q0.1 0.7 0.6 1.2 0.6 0.4 1.5 0.4 0.8 0 1.3-0.3 0.5-0.4 0.5-0.9zm6.8 2.4q-1.7 0-2.8-1.1-1.1-1.2-1.1-3.1v-0.2q0-1.3 0.5-2.3 0.5-1 1.3-1.5 0.9-0.6 1.9-0.6 1.7 0 2.6 1.1 0.9 1.1 0.9 3.1v0.6h-5.7q0 1.3 0.7 2 0.7 0.8 1.8 0.8 0.7 0 1.3-0.3 0.5-0.3 0.9-0.8l0.9 0.6q-1.1 1.7-3.2 1.7zm-0.2-7.6q-0.9 0-1.4 0.6-0.6 0.7-0.8 1.8h4.3v-0.1q-0.1-1.1-0.6-1.7-0.6-0.6-1.5-0.6zm9.3 0.3q-0.4-0.1-0.7-0.1-1.5 0-2 1.2v6h-1.4v-8.4h1.4v0.9q0.7-1.1 2-1.1 0.4 0 0.7 0.1zm7.2-3.3v2h1.6v1.1h-1.6v5.3q0 0.5 0.2 0.7 0.3 0.3 0.8 0.3 0.2 0 0.6-0.1v1.2q-0.5 0.1-1.1 0.1-0.9 0-1.4-0.6-0.5-0.5-0.5-1.6v-5.3h-1.6v-1.1h1.6v-2zm4.7 3q1-1.1 2.5-1.1 2.7 0 2.7 3v5.6h-1.4v-5.6q0-0.9-0.5-1.4-0.4-0.4-1.2-0.4-0.7 0-1.3 0.4-0.5 0.3-0.8 1v6h-1.4v-12h1.4zm10.9 7.6q-1.7 0-2.8-1.2-1.1-1.1-1.1-3v-0.3q0-1.2 0.5-2.2 0.5-1 1.3-1.5 0.9-0.6 1.9-0.6 1.6 0 2.6 1.1 0.9 1.1 0.9 3.1v0.6h-5.8q0.1 1.2 0.8 2 0.7 0.8 1.8 0.8 0.7 0 1.3-0.3 0.5-0.3 0.9-0.9l0.9 0.7q-1.1 1.7-3.2 1.7zm-0.2-7.6q-0.9 0-1.5 0.6-0.6 0.7-0.7 1.8h4.2v-0.1q0-1.1-0.6-1.7-0.5-0.6-1.4-0.6zm10.7 7.4h-1.5v-8.4h1.5zm-1.6-10.7q0-0.4 0.2-0.6 0.3-0.3 0.7-0.3 0.4 0 0.6 0.3 0.2 0.2 0.2 0.6 0 0.3-0.2 0.5-0.2 0.3-0.6 0.3-0.4 0-0.7-0.3-0.2-0.2-0.2-0.5zm5.3 2.2v0.9q0.9-1.1 2.5-1.1 1.8 0 2.4 1.4 0.5-0.6 1.1-1 0.7-0.4 1.6-0.4 2.8 0 2.9 3v5.7h-1.5v-5.6q0-0.9-0.4-1.4-0.4-0.4-1.4-0.4-0.8 0-1.3 0.5-0.6 0.4-0.6 1.2v5.7h-1.5v-5.6q0-1.8-1.8-1.8-1.4 0-1.9 1.2v6.2h-1.5v-8.5zm19.8 4.3q0 2-0.9 3.1-0.8 1.2-2.4 1.2-1.5 0-2.4-1v4.1h-1.4v-11.7h1.3l0.1 0.9q0.9-1.1 2.4-1.1 1.5 0 2.4 1.2 0.9 1.1 0.9 3.2zm-1.4-0.2q0-1.4-0.6-2.2-0.6-0.9-1.7-0.9-1.3 0-2 1.2v4q0.7 1.2 2 1.2 1 0 1.7-0.8 0.6-0.9 0.6-2.5zm2.9 0q0-1.2 0.5-2.2 0.5-1 1.3-1.6 0.9-0.5 2-0.5 1.7 0 2.8 1.2 1.1 1.2 1.1 3.2v0.1q0 1.2-0.5 2.2-0.5 1-1.4 1.5-0.8 0.6-2 0.6-1.7 0-2.8-1.2-1-1.2-1-3.2zm1.4 0.2q0 1.4 0.7 2.2 0.6 0.9 1.7 0.9 1.1 0 1.8-0.9 0.6-0.8 0.6-2.4 0-1.4-0.6-2.2-0.7-0.9-1.8-0.9-1.1 0-1.7 0.9-0.7 0.8-0.7 2.4zm12.2-3q-0.4-0.1-0.7-0.1-1.5 0-2 1.2v6h-1.4v-8.4h1.4v0.9q0.7-1.1 2-1.1 0.5 0 0.7 0.1zm3.7-3.3v2h1.5v1.1h-1.5v5.3q0 0.5 0.2 0.8 0.2 0.2 0.7 0.2 0.2 0 0.7-0.1v1.2q-0.6 0.1-1.1 0.1-1 0-1.5-0.6-0.5-0.5-0.5-1.6v-5.3h-1.5v-1.1h1.5v-2zm8.5 10.5q-0.1-0.3-0.2-0.9-1 1-2.4 1-1.3 0-2.1-0.7-0.8-0.7-0.8-1.8 0-1.3 1-2 1.1-0.7 2.9-0.7h1.4v-0.7q0-0.8-0.5-1.2-0.4-0.5-1.3-0.5-0.8 0-1.3 0.4-0.5 0.4-0.5 1h-1.5q0-0.7 0.5-1.3 0.4-0.5 1.2-0.9 0.8-0.3 1.7-0.3 1.4 0 2.3 0.7 0.8 0.7 0.8 2v3.9q0 1.2 0.3 1.9v0.1zm-2.4-1.1q0.7 0 1.3-0.4 0.6-0.3 0.9-0.9v-1.7h-1.1q-2.7 0-2.7 1.5 0 0.7 0.5 1.1 0.4 0.4 1.1 0.4zm7.3-7.4v1.1q1-1.2 2.6-1.2 2.6 0 2.7 3v5.6h-1.5v-5.6q0-0.9-0.4-1.4-0.4-0.4-1.3-0.4-0.7 0-1.2 0.4-0.6 0.3-0.8 1v6h-1.5v-8.5zm10.9 7.5q0.7 0 1.3-0.5 0.6-0.5 0.7-1.2h1.3q0 0.7-0.5 1.4-0.4 0.7-1.2 1-0.8 0.4-1.6 0.4-1.8 0-2.8-1.1-1-1.2-1-3.2v-0.2q0-1.2 0.4-2.2 0.5-1 1.3-1.5 0.9-0.5 2.1-0.5 1.4 0 2.3 0.8 1 0.9 1 2.2h-1.3q-0.1-0.8-0.7-1.3-0.5-0.5-1.3-0.5-1.2 0-1.8 0.8-0.6 0.7-0.6 2.2v0.3q0 1.5 0.6 2.3 0.6 0.8 1.8 0.8zm8.5 1.1q-1.8 0-2.8-1.1-1.1-1.1-1.1-3v-0.3q0-1.2 0.5-2.2 0.4-1 1.3-1.6 0.9-0.5 1.9-0.5 1.6 0 2.5 1.1 0.9 1 0.9 3.1v0.6h-5.7q0.1 1.2 0.7 2 0.8 0.8 1.8 0.8 0.8 0 1.3-0.4 0.6-0.3 1-0.8l0.8 0.7q-1 1.6-3.1 1.6zm-0.2-7.5q-0.9 0-1.5 0.6-0.6 0.6-0.7 1.8h4.2v-0.1q-0.1-1.1-0.6-1.7-0.5-0.6-1.4-0.6zm14.3 7.4q-0.1-0.3-0.2-0.9-1 1-2.4 1-1.2 0-2-0.7-0.8-0.7-0.8-1.8 0-1.3 1-2 1-0.7 2.8-0.7h1.4v-0.7q0-0.8-0.5-1.2-0.4-0.5-1.3-0.5-0.8 0-1.3 0.4-0.5 0.4-0.5 1h-1.5q0-0.7 0.5-1.3 0.4-0.5 1.2-0.9 0.8-0.3 1.7-0.3 1.4 0 2.3 0.7 0.8 0.7 0.8 2v3.9q0 1.2 0.3 1.9v0.1zm-2.4-1.1q0.7 0 1.3-0.4 0.6-0.3 0.9-0.9v-1.7h-1.1q-2.7 0-2.7 1.5 0 0.7 0.5 1.1 0.4 0.4 1.1 0.4zm7.3-7.4v1.1q1-1.2 2.6-1.2 2.6 0 2.7 3v5.6h-1.5v-5.6q0-0.9-0.4-1.4-0.4-0.4-1.3-0.4-0.7 0-1.2 0.4-0.5 0.3-0.8 1v6h-1.5v-8.5zm7.1 4.2q0-2 0.9-3.1 1-1.2 2.5-1.2 1.4 0 2.3 1v-4.4h1.5v12h-1.4v-0.9q-0.9 1-2.5 1-1.4 0-2.4-1.2-0.9-1.2-0.9-3.1zm1.5 0.2q0 1.4 0.6 2.2 0.6 0.8 1.6 0.8 1.4 0 2-1.2v-3.9q-0.6-1.2-2-1.2-1 0-1.6 0.8-0.6 0.8-0.6 2.5zm13.4 4.1h-1.4v-8.5h1.4zm-1.5-10.7q0-0.3 0.2-0.6 0.2-0.2 0.6-0.2 0.5 0 0.7 0.2 0.2 0.3 0.2 0.6 0 0.4-0.2 0.6-0.2 0.3-0.7 0.3-0.4 0-0.6-0.3-0.2-0.2-0.2-0.6zm5.2 2.3l0.1 0.9q0.9-1.1 2.5-1.1 1.7 0 2.4 1.4 0.4-0.6 1.1-1 0.7-0.4 1.6-0.4 2.8 0 2.8 3v5.6h-1.4v-5.5q0-0.9-0.4-1.4-0.5-0.4-1.4-0.4-0.8 0-1.4 0.4-0.5 0.5-0.6 1.3v5.6h-1.4v-5.5q0-1.8-1.9-1.8-1.4 0-1.9 1.2v6.1h-1.4v-8.4zm19.8 4.3q0 1.9-0.9 3.1-0.9 1.2-2.4 1.2-1.5 0-2.4-1v4.1h-1.5v-11.7h1.4v0.9q0.9-1.1 2.5-1.1 1.5 0 2.4 1.2 0.9 1.1 0.9 3.2zm-1.5-0.2q0-1.4-0.6-2.3-0.6-0.8-1.7-0.8-1.3 0-1.9 1.2v4q0.6 1.2 2 1.2 1 0 1.6-0.8 0.6-0.9 0.6-2.5zm8.5 4.3q-0.1-0.2-0.2-0.9-1 1.1-2.4 1.1-1.2 0-2-0.7-0.8-0.8-0.8-1.8 0-1.4 1-2.1 1-0.7 2.8-0.7h1.4v-0.7q0-0.7-0.4-1.2-0.5-0.4-1.4-0.4-0.8 0-1.3 0.3-0.5 0.4-0.5 1h-1.5q0-0.6 0.5-1.2 0.4-0.6 1.2-1 0.8-0.3 1.7-0.3 1.5 0 2.3 0.7 0.8 0.8 0.9 2v3.9q0 1.2 0.2 1.9v0.1zm-2.4-1.1q0.7 0 1.3-0.4 0.6-0.3 0.9-0.9v-1.7h-1.1q-2.7 0-2.7 1.6 0 0.6 0.5 1 0.4 0.4 1.1 0.4zm9.3 0.1q0.8 0 1.4-0.5 0.6-0.5 0.6-1.2h1.4q-0.1 0.8-0.5 1.4-0.5 0.7-1.3 1.1-0.7 0.4-1.6 0.4-1.7 0-2.7-1.2-1-1.1-1-3.1v-0.3q0-1.2 0.4-2.2 0.5-0.9 1.3-1.5 0.9-0.5 2-0.5 1.4 0 2.4 0.8 0.9 0.9 1 2.3h-1.4q0-0.9-0.6-1.4-0.6-0.5-1.4-0.5-1.1 0-1.7 0.8-0.6 0.8-0.6 2.3v0.2q0 1.5 0.6 2.3 0.6 0.8 1.7 0.8zm7-9.5v2h1.5v1.2h-1.5v5.2q0 0.5 0.2 0.8 0.2 0.2 0.7 0.2 0.2 0 0.7-0.1v1.2q-0.6 0.2-1.1 0.2-1 0-1.5-0.6-0.5-0.6-0.5-1.7v-5.2h-1.5v-1.2h1.5v-2zm9.2 0v2h1.6v1.2h-1.6v5.2q0 0.5 0.2 0.8 0.2 0.2 0.8 0.2 0.2 0 0.6-0.1v1.2q-0.5 0.2-1.1 0.2-0.9 0-1.4-0.6-0.5-0.6-0.5-1.7v-5.2h-1.6v-1.2h1.6v-2zm4.7 3.1q1-1.2 2.5-1.2 2.7 0 2.7 3v5.6h-1.4v-5.6q0-0.9-0.5-1.3-0.4-0.5-1.2-0.5-0.7 0-1.3 0.4-0.5 0.4-0.8 1v6h-1.4v-12h1.4zm10.9 7.6q-1.7 0-2.8-1.1-1.1-1.2-1.1-3.1v-0.2q0-1.3 0.5-2.3 0.5-1 1.3-1.5 0.9-0.6 1.9-0.6 1.6 0 2.6 1.1 0.9 1.1 0.9 3.1v0.6h-5.8q0.1 1.3 0.8 2 0.7 0.8 1.8 0.8 0.7 0 1.3-0.3 0.5-0.3 0.9-0.8l0.9 0.7q-1.1 1.6-3.2 1.6zm-0.2-7.6q-0.9 0-1.5 0.7-0.6 0.6-0.7 1.7h4.2v-0.1q0-1.1-0.6-1.7-0.5-0.6-1.4-0.6zm14.3 7.4q-0.1-0.2-0.2-0.9-1 1.1-2.4 1.1-1.2 0-2-0.7-0.8-0.7-0.8-1.8 0-1.3 1-2.1 1-0.7 2.8-0.7h1.4v-0.7q0-0.7-0.4-1.2-0.5-0.4-1.4-0.4-0.7 0-1.3 0.4-0.5 0.4-0.5 0.9h-1.4q0-0.6 0.4-1.2 0.4-0.6 1.2-0.9 0.8-0.4 1.7-0.4 1.5 0 2.3 0.8 0.8 0.7 0.9 2v3.9q0 1.1 0.3 1.8v0.1zm-2.4-1.1q0.6 0 1.2-0.3 0.7-0.4 0.9-0.9v-1.8h-1.1q-2.7 0-2.7 1.6 0 0.7 0.5 1 0.4 0.4 1.2 0.4zm9.2 0.1q0.8 0 1.4-0.5 0.6-0.4 0.6-1.1h1.4q0 0.7-0.5 1.4-0.5 0.6-1.2 1-0.8 0.4-1.7 0.4-1.7 0-2.7-1.2-1-1.1-1-3.1v-0.3q0-1.2 0.4-2.2 0.5-0.9 1.3-1.4 0.9-0.6 2-0.6 1.4 0 2.4 0.9 0.9 0.8 1 2.2h-1.4q0-0.8-0.6-1.4-0.6-0.5-1.4-0.5-1.1 0-1.7 0.8-0.6 0.8-0.6 2.3v0.3q0 1.4 0.6 2.2 0.6 0.8 1.7 0.8zm7-9.5v2.1h1.6v1.1h-1.6v5.2q0 0.5 0.2 0.8 0.2 0.3 0.7 0.3 0.3 0 0.7-0.1v1.1q-0.6 0.2-1.1 0.2-1 0-1.5-0.6-0.5-0.6-0.5-1.7v-5.2h-1.5v-1.1h1.5v-2.1zm4.9 10.5h-1.5v-8.4h1.5zm-1.6-10.7q0-0.4 0.2-0.6 0.2-0.3 0.7-0.3 0.4 0 0.6 0.3 0.2 0.2 0.2 0.6 0 0.3-0.2 0.6-0.2 0.2-0.6 0.2-0.5 0-0.7-0.2-0.2-0.3-0.2-0.6zm3.5 6.4q0-1.3 0.5-2.3 0.5-1 1.4-1.5 0.8-0.5 1.9-0.5 1.8 0 2.8 1.2 1.1 1.2 1.1 3.1v0.1q0 1.3-0.5 2.3-0.4 0.9-1.3 1.5-0.9 0.5-2 0.5-1.8 0-2.8-1.2-1.1-1.2-1.1-3.1zm1.5 0.1q0 1.5 0.6 2.3 0.7 0.9 1.8 0.9 1.1 0 1.7-0.9 0.7-0.9 0.7-2.4 0-1.4-0.7-2.3-0.7-0.8-1.8-0.8-1 0-1.7 0.8-0.6 0.9-0.6 2.4zm9.4-4.3v1.1q1-1.2 2.6-1.2 2.6 0 2.7 3v5.6h-1.5v-5.6q0-0.9-0.4-1.4-0.4-0.4-1.3-0.4-0.7 0-1.2 0.4-0.5 0.3-0.8 1v6h-1.5v-8.5zm12.4 6.2q0-0.5-0.4-0.9-0.5-0.3-1.6-0.5-1.1-0.3-1.7-0.6-0.7-0.3-1-0.8-0.3-0.4-0.3-1.1 0-1 0.9-1.7 0.9-0.7 2.2-0.7 1.5 0 2.4 0.7 0.9 0.8 0.9 1.9h-1.5q0-0.6-0.5-1-0.5-0.4-1.3-0.4-0.7 0-1.2 0.3-0.4 0.3-0.4 0.9 0 0.5 0.4 0.8 0.4 0.3 1.5 0.5 1.1 0.2 1.7 0.6 0.7 0.3 1 0.8 0.3 0.5 0.3 1.1 0 1.2-0.9 1.9-0.9 0.6-2.3 0.6-1 0-1.8-0.3-0.8-0.4-1.2-1-0.5-0.7-0.5-1.4h1.5q0 0.7 0.6 1.1 0.5 0.5 1.4 0.5 0.8 0 1.3-0.4 0.5-0.3 0.5-0.9zm3.4 1.5q0-0.4 0.2-0.6 0.2-0.3 0.7-0.3 0.4 0 0.6 0.3 0.3 0.2 0.3 0.6 0 0.4-0.3 0.6-0.2 0.3-0.6 0.3-0.5 0-0.7-0.3-0.2-0.2-0.2-0.6z"/><path fill-rule="evenodd" class="n" d="m60 71v-34.1h11.1q5.6 0 8.4 2.3 2.8 2.3 2.8 6.8 0 2.4-1.4 4.2-1.3 1.8-3.7 2.8 2.8 0.8 4.4 3 1.6 2.2 1.6 5.2 0 4.6-3 7.2-3 2.6-8.4 2.6zm4.5-16v12.3h7.4q3.2 0 5-1.6 1.8-1.6 1.8-4.5 0-6.2-6.7-6.2zm0-3.6h6.8q2.9 0 4.7-1.4 1.8-1.5 1.8-4.1 0-2.8-1.7-4-1.6-1.3-4.9-1.3h-6.7zm40.4 17q-2.6 3-7.4 3-4.1 0-6.2-2.3-2.1-2.4-2.2-7v-16.5h4.4v16.4q0 5.7 4.7 5.7 4.9 0 6.6-3.7v-18.4h4.3v25.3h-4.1zm16.7-28.9v6.1h4.7v3.3h-4.7v15.8q0 1.5 0.6 2.3 0.6 0.7 2.2 0.7 0.7 0 2-0.3v3.6q-1.7 0.4-3.3 0.4-2.9 0-4.4-1.7-1.5-1.8-1.5-5v-15.8h-4.6v-3.3h4.6v-6.1zm15.8 0v6.1h4.7v3.3h-4.7v15.8q0 1.5 0.6 2.3 0.6 0.7 2.1 0.7 0.8 0 2.1-0.3v3.6q-1.7 0.4-3.3 0.4-2.9 0-4.4-1.7-1.5-1.8-1.5-5v-15.8h-4.6v-3.3h4.6v-6.1zm8.2 18.5q0-3.7 1.5-6.7 1.4-2.9 4-4.6 2.7-1.6 6-1.6 5.2 0 8.4 3.6 3.2 3.6 3.2 9.6v0.3q0 3.7-1.4 6.6-1.4 2.9-4.1 4.6-2.6 1.6-6 1.6-5.2 0-8.4-3.6-3.2-3.5-3.2-9.5zm4.4 0.6q0 4.2 1.9 6.7 2 2.6 5.3 2.6 3.3 0 5.2-2.6 2-2.6 2-7.3 0-4.1-2-6.7-2-2.6-5.3-2.6-3.2 0-5.2 2.5-1.9 2.6-1.9 7.4zm28.2-13l0.2 3.2q2.9-3.7 7.6-3.7 8 0 8.1 9.1v16.8h-4.3v-16.8q-0.1-2.8-1.3-4.1-1.2-1.3-3.8-1.3-2.1 0-3.7 1.1-1.6 1.2-2.5 3v18.1h-4.4v-25.4zm37.2 18.6q0-1.7-1.3-2.7-1.4-1-4.7-1.7-3.2-0.7-5.2-1.7-1.9-0.9-2.8-2.3-1-1.4-1-3.2 0-3.2 2.7-5.3 2.6-2.2 6.7-2.2 4.3 0 7 2.3 2.7 2.2 2.7 5.7h-4.4q0-1.8-1.5-3.1-1.5-1.3-3.8-1.3-2.4 0-3.7 1-1.3 1.1-1.3 2.7 0 1.6 1.2 2.4 1.3 0.8 4.5 1.5 3.3 0.7 5.3 1.7 2 1.1 2.9 2.5 1 1.4 1 3.4 0 3.4-2.7 5.5-2.7 2-7 2-3.1 0-5.4-1-2.4-1.1-3.7-3-1.3-2-1.3-4.2h4.3q0.1 2.1 1.7 3.4 1.7 1.3 4.4 1.3 2.4 0 3.9-1 1.5-1 1.5-2.7z"/><path fill-rule="evenodd" class="d" d="m67.4 151.5h-7.2v7.5h-2.2v-17.1h10.6v1.9h-8.4v5.8h7.2zm5.9 7.6h-2.2v-12.7h2.2zm-2.4-16.1q0-0.5 0.3-0.9 0.4-0.3 1-0.3 0.6 0 1 0.3 0.3 0.4 0.3 0.9 0 0.6-0.3 0.9-0.4 0.4-1 0.4-0.6 0-1-0.4-0.3-0.3-0.3-0.9zm8.2 16.1h-2.2v-18h2.2zm5.8 0h-2.1v-18h2.1zm8.8 0.2q-2.6 0-4.2-1.7-1.6-1.7-1.6-4.5v-0.4q0-1.9 0.7-3.4 0.7-1.5 2-2.3 1.3-0.8 2.8-0.8 2.5 0 3.8 1.6 1.4 1.6 1.4 4.7v0.9h-8.6q0.1 1.8 1.1 3 1.1 1.1 2.7 1.1 1.1 0 1.9-0.4 0.8-0.5 1.4-1.3l1.4 1.1q-1.6 2.4-4.8 2.4zm-0.3-11.4q-1.3 0-2.2 1-0.9 1-1.1 2.7h6.4v-0.2q-0.1-1.6-0.9-2.5-0.8-1-2.2-1zm7.2 4.7q0-2.9 1.4-4.7 1.4-1.7 3.6-1.7 2.2 0 3.5 1.5v-6.6h2.2v18h-2l-0.1-1.4q-1.3 1.6-3.6 1.6-2.2 0-3.6-1.8-1.4-1.8-1.4-4.7zm2.2 0.2q0 2.2 0.9 3.4 0.9 1.2 2.4 1.2 2.1 0 3-1.8v-5.8q-0.9-1.8-2.9-1.8-1.6 0-2.5 1.2-0.9 1.2-0.9 3.6z"/></svg>