<svg version="1.2" xmlns="http://www.w3.org/2000/svg" viewBox="0 0 2009 1701" width="2009" height="1701"><style></style><path fill-rule="evenodd" d="m1334.8 26.1c246.2-0.1 370.2 0.2 370.2 0.9 0 0.5 2.3 1.4 5 2 2.8 0.5 7.8 2.2 11.3 3.6 3.4 1.5 8.5 4.1 11.2 5.8 2.8 1.8 7.9 6.1 11.5 9.7 3.6 3.5 8.5 9.5 10.7 13.4 2.3 3.8 5.1 9.9 6.3 13.5 1.1 3.6 2.6 9.7 3.2 13.5 0.5 3.8 0.7 10.6 0.4 15-0.3 4.4-1.8 11.6-3.2 16-1.3 4.4-4.2 11.2-6.3 15-2.1 3.8-5.7 10.2-7.8 14-2.2 3.8-10 17.3-17.3 30-7.4 12.7-16.6 28.6-20.5 35.5-4 6.9-9.7 16.8-12.7 22-3.1 5.2-9 15.6-13.3 23-4.3 7.4-10.3 17.8-13.3 23-3 5.2-8.8 15.1-12.7 22-4 6.9-9.7 16.8-12.7 22-3 5.2-7.6 13-10.1 17.3-2.6 4.2-4.7 7.9-4.7 8.2 0 0.3-2 3.8-4.4 7.7-2.4 4-6.3 10.7-8.6 14.8-2.4 4.1-7.5 13.1-11.5 20-4 6.9-9.8 17-13 22.5-3.2 5.5-9.1 15.7-13.2 22.7-4 7.1-10.6 18.5-14.6 25.5-4.1 7.1-13.3 23.2-20.6 35.8-7.4 12.6-19.8 34.3-27.8 48-7.9 13.8-14.8 25.7-15.3 26.5-0.5 0.8-3.2 5.3-5.9 10-2.7 4.7-13.7 23.8-24.5 42.5-10.7 18.7-19.6 34.6-19.6 35.3 0 0.6 30 53.1 66.6 116.5 36.7 63.3 72.8 125.8 80.2 138.7 7.5 12.9 15.9 27.5 18.8 32.5 2.8 5 8.6 15.1 12.9 22.5 4.3 7.4 10.3 17.8 13.3 23 3 5.2 8.8 15.2 12.9 22.3 4 7 10.6 18.4 14.6 25.5 4.1 7 10 17.2 13.2 22.7 3.2 5.5 9 15.6 13 22.5 3.9 6.9 9.8 17 13 22.5 3.2 5.5 9 15.6 13 22.5 3.9 6.9 13 22.6 20.1 35 7.2 12.4 18.9 32.6 26 45 7.2 12.4 18.4 31.7 24.8 43 6.5 11.3 13.3 23 15.1 26 1.8 3 13.4 23 25.8 44.5 12.3 21.5 48.3 83.8 79.9 138.5 31.6 54.7 58.5 101.4 59.6 103.8 1.2 2.3 3.3 8.1 4.7 13 2 6.7 2.5 11 2.5 18.5 0 5.5-0.7 12.4-1.6 16-0.9 3.4-3.3 9.8-5.4 14.2-2.1 4.4-6.3 10.9-9.2 14.5-3 3.6-9 9.2-13.3 12.5-4.4 3.3-10.9 7.2-14.5 8.7-3.6 1.4-8.4 2.8-10.7 3.2-2.4 0.3-4.5 1.1-4.8 1.6-0.3 0.7-306.9 1-916.8 1-526.6 0-916.6-0.3-917.2-0.8-0.5-0.5-3.2-1.5-6-2.1-2.7-0.7-8.6-2.9-13-5.1-5.4-2.5-10.4-6-15.4-10.6-4.1-3.8-9.2-9.4-11.4-12.4-2.3-3-5.3-8.2-6.9-11.5-1.5-3.3-3.4-8.7-4.3-12-0.8-3.3-1.8-9.6-2.1-14-0.4-5.7-0.1-10.3 1.1-16 0.9-4.4 2.9-10.9 4.4-14.5 1.6-3.6 43-76 92.1-161 49.1-85 102.7-177.9 119.2-206.5 16.5-28.6 31.5-54.5 33.3-57.5 1.8-3 8.6-14.7 15.1-26 6.4-11.3 17.5-30.4 24.5-42.5 6.9-12.1 15.2-26.5 18.4-32 3.1-5.5 8.1-14 11-19 2.9-5 5.6-10.1 6-11.5 0.4-1.4 1.7-3.6 3-5 1.2-1.4 5.2-7.7 8.7-14 3.6-6.3 9-15.8 12-21 3.1-5.2 9-15.6 13.3-23 4.3-7.4 11.1-19.1 15-26 4-6.9 9.7-16.8 12.7-22 3-5.2 9-15.6 13.3-23 4.3-7.4 10.1-17.5 13-22.5 2.8-5 8.7-15.1 13-22.5 4.3-7.4 10.1-17.5 13-22.5 2.8-5 8-14 11.5-20 3.5-6 38.9-67.5 78.8-136.5 39.9-69 78.2-135.4 85.2-147.5 7-12.1 60.4-104.6 118.7-205.5 58.3-100.9 107.9-186.9 110.3-191 2.4-4.1 6.7-11.5 9.5-16.5 2.9-4.9 8.7-15.1 13-22.5 4.3-7.4 9-15.5 10.4-18 1.4-2.5 6-7.9 10.1-12 4.2-4.1 10.3-8.9 13.6-10.7 3.2-1.8 9.7-4.4 14.4-5.8 4.7-1.5 10.8-3 13.5-3.5 2.8-0.4 171.6-0.8 375.3-0.9zm-220.9 54.4c0.5 0.6 4.3 6.9 8.4 14 4.1 7.2 10 17.5 13.2 23 3.2 5.5 9 15.6 13 22.5 3.9 6.9 10.7 18.6 15 26 4.3 7.4 10.1 17.6 12.9 22.5 2.9 5 10.6 18.2 17 29.5 6.5 11.3 13.3 23 15.1 26 1.8 3 13.5 23.3 26 45 12.5 21.7 24.2 42 26 45 1.8 3 16.8 28.9 33.3 57.5 16.4 28.6 43.3 75.2 59.7 103.5 16.3 28.3 30 51.9 30.3 52.3 0.4 0.4 2.1-1.4 3.8-4 1.8-2.6 5.8-9.5 9.1-15.3 3.3-5.8 11.9-20.8 19.2-33.5 7.3-12.6 19.2-33.1 26.3-45.5 7.2-12.4 15.8-27.2 19.1-33 3.3-5.8 23.4-40.6 44.7-77.5 21.3-36.9 59.8-103.4 85.5-148 25.7-44.5 47.6-82.9 48.7-85.2 1-2.4 1.8-5.5 1.8-7 0-1.6-1-5-2.3-7.8-1.4-2.7-3.7-6.3-5.3-7.8-1.6-1.6-4.7-3.5-6.9-4.2-3.4-1.3-41.1-1.5-259.2-1.5-203.6 0-255.3 0.3-255.3 1.3 0 0.6 0.4 1.7 0.9 2.2zm-129.6 74c-3.9 6.6-32.3 55.9-63.3 109.5-31 53.6-63.9 110.6-73.1 126.5-9.2 16-25.8 44.8-36.9 64-11.2 19.3-26.4 45.6-33.8 58.5-7.5 12.9-15.9 27.5-18.8 32.5-2.8 5-8.6 15.1-12.9 22.5-4.3 7.4-10.2 17.5-13 22.5-2.9 5-6.7 11.5-8.5 14.5-1.8 3-5.2 8.9-7.5 13-2.3 4.1-6.8 12-10 17.5-3.2 5.5-9.1 15.7-13.2 22.8-4 7-10.6 18.4-14.6 25.5-4.1 7-10 17.2-13.2 22.7-3.2 5.5-9 15.6-13 22.5-3.9 6.9-9.7 16.8-12.7 22-3 5.2-8.3 14.5-11.8 20.5-3.4 6-8 13.8-10.1 17.3-2.1 3.4-3.9 6.4-3.9 6.7 0 0.3-1.4 2.9-3.2 5.8-1.7 2.8-6.3 10.8-10.3 17.7-3.9 6.9-13 22.6-20.1 35-7.2 12.4-19 32.9-26.3 45.5-7.3 12.7-16.5 28.5-20.5 35.3-3.9 6.7-6.8 12.5-6.3 12.7 0.4 0.3 6.7-1.8 14-4.5 7.2-2.8 19.1-7.3 26.2-10 7.2-2.7 19.1-7.2 26.5-10 7.4-2.8 15.1-5.7 17-6.5 1.9-0.8 10.3-4 18.5-7.1 8.3-3 20.2-7.5 26.5-9.9 6.3-2.4 19.4-7.3 29-11 9.6-3.7 26.3-10 37-14.1 10.7-4 28.5-10.8 39.5-15 11-4.1 25.2-9.5 31.5-11.9 6.3-2.4 19.4-7.3 29-11 9.6-3.7 27.4-10.4 39.5-15 12.1-4.6 29.9-11.3 39.5-15 9.6-3.7 22.7-8.6 29-11 6.3-2.4 29.5-11.1 51.5-19.5 22-8.4 45.2-17.1 51.5-19.5 6.3-2.4 19.4-7.3 29-11 9.6-3.7 27.4-10.4 39.5-15 12.1-4.6 29.9-11.3 39.5-15 9.6-3.7 22.7-8.6 29-11 6.3-2.4 19.4-7.3 29-11 9.6-3.7 27.6-10.5 40-15.2 12.4-4.7 28.8-10.9 36.5-13.8 7.7-2.9 18.7-7.1 24.5-9.4 5.8-2.2 10.6-4.5 10.8-5 0.1-0.6-14.9-27.3-33.4-59.3-18.5-32.1-36.8-63.7-40.7-70.3-3.9-6.6-8.7-14.9-10.7-18.5-2-3.6-22.1-38.4-44.7-77.5-22.6-39-56.8-98.2-76-131.5-19.2-33.3-49.3-85.8-66.9-116.7-17.7-31-32.6-56.3-33.2-56.3-0.6 0-4 5.1-7.5 11.3-3.6 6.1-9.6 16.6-13.4 23.2zm243.2 613.5c-17.6 6.7-42.1 16-54.5 20.7-12.4 4.7-28.8 10.9-36.5 13.8-7.7 2.9-23.7 9-35.5 13.5-11.8 4.5-35.2 13.4-52 19.7-16.8 6.4-38.1 14.5-47.5 18-9.3 3.6-23.3 8.9-31 11.8-7.7 2.9-24.3 9.2-37 14-12.6 4.8-29.3 11.1-37 14-7.7 2.9-21.6 8.2-31 11.8-9.3 3.6-27.3 10.4-40 15.2-12.6 4.8-29.5 11.2-37.5 14.2-8 3-20.8 7.9-28.5 10.8-7.7 2.9-23.7 9-35.5 13.5-11.8 4.5-29.8 11.3-40 15.2-10.2 3.8-25 9.5-33 12.5-8 3-21 7.9-29 11-8 3-20.8 7.9-28.5 10.8-7.7 2.9-24.3 9.2-37 14-12.6 4.8-29.3 11.1-37 14-7.7 2.9-18.9 7.2-25 9.5-6 2.3-11.1 4.3-11.3 4.4-0.1 0 9 16.3 20.4 36.1 11.3 19.8 22.1 38.5 23.9 41.5 1.8 3 8.6 14.7 15.1 26 6.4 11.3 15 26.2 19.1 33.3 4 7 10.6 18.4 14.6 25.5 4.1 7 9.9 17.1 13 22.5 3.2 5.3 8.2 14.1 11.4 19.5 3.1 5.3 8.9 15.4 13 22.5 4 7 10.6 18.4 14.6 25.5 4.1 7 10 17.2 13.2 22.7 3.2 5.5 9 15.6 13 22.5 3.9 6.9 9.7 16.8 12.7 22 3 5.2 9 15.6 13.3 23 4.3 7.4 10.1 17.5 12.9 22.5 2.9 5 11.5 19.8 19.1 33 7.6 13.2 16.9 29.4 20.8 36 3.8 6.6 12.8 22.1 19.9 34.5 7.2 12.4 18 31.1 24.1 41.7 6.2 10.6 11.5 19 12 18.8 0.4-0.3 3.6-5.6 7-11.7 3.5-6.2 9-15.8 12.2-21.3 3.2-5.5 9-15.6 13-22.5 3.9-6.9 13.4-23.3 20.9-36.5 7.6-13.2 16.9-29.2 20.6-35.5 3.7-6.3 33-57 65-112.5 32.1-55.5 84-145.5 115.5-200 31.5-54.5 91.7-158.8 134-232 42.2-73.1 79.1-137 82.1-142 2.9-5 5.3-9.6 5.4-10.2 0-0.7-0.3-1.3-0.7-1.2-0.5 0-1.7 0.4-2.8 0.9-1.1 0.5-16.4 6.3-34 13zm104.3 100c-19.5 33.8-53.2 92.1-74.8 129.5-21.6 37.4-42.4 73.4-46.3 80-3.8 6.6-14.8 25.7-24.5 42.5-9.7 16.8-23.3 40.4-30.3 52.5-7 12.1-18.7 32.3-26 45-7.3 12.7-16.5 28.6-20.4 35.5-4 6.9-9.7 16.8-12.7 22-3.1 5.2-8 13.8-11 19-3.1 5.2-8.9 15.3-13 22.5-4.1 7.2-9.6 16.5-12.1 20.8-2.6 4.2-4.7 7.9-4.7 8.2 0 0.3-1.4 2.9-3.2 5.8-1.7 2.8-5.6 9.5-8.6 14.7-3 5.2-8.7 15.1-12.7 22-3.9 6.9-9.8 17-13 22.5-3.2 5.5-9 15.6-13 22.5-3.9 6.9-10.7 18.6-15 26-4.3 7.4-10.1 17.5-13 22.5-2.8 5-8 14-11.5 20-3.4 6-8 13.8-10.1 17.3-2.1 3.4-3.9 6.4-3.9 6.7 0 0.3-12.4 21.9-27.5 48-15.1 26.1-27.5 47.7-27.5 48 0 0.3 212.3 0.5 471.8 0.5 411.5-0.1 472.2-0.3 475.7-1.6 2.2-0.8 4.8-2.2 5.9-3.2 1-0.9 2.9-3.8 4.2-6.4 1.6-3.2 2.4-6.5 2.4-9.8 0-3.4-0.8-6.7-2.6-10.2-1.5-2.9-12.8-22.8-25.2-44.3-12.4-21.5-31.6-54.7-42.7-74-11.1-19.2-22.7-39.3-25.7-44.5-3-5.2-26.5-46-52.3-90.5-25.7-44.5-73.4-127.1-106-183.5-32.6-56.4-61-105.7-63.2-109.5-2.2-3.8-7.4-12.8-11.5-20-4.2-7.1-13.5-23.4-20.8-36-7.4-12.6-19.2-33.1-26.3-45.5-7.2-12.4-15.4-26.5-18.3-31.5-2.8-5-9.5-16.6-14.9-26-5.4-9.4-12.2-21.3-15.3-26.5-3-5.2-8.7-15.1-12.7-22-3.9-6.9-9.8-17-13-22.5-3.2-5.5-9.1-15.9-13.2-23-4.1-7.1-7.7-13.3-8.1-13.7-0.4-0.5-4.6 5.8-9.3 14-4.7 8.1-24.6 42.4-44.1 76.2zm-984.8 390c-31 53.6-63.9 110.5-73.1 126.5-9.1 16-25.8 44.8-36.9 64-11.2 19.3-22.8 39.5-26 45-3.1 5.5-10.4 18.1-16.2 28-5.7 9.9-11.6 20-13 22.5-1.4 2.5-7.4 12.8-13.3 23-5.9 10.2-12.1 21.4-13.8 25-2.5 5.5-2.9 7.2-2.3 11 0.4 2.5 1.9 6.7 3.4 9.3 2.1 3.7 3.9 5.4 7.7 7.3l5 2.4 512.5-0.5c-21.1-36.4-50.7-87.7-79.5-137.5-28.7-49.8-67.2-116.4-85.4-148-18.2-31.6-33.5-58.2-34-59-0.5-0.8-16.1-27.8-34.7-60-18.5-32.2-34.5-60-35.6-61.7-1-1.8-2.2-3.3-2.7-3.3-0.5 0-2 1.9-3.3 4.3-1.4 2.3-27.8 48.1-58.8 101.7z"/></svg>